<?xml version="1.0" encoding="utf-8"?>
<!-- Generator: Adobe Illustrator 24.3.0, SVG Export Plug-In . SVG Version: 6.00 Build 0)  -->
<svg version="1.1" id="Calque_1" xmlns="http://www.w3.org/2000/svg" xmlns:xlink="http://www.w3.org/1999/xlink" x="0px" y="0px"
	 viewBox="0 0 249.8 272" style="enable-background:new 0 0 249.8 272;" xml:space="preserve">
<style type="text/css">
	.st0{fill:#FF0000;}
	.st1{fill:#FFFFFF;}
</style>
<g id="Calque_vectoriel_00000029037903312025812490000017758123193239131014_">
	<g>
		<path class="st0" d="M163.1,24.1C163.1,24.1,163.1,24.1,163.1,24.1C163.1,24,163.1,24,163.1,24.1C163.1,24,163.1,24.1,163.1,24.1z
			"/>
		<path class="st1" d="M30.1,44.5c0,0,0.1,0,0.1,0c0,0,0,0,0,0C30.2,44.5,30.1,44.5,30.1,44.5z"/>
		<path class="st1" d="M244.6,196c0-2.1,0.1-4.3,0.1-6.4c0-2.1,0-4.1-0.1-6.2c-0.1-2-0.1-4-0.2-6c-0.1-2.1-0.2-4.2-0.4-6.2
			c-0.1-2.2-0.2-4.4-0.3-6.6c-0.2-4.2-0.5-8.3-0.6-12.5c-0.2-4.4-0.3-8.7-0.6-13.1c-0.1-2-0.2-4-0.4-6c-0.1-2.2-0.2-4.3-0.4-6.5
			c-0.2-2.3-0.4-4.5-0.6-6.8c-0.2-3.8-0.4-7.7-0.6-11.6c-0.2-3.7-0.4-7.4-0.7-11.1c-0.1-0.8-0.1-1.7-0.2-2.5
			c-0.2-2.8-0.3-5.5-0.5-8.3c-0.2-2.7-0.4-5.4-0.6-8.2c0-0.8-0.1-1.7-0.1-2.5c-0.1-2.3-0.1-4.6-0.1-6.8c0-2.1-0.1-4.2-0.1-6.4
			c0-2.3,0-4.5-0.1-6.8c-0.1-2.2-0.2-4.4-0.4-6.6c-0.3-4.1-0.5-8.2-0.7-12.3c-0.1-2-0.3-4-0.3-6c-0.1-1.9-0.1-3.8,0-5.7
			c0-0.4,0.1-0.8,0.1-1.2c0.1-0.5,0.1-1.1,0-1.7c-0.1-0.4-0.3-0.8-0.6-1.1c-0.3-0.4-0.8-0.7-1.4-0.9c-0.4-0.1-0.9-0.1-1.3,0
			c-0.4,0.1-0.9,0.1-1.3,0.2c-1,0.2-1.9,0.3-2.9,0.5c-0.6,0.1-1.2,0.3-1.8,0.4c-0.4-0.1-0.9,0-1.3,0.2c0-0.1,0-0.3-0.1-0.4
			c-0.1-0.5-0.1-1-0.2-1.5c-0.2-1-0.4-2-1.2-2.7c-1.2-1.1-2.9-0.9-4.4-0.7c-1.1,0.2-2.2,0.4-3.3,0.8c-0.2,0.1-0.5,0.2-0.7,0.3
			c0.1-0.7,0.1-1.4,0.1-2.1c0-0.5,0-1-0.1-1.5c-0.1-0.8-0.5-1.6-1.2-2c-0.7-0.5-1.5-0.6-2.3-0.4c-0.4,0.1-0.8,0.2-1.2,0.3
			c-0.8,0.2-1.6,0.4-2.4,0.6c-0.7,0.2-1.4,0.3-2.1,0.5c-1.1,0.3-2.1,0.6-3.2,0.9c0-0.4-0.1-0.9-0.1-1.4c-0.1-0.8-0.1-1.6-0.2-2.4
			c-0.1-0.7-0.2-1.4-0.2-2.2c0-0.1,0-0.1,0-0.2c0.1-0.6,0-1.3-0.4-1.8c-0.4-0.5-0.9-0.8-1.4-0.8c-0.5-0.1-1,0.1-1.5,0.3
			c-0.1,0-0.2,0-0.2,0.1c0,0-0.1,0-0.1,0.1c-1.2,0.6-2.4,1.2-3.5,1.9c-1.1,0.6-2.2,1.2-3.3,1.8c-2.3,1.3-4.7,2.6-7,3.8
			c-0.5,0.2-0.9,0.5-1.4,0.7c-2.4,1.2-4.9,2.4-7.3,3.6c-2.3,1.2-4.6,2.4-6.9,3.5c-1.7,0.8-3.3,1.6-5,2.5c-0.8,0.4-1.5,0.8-2.3,1.1
			c-3.8,1.9-7.6,3.9-11.4,5.9c-1.5,0.8-3.1,1.5-4.6,2.3c-4.9,2.3-9.9,4.7-14.8,7c-2.5,1.2-5.1,2.4-7.6,3.7c-1.2,0.6-2.3,1.3-3.5,1.9
			c-1,0.6-2.1,1.2-3.1,1.8c-0.1,0-3.2,1.1-3.3,1.1c-1,0.2-1.7,1.1-1.7,2.2c0,0.6,0.2,1.2,0.7,1.6c0.4,0.4,1,0.7,1.6,0.7
			c0.2,0,0.4,0,0.6-0.1c0.6-0.1,4.1-1.5,4.6-1.7c0.9-0.5,1.8-1,2.7-1.5c1.8-1,3.5-2,5.3-2.9c2.5-1.3,5.1-2.5,7.6-3.7
			c4.9-2.3,9.9-4.7,14.8-7.1c4.8-2.3,9.4-4.8,14.1-7.2c0.8-0.4,1.5-0.8,2.2-1.1c2.3-1.2,4.6-2.3,7-3.5c2-1,4-2.1,6-3.1
			c2.5-1.2,5-2.4,7.5-3.7c2.4-1.2,4.8-2.5,7.1-3.8c1.2-0.7,2.3-1.3,3.5-2c0.3-0.2,0.7-0.4,1-0.6c0,0.2,0,0.5,0.1,0.7
			c0.1,1,0.1,1.9,0.2,2.9c0.1,0.9,0.2,1.7,0.3,2.5c0.1,0.9,0.2,1.9,0.4,2.8c0.1,1,0.3,1.9,0.4,2.9c0.2,1.9,0.4,3.9,0.6,5.8
			c0.2,1.9,0.4,3.8,0.6,5.7c0.2,1.9,0.3,3.7,0.4,5.6c0.1,1.9,0.2,3.8,0.3,5.8c0.1,2,0.3,4,0.4,6c0.1,2,0.3,4,0.4,5.9
			c0.1,2,0.2,4.1,0.2,6.1c0.1,4.1,0,8.1,0.1,12.2c0,2,0.2,4,0.2,5.9c0.1,2,0.2,4,0.2,5.9c0.1,4.1,0.2,8.1,0.3,12.2
			c0.1,2,0.1,4.1,0.1,6.1c0,1.9,0,3.7,0,5.6c0,2.1,0.1,4.1,0.1,6.2c0.1,1.9,0.1,3.8,0.2,5.7c0.1,4,0.1,8.1,0.1,12.1
			c0,4,0,7.9,0,11.9c0,3.9,0,7.9,0.1,11.8c0,2,0,4,0,6c0,1.9,0,3.9,0,5.8c0.1,3.9,0.4,7.9,0.3,11.8c0,1.9-0.2,3.8-0.2,5.7
			c0,1,0,1.9,0,2.9c0,0.3,0,0.5,0,0.8c-0.5,0.1-0.9,0.2-1.4,0.3c-1.5,0.3-3,0.6-4.4,0.9c-1.6,0.3-3.1,0.7-4.7,0.9
			c-3.1,0.5-6.2,0.9-9.2,1.2c-3.9,0.4-7.6,0.9-11.3,1.6c-2.8,0.5-5.6,1-8.3,1.6c-2.8,0.6-5.6,1.2-8.3,1.9c-2.7,0.6-5.3,1.3-8,2
			c-2.4,0.6-4.7,1.1-7,1.7c-2.3,0.5-4.6,1.1-6.9,1.6c-4.7,1.1-9.3,2.1-13.8,3.1c-2.1,0.5-4.3,0.9-6.3,1.4c-1.1,0.2-2.2,0.5-3.2,0.7
			c-0.1,0-0.2,0-0.3,0.1c0,0-0.1,0-0.1,0c-0.9,0.1-1.8,0.2-2.6,0.4c0,0,0,0,0,0c-0.1,0-0.2,0-0.2,0c-0.3,0-0.6,0.1-0.8,0.3
			c0,0-0.1,0-0.1,0c-0.9,0-1.6,0.5-1.8,1.3c-0.5,0.5-1,1-1.5,1.5c-3.8,3.6-7.2,7.6-11.1,11.1c-2.2,1.9-4.5,3.8-6.7,5.7
			c-1.9,1.7-4,3.3-6,4.9c-2.1,1.6-4.1,3.2-6.1,4.7c-2.1,1.6-4.1,3.1-6.2,4.7c-2.1,1.6-4.2,3.1-6.3,4.6c-2,1.3-4,2.6-6.1,3.8
			c-2.1,1.2-4.1,2.4-6.3,3.5c-0.8,0.4-1.5,0.8-2.3,1.1c1-1.2,1.9-2.5,2.9-3.7c1.6-2.1,3.2-4.2,4.8-6.3c1.6-2.2,3.2-4.4,4.7-6.7
			c1.4-2.1,2.8-4.3,4.1-6.5c0.7-1.1,1.3-2.2,2-3.3c0.7-1.1,1.5-2.2,2.2-3.3c0.7-1.2,1.4-2.4,2-3.6c0.7-1.2,1.3-2.5,1.9-3.7
			c0.6-1.1,1.1-2.2,1.7-3.4c0.3-0.7,0.7-1.3,1-2c0.4-0.9,0.9-1.8,0.9-2.8c0-0.3-0.1-0.5-0.1-0.8c-0.1-0.8-0.6-1.5-1.3-1.8
			c-0.7-0.3-1.4-0.2-2.1-0.1c-0.4,0.1-0.7,0.1-1.1,0.1c-0.8,0.1-1.7,0.3-2.5,0.5c-1.3,0.3-2.7,0.4-4,0.6c-1.5,0.2-3,0.4-4.6,0.5
			c-1.1,0.1-2.2,0.1-3.2,0.2c-1.1,0-2.2,0-3.2,0c-1.1,0-2.2,0.1-3.2,0.1c-1,0.1-2.1,0.1-3.1,0.2c-1.9,0.1-3.8,0.2-5.7,0.3
			c-1.8,0.1-3.6,0.1-5.4,0.2c-0.9,0-1.8,0.1-2.8,0.1c-0.9,0-1.8,0-2.7,0c-1.7,0-3.5,0-5.2-0.1c-1.4-0.1-2.8-0.2-4.2-0.2
			c-0.6,0-1.2,0-1.8,0.1c0-0.5,0-0.9,0-1.4c0-0.9-0.1-1.8-0.1-2.7c-0.1-1.8-0.3-3.6-0.5-5.5c-0.3-3.6-0.7-7.2-0.9-10.8
			c-0.1-2.6-0.2-5.2-0.2-7.8c0-2.8,0-5.6,0-8.4c0-3.6,0-7.3,0-10.9c-0.1-3.7-0.2-7.4-0.5-11.1c-0.3-3.9-0.5-7.9-0.9-11.8
			c-0.2-1.8-0.4-3.6-0.5-5.3c-0.2-1.9-0.3-3.8-0.5-5.7c-0.1-1.7-0.2-3.3-0.3-5c-0.2-3.6-0.4-7.2-0.6-10.8c-0.2-3.9-0.5-7.7-0.8-11.6
			c-0.1-1.9-0.2-3.9-0.3-5.8c-0.1-1.9-0.1-3.8-0.2-5.7c-0.1-3.7-0.2-7.4-0.5-11.1c-0.1-1.8-0.3-3.7-0.5-5.5
			c-0.2-1.9-0.4-3.8-0.6-5.7c-0.4-3.6-0.7-7.2-1-10.8c-0.2-2.8-0.3-5.7-0.6-8.5c-0.1-1.2-0.2-2.4-0.4-3.6c0.4,0,0.8,0.1,1.1,0.1
			c1,0.1,2,0.2,3,0.3c1.4,0.2,2.8,0.3,4.1,0.5c1.5,0.1,2.9,0.2,4.4,0.3c2.6,0.2,5.2,0.2,7.8,0.4c0.8,0,1.6,0.1,2.4,0.2
			c1.9,0.1,3.9,0.3,5.8,0.4c-0.1,0-0.2,0-0.3,0c0.1,0,0.3,0,0.4,0c0,0,0,0,0,0l0,0l0,0c0.1,0,0.2,0,0.3,0c0,0,0,0,0,0
			c0,0,0.1,0,0.1,0c0,0,0,0-0.1,0c0.3,0,0.5,0,0.8,0c0.3,0,0.6,0,0.9,0.1c0.1,0,0.3,0,0.4,0c-0.1,0-0.2,0-0.3,0
			c2.5,0.2,5,0.3,7.5,0.4c2.7,0.1,5.3,0.2,8,0.3c5.2,0.2,10.5,0.4,15.7,0.6c5.4,0.2,10.9,0.4,16.3,0.5c2.7,0.1,5.4,0.1,8.2,0.1
			c1.3,0,2.6,0,3.9,0c1.2,0,2.4,0,3.6,0c0.1,0,3.9,0.4,4,0.4c0.2,0.1,0.4,0.1,0.6,0.1c0.7,0,1.3-0.3,1.8-0.8
			c0.7-0.9,0.6-2.4-0.4-3.1c-0.4-0.3-0.9-0.5-1.4-0.5c-1.2-0.1-6-0.5-7.2-0.5c-1.4,0-2.8,0-4.1,0c-2.6,0-5.2,0-7.8-0.1
			c-5.4-0.1-10.8-0.3-16.2-0.5c-5.3-0.2-10.6-0.4-16-0.6c-2.8-0.1-5.5-0.2-8.3-0.3c-2.6-0.1-5.1-0.2-7.7-0.4c0,0,0,0-0.1,0
			c0,0,0,0,0,0c0,0,0,0,0,0c0,0,0,0,0,0c-0.1,0-0.1,0-0.2,0c0.1,0,0.1,0,0.2,0c-0.1,0-0.2,0-0.3,0c0,0,0,0,0,0c-0.3,0-0.5,0-0.8,0
			c-0.3,0-0.5,0-0.8,0c-0.2,0-0.3,0-0.5,0c-2.7-0.2-5.4-0.4-8.1-0.6c-1.8-0.1-3.5-0.2-5.3-0.3c-1.5-0.1-3.1-0.2-4.6-0.2
			c-2-0.2-4-0.4-6-0.6c-1-0.1-1.9-0.2-2.9-0.3c-0.8-0.1-1.6-0.1-2.5-0.2c-0.2-0.1-0.5-0.1-0.8-0.1c-0.2,0-0.3,0-0.5,0.1
			c-0.3-0.2-0.7-0.2-1.1-0.2c-1.2,0-2.2,1-2.2,2.2c0,0.6,0.3,1.2,0.7,1.6c0,0,0,0.1,0,0.1c0.3,1.9,0.5,3.9,0.6,5.8
			c0.2,2.6,0.3,5.3,0.5,7.9c0.3,3.7,0.6,7.3,1,11c0.2,1.9,0.4,3.8,0.6,5.6c0.2,1.8,0.3,3.6,0.5,5.3c0.2,2.8,0.3,5.6,0.4,8.4
			c0.1,3.7,0.2,7.4,0.4,11.1c0.2,3.8,0.5,7.6,0.8,11.4c0.3,5.3,0.6,10.6,0.9,15.8c0.2,3.9,0.6,7.9,0.9,11.8c0.4,3.7,0.7,7.3,0.9,11
			c0.3,4.4,0.5,8.8,0.6,13.1c0.2,7.5-0.1,14.9,0.1,22.4c0.1,3.7,0.4,7.4,0.7,11.1c0.3,3.5,0.7,7,0.9,10.6c0.1,1.5,0.1,3,0.2,4.5
			c0,0.5,0,0.9,0.1,1.4c0,0.5,0.1,0.9,0.3,1.3c0.4,0.9,1.2,1.4,2.2,1.4c0.4,0,0.9-0.1,1.3-0.2c0.5-0.1,1-0.1,1.5-0.2
			c0.5,0,1-0.1,1.5,0c0.5,0,0.9,0,1.4,0.1c1.2,0.1,2.4,0.2,3.6,0.2c1,0.1,2.1,0.1,3.1,0.1c1.9,0,3.7,0,5.6-0.1
			c1.8-0.1,3.7-0.1,5.5-0.2c1.8-0.1,3.7-0.2,5.5-0.3c1.8-0.1,3.6-0.2,5.4-0.3c1.8,0,3.6,0,5.5-0.1c1.8-0.1,3.7-0.2,5.5-0.4
			c1.7-0.2,3.5-0.4,5.2-0.7c0.8-0.1,1.5-0.3,2.3-0.4c0,0,0,0,0,0c-0.3,0.6-0.6,1.2-0.9,1.9c-0.6,1.3-1.3,2.6-1.9,3.9
			c-1.2,2.4-2.5,4.8-4,7c-0.7,1.1-1.5,2.2-2.2,3.4c-0.7,1.1-1.3,2.2-2,3.3c-1.3,2.1-2.7,4.3-4.1,6.4c-1.2,1.8-2.5,3.5-3.8,5.2
			c-1.2,1.7-2.5,3.4-3.8,5c-1.6,2.1-3.3,4.2-4.9,6.3c-0.7,1-1.5,1.9-2.2,2.9c-0.3,0.5-0.7,1-1.1,1.4c-0.3,0.5-0.7,0.9-1,1.4
			c-0.6,1-0.2,2.4,0.8,3c0.3,0.2,0.7,0.3,1.1,0.3c0.4,0,0.8-0.1,1.1-0.3c0.6,0,1-0.2,1.5-0.6c0.1-0.1,0.3-0.2,0.4-0.3
			c0.2-0.1,0.4-0.3,0.7-0.4c1.8-0.9,3.8-1.7,5.6-2.5c1.2-0.6,2.5-1.2,3.6-1.8c1.1-0.6,2.2-1.3,3.4-1.9c2.3-1.3,4.5-2.6,6.7-4.1
			c2.3-1.5,4.5-3.1,6.7-4.8c2-1.5,4.1-3,6.1-4.6c2.1-1.6,4.2-3.2,6.2-4.8c2.1-1.6,4.2-3.2,6.2-4.9c0.9-0.8,1.9-1.6,2.8-2.4
			c1.1-0.9,2.1-1.8,3.2-2.7c2-1.7,4-3.5,5.8-5.4c1.8-1.9,3.6-3.8,5.4-5.7c0.9-0.9,1.9-1.9,2.9-2.8c0.4-0.4,0.7-0.7,1.1-1.1
			c0.2,0,0.4,0,0.6,0c2,0,4,0,6-0.1c2,0,4-0.1,5.9-0.1c1.3,0,2.6-0.1,3.8-0.1c2.3,0.1,4.6,0.2,6.9,0.3c3.9,0.1,7.8,0.1,11.7,0.2
			c4.1,0,8.2,0.1,12.4,0.3c4.2,0.1,8.5,0.3,12.7,0.5c4.1,0.2,8.3,0.4,12.5,0.7c8.2,0.4,16.4,0.8,24.7,1.2c2.2,0.1,4.4,0.2,6.6,0.3
			c2.1,0.1,4.2,0.1,6.3,0.1c4.2,0,8.4-0.1,12.5-0.4c2.1-0.1,4.2-0.2,6.3-0.5c1.1-0.1,2.3-0.2,3.4-0.4c1-0.2,1.9-0.9,2-1.9
			c0.1-0.4,0-0.8,0-1.2c0-1-0.1-1.9-0.1-2.9c0-1,0-2.1,0-3.1c0-2,0-4.1,0.1-6.1C244.5,200,244.6,198,244.6,196z M9.6,46.4
			c-0.1,0-0.1,0.1-0.2,0.2v0C9.5,46.5,9.6,46.4,9.6,46.4C9.6,46.4,9.6,46.4,9.6,46.4z M217.3,21.5c0.1-0.1,0.2-0.1,0.4-0.2
			c0.3-0.1,0.6-0.2,0.8-0.3c0.6-0.2,1.2-0.3,1.9-0.5c0.4-0.1,0.9-0.1,1.3-0.2c0.1,0.6,0.2,1.2,0.3,1.8c0.1,0.8,0.2,1.6,0.4,2.5
			c0.1,0.7,0.2,1.5,0.3,2.2c0.1,0.8,0.2,1.6,0.3,2.4c0.1,1.7,0.2,3.4,0.2,5.1c0,1,0,1.9,0,2.8c0,0.8,0.1,1.7,0.1,2.5
			c0,0.7,0.1,1.3,0.1,2c0.1,2.1,0.1,4.2,0.1,6.3c0,2.1,0.1,4.3,0.1,6.4c0.1,4.4,0,8.7,0,13.1c0,1.1,0,2.2,0,3.3c0,1,0,2.1,0.1,3.1
			c0.1,2.3,0.3,4.6,0.5,6.8c0.3,4.3,0.7,8.5,1,12.8c0.2,3.1,0.4,6.2,0.4,9.2c0.1,2.2,0.2,4.3,0.2,6.5c0.1,2.1,0.1,4.1,0.1,6.2
			c0,4.3,0,8.5,0,12.8c0,2.1,0,4.3-0.1,6.4c0,2.1-0.1,4.2,0,6.2c0.1,2.2,0.2,4.4,0.4,6.6c0.2,2,0.4,3.9,0.5,5.9
			c0.1,1,0.1,1.9,0.1,2.9c0.1,4.2,0.1,8.4,0.4,12.6c0.1,2.1,0.2,4.2,0.3,6.3c0.1,2.1,0.2,4.1,0.2,6.1c0.1,4.1,0.1,8.2,0.1,12.3
			c0,2.1,0,4.2,0,6.3c0,1,0,2.1,0.1,3.1c0,0.5,0.1,1.1,0.1,1.6c-0.8,0.1-1.6,0.3-2.3,0.5c-1.3,0.3-2.6,0.5-3.8,0.8
			c-2.2,0.4-4.5,0.7-6.8,0.9c-2.1,0.2-4.2,0.3-6.3,0.4c-3.1,0.1-6.2,0.2-9.4,0.4c-4.3,0.2-8.7,0.5-13,0.7c-2,0.1-4,0.3-6.1,0.4
			c-2.1,0.1-4.3,0.2-6.4,0.3c-1.6,0.1-3.2,0.1-4.8,0.1c-1.6,0-3.1,0-4.7,0c-1.7,0-3.4,0-5.1,0.1c-0.5,0-1.1,0.1-1.6,0.1
			c3.6-0.3,7.1-0.7,10.7-1c4.2-0.4,8.4-0.9,12.6-1.5c2-0.3,4.1-0.6,6.1-0.9c2.2-0.3,4.5-0.6,6.7-0.8c2.1-0.2,4.2-0.4,6.3-0.6
			c2.3-0.3,4.5-0.7,6.8-1.1c2-0.4,4-0.8,6-1.2c2.1-0.4,4.3-0.9,6.4-1.3c0.6-0.1,1.1-0.2,1.6-0.4c0.7-0.2,1.4-0.5,1.8-1.1
			c0.4-0.6,0.6-1.2,0.7-1.8c0.1-0.5,0.1-1,0.1-1.6c0.1-2,0-4-0.1-6c-0.1-2.1-0.1-4.2-0.2-6.4c-0.1-2.2-0.2-4.4-0.3-6.5
			c-0.1-2.1-0.2-4.2-0.2-6.2c0-2.1-0.1-4.2-0.1-6.3c-0.1-2.2-0.2-4.4-0.3-6.7c-0.1-2.1-0.3-4.2-0.4-6.3c-0.1-2.1-0.2-4.2-0.3-6.3
			c-0.1-2.3-0.3-4.5-0.4-6.8c-0.1-1.5-0.2-3-0.2-4.5c-0.1-1.5-0.1-2.9-0.1-4.4c-0.1-2.8-0.3-5.6-0.4-8.4c-0.1-2.2-0.1-4.5-0.1-6.7
			c0-2.1-0.2-4.2-0.2-6.4c-0.1-2.1-0.1-4.2-0.2-6.3c-0.1-2.3-0.3-4.6-0.4-6.8c-0.1-1.3-0.2-2.6-0.2-3.9c-0.1-1.2-0.1-2.5-0.2-3.7
			c-0.1-2.6-0.3-5.1-0.5-7.7c-0.1-1.3-0.1-2.6-0.2-3.9c-0.1-4.2-0.2-8.5-0.3-12.7c0-2-0.1-4.1-0.1-6.2c0-2.2,0-4.3-0.1-6.5
			c-0.1-2.2-0.1-4.3-0.2-6.5c-0.1-2.3-0.1-4.5-0.2-6.8c-0.1-2.1-0.4-4.2-0.6-6.2c-0.3-2.1-0.5-4.3-0.8-6.4c0-0.4-0.1-0.8-0.1-1.3
			c0-0.4,0-0.7,0-1.1C216.6,21.9,217,21.8,217.3,21.5z M158.4,203.8c2.6-0.6,5.3-1.2,8-1.7c2.7-0.6,5.5-1,8.3-1.5
			c2.8-0.5,5.6-0.8,8.5-1.1c1.5-0.2,3-0.3,4.5-0.5c3.1-0.3,6.2-0.7,9.4-1.3c1.6-0.3,3.1-0.6,4.6-0.9c0.8-0.1,1.5-0.3,2.2-0.5
			c0.7-0.1,1.4-0.3,2-0.4c0.3,0.1,0.6,0.1,0.9,0.1c1.5-0.1,2.7-1.2,2.7-2.4c0-0.1,0-0.3-0.1-0.4c0,0,0-0.1,0-0.1c0-1.1,0-2.2,0-3.4
			c0-1.9,0.1-3.8,0.2-5.6c0.1-2,0.1-3.9,0-5.9c-0.1-1.9-0.1-3.8-0.2-5.7c-0.1-2-0.1-3.9-0.1-5.9c0-8,0-16.1-0.1-24.1
			c0-4,0-7.9,0-11.9c0-3.9-0.1-7.7-0.2-11.6c-0.1-3.9-0.2-7.9-0.2-11.8c0-2,0-3.9-0.1-5.9c-0.1-2-0.1-4.1-0.1-6.1
			c-0.1-4-0.2-8.1-0.4-12.1c-0.1-2-0.1-4.1-0.2-6.1c-0.1-2-0.1-4-0.1-6c0-4.1,0-8.2-0.2-12.2c-0.1-1.9-0.2-3.8-0.3-5.8
			c-0.1-2.1-0.3-4.2-0.4-6.2c-0.1-2-0.2-4-0.3-6s-0.3-4-0.4-6c-0.2-2-0.4-4-0.6-6c-0.2-1.9-0.3-3.8-0.5-5.6c-0.1-1-0.2-2-0.4-3
			c-0.1-0.8-0.2-1.5-0.3-2.3c1.3-0.3,2.6-0.7,3.9-1.1c1-0.2,1.9-0.5,2.9-0.7c0.3-0.1,0.5-0.1,0.8-0.2c0,0.1,0,0.3,0,0.5
			c-0.1,1.8-0.3,3.5-0.3,5.2c-0.1,1.7,0.1,3.4,0.3,5.1c0.2,1.7,0.4,3.4,0.6,5.1c0.1,1,0.2,2,0.4,3c0.1,0.7,0.1,1.5,0.2,2.2
			c0.1,1.8,0.1,3.6,0.2,5.5c0,1.9,0.1,3.7,0.2,5.6c0.1,3.8,0.1,7.5,0.1,11.3c0,4.3,0.1,8.5,0.2,12.8c0.1,2,0.1,4.1,0.2,6.1
			c0.1,2.2,0.3,4.4,0.5,6.6c0.2,2.5,0.3,5,0.4,7.5c0.1,2.4,0.3,4.9,0.5,7.3c0.1,1.5,0.1,3.1,0.2,4.6c0,1.6,0.1,3.1,0.1,4.6
			c0.1,2.8,0.2,5.6,0.3,8.3c0,1.2,0,2.4,0.1,3.5c0,1.1,0.1,2.1,0.1,3.2c0.1,2.2,0.2,4.3,0.3,6.5c0.1,2.1,0.1,4.1,0.2,6.1
			c0.1,2.2,0.3,4.3,0.4,6.5c0.1,2.2,0.2,4.3,0.3,6.5c0.1,2,0.3,4.1,0.4,6.1c0.1,2.6,0.2,5.1,0.3,7.7c0.1,1.3,0.1,2.7,0.1,4
			c0,1.3,0,2.5,0.1,3.8c0,2.2,0.1,4.4,0.2,6.6c0,1.1,0.1,2.1,0.1,3.2c0,1,0.1,2.1,0.1,3.1c0.1,2.1,0.1,4.3,0.2,6.4
			c0,1.1,0,2.1,0,3.2c0,0.9,0,1.7,0,2.6c-0.6,0.2-1.2,0.3-1.9,0.4c-0.8,0.2-1.6,0.3-2.4,0.5c-3.8,0.7-7.6,1.5-11.4,2.2
			c-2,0.3-4,0.6-6,0.8c-2,0.2-4,0.4-6,0.6c-4.2,0.5-8.4,1.2-12.6,1.8c-2.1,0.3-4.3,0.6-6.4,0.8c-2.2,0.2-4.4,0.5-6.6,0.7
			c-4.3,0.4-8.6,0.8-12.8,1.2c-0.5,0-0.9,0.1-1.4,0.1C154,204.8,156.2,204.3,158.4,203.8z M240.2,191c0,2,0,4-0.1,6
			c0,2.1-0.1,4.2-0.2,6.2c0,2-0.1,4,0,5.9c0,1,0,2.1,0.1,3.1c0,0.3,0,0.6,0.1,0.9c-1.2,0.1-2.5,0.3-3.8,0.4
			c-1.5,0.1-2.9,0.2-4.4,0.3c-1.5,0.1-3,0.2-4.5,0.3c-1.6,0.1-3.1,0.1-4.7,0.1c-3.1,0-6.3,0-9.4-0.1c-3.3-0.1-6.6-0.3-9.9-0.5
			c-4.2-0.2-8.4-0.4-12.5-0.6c-2.3-0.1-4.6-0.2-6.9-0.4c2.7-0.2,5.4-0.3,8.1-0.5c4.3-0.2,8.6-0.5,13-0.7c4.1-0.1,8.1-0.2,12.1-0.7
			c2.1-0.3,4.2-0.6,6.4-0.9c0.9-0.2,1.9-0.3,2.8-0.5c0.9-0.2,1.9-0.4,2.8-0.6c0.5-0.1,0.9-0.1,1.4-0.2c0.4-0.1,0.8-0.2,1.2-0.5
			c0.4-0.3,0.7-0.7,0.8-1.2c0.1-0.5,0.1-1,0.1-1.6c0-0.4-0.1-0.8-0.1-1.2c-0.2-3.2-0.1-6.3-0.1-9.5c0-4.2,0-8.3-0.1-12.5
			c0-2.1-0.1-4.2-0.2-6.3c-0.1-2.1-0.2-4.2-0.3-6.3c-0.2-4.1-0.2-8.2-0.4-12.3c-0.1-2.2-0.2-4.4-0.4-6.6c-0.2-2.1-0.4-4.1-0.6-6.1
			c-0.1-1.4-0.2-2.8-0.2-4.2c0-1.6,0-3.1,0-4.6c0-1.6,0.1-3.1,0.1-4.6c0-1.4,0-2.9,0-4.3c0-4.2,0-8.5,0-12.8c0-2.1,0-4.2-0.1-6.2
			c-0.1-2.2-0.1-4.3-0.2-6.5c-0.1-4.3-0.4-8.5-0.8-12.8c-0.4-4.3-0.6-8.6-0.9-12.9c-0.1-1.9-0.1-3.7-0.2-5.6c0-1.9-0.1-3.7-0.1-5.6
			c0-2.2,0-4.3,0-6.5c0-2.2-0.1-4.3-0.1-6.5c0-2.2,0-4.4-0.1-6.6c0-2.1-0.2-4.2-0.3-6.3c-0.1-1.5-0.1-2.9-0.1-4.3
			c0-1.2-0.1-2.4-0.1-3.5c0-1.1-0.1-2.2-0.3-3.4c0-0.4-0.1-0.8-0.2-1.3c0.3,0,0.5,0,0.8-0.1c0.3-0.1,0.6-0.2,0.9-0.2
			c0.6-0.1,1.1-0.3,1.7-0.4c0.5-0.1,1.1-0.2,1.6-0.3c0,0.1,0,0.1,0,0.2c-0.2,4.5,0.2,8.9,0.4,13.4c0.1,2.1,0.2,4.2,0.4,6.3
			c0.1,2.3,0.3,4.6,0.4,6.9c0,0,0-0.1,0-0.1c0.1,1.4,0.2,2.8,0.2,4.3c0,1.5,0.1,3.1,0.1,4.6c0,2.3,0.1,4.6,0.1,6.9
			c0.1,2.2,0.1,4.4,0.1,6.6c0,1,0.1,2,0.1,3c0.1,1.2,0.1,2.5,0.2,3.7c0.1,2.1,0.4,4.2,0.5,6.3c0.2,2.7,0.3,5.3,0.5,8
			c0.1,1.7,0.2,3.4,0.4,5.1c0,0.1,0,0.2,0,0.3c0.3,4.4,0.5,8.8,0.7,13.2c0.1,2.2,0.2,4.5,0.4,6.7c0.2,2.2,0.4,4.4,0.6,6.6
			c0-0.1,0-0.2,0-0.3c0.1,0.8,0.1,1.6,0.2,2.5c0.1,1.9,0.2,3.8,0.3,5.7c0.1,2.1,0.2,4.1,0.4,6.2c0.2,4.1,0.3,8.2,0.5,12.4
			c0.2,4.3,0.5,8.7,0.7,13c0.1,2,0.2,4,0.3,6c0.1,2.1,0.3,4.2,0.4,6.2c0.1,2.2,0.2,4.4,0.2,6.5C240.3,186.9,240.3,189,240.2,191z"/>
		<path class="st0" d="M235.3,94.8C235.3,94.8,235.3,94.8,235.3,94.8c0-0.1,0-0.2,0-0.3C235.3,94.6,235.3,94.7,235.3,94.8z"/>
	</g>
</g>
</svg>
