<?xml version="1.0" encoding="utf-8"?>
<!-- Generator: Adobe Illustrator 24.3.0, SVG Export Plug-In . SVG Version: 6.00 Build 0)  -->
<svg version="1.1" id="Calque_1" xmlns="http://www.w3.org/2000/svg" xmlns:xlink="http://www.w3.org/1999/xlink" x="0px" y="0px"
	 viewBox="0 0 512 128" style="enable-background:new 0 0 512 128;" xml:space="preserve">
<path d="M108.2,64.2c12.5-16.9-5.2-32.3-21.6-35.1c-20.3-3.5-38.1,12.7-40.2,32.4c-2.2,20.5,11.8,33.1,30.5,37.3
	c23.2,5.2,47.9-3.2,70.4-8.1C180.4,83.2,212,79.5,243,96c2.4,1.3,4.5-2.2,2.1-3.7c-22.3-13.6-45.2-16.6-70.9-14.1
	C148.6,80.8,123.7,88.9,98,91c-19.9,1.6-46.8-5.7-42.3-31c2.5-14.3,14.1-23.7,28.6-23.6c13.3,0.1,30.8,10.2,20.3,25.8
	C103.1,64.4,106.7,66.3,108.2,64.2z"/>
<path d="M403.5,64.4c-12.5-16.9,5.2-32.3,21.6-35.1c20.3-3.5,38.1,12.7,40.2,32.4c2.2,20.5-11.8,33.1-30.5,37.3
	c-23.2,5.2-47.9-3.2-70.4-8.1c-33.1-7.3-64.7-11.1-95.7,5.4c-2.4,1.3-4.5-2.2-2.1-3.7c22.3-13.6,45.2-16.6,70.9-14.1
	c25.7,2.6,50.5,10.6,76.2,12.7c19.9,1.6,46.8-5.7,42.3-31c-2.5-14.3-14.1-23.7-28.6-23.6c-13.3,0.1-30.8,10.2-20.3,25.8
	C408.6,64.6,405.1,66.5,403.5,64.4z"/>
</svg>
