<?xml version="1.0" encoding="utf-8"?>
<!-- Generator: Adobe Illustrator 24.3.0, SVG Export Plug-In . SVG Version: 6.00 Build 0)  -->
<svg version="1.1" id="Calque_1" xmlns="http://www.w3.org/2000/svg" xmlns:xlink="http://www.w3.org/1999/xlink" x="0px" y="0px"
	 viewBox="0 0 318.9 119.9" style="enable-background:new 0 0 318.9 119.9;" xml:space="preserve">
<style type="text/css">
	.st0{fill:#66A8D3;}
	.st1{fill:none;stroke:#000000;stroke-width:0.75;stroke-miterlimit:10;}
	.st2{fill:#0016FF;}
	.st3{fill:none;stroke:#000000;stroke-width:0.5;stroke-miterlimit:10;}
	.st4{fill:none;stroke:#000000;stroke-miterlimit:10;}
</style>
<g id="Calque_vectoriel">
	<path class="st0" d="M144.4,72.8c-0.3,0.1-0.6,0.1-0.9,0.1h-3.8c0,0-0.1,0-0.1,0c-0.1,0-0.1,0-0.2,0c-0.1,0-0.1,0-0.2-0.1h0.3
		c1.8-0.1,3.6-0.3,5.4-0.4h0.4c-0.1,0.1-0.2,0.1-0.3,0.2L144.4,72.8z"/>
	<path class="st0" d="M141.9,54.8l-0.1,0.1L141.9,54.8z"/>
	<path class="st1" d="M287,67.4c-0.2,0-0.3,0.1-0.5,0.1l-0.5,0.1l0,0c-0.5,0.1-1,0.2-1.5,0.3l-0.9,0.2l-0.4,0.1
		c-0.2,0.1-0.4,0.1-0.6,0.2l-1,0.3l-0.8,0.3c-0.2,0.1-0.5,0.2-0.8,0.3s-0.6,0.3-0.9,0.4l-0.9,0.4l-0.7,0.3c-0.6,0.3-1.1,0.6-1.7,0.9
		c-0.3,0.2-0.7,0.3-1,0.5l-0.7,0.3c-0.2,0.1-0.5,0.2-0.7,0.3l-1.1,0.5c-0.6,0.2-1.1,0.4-1.7,0.7l-0.6,0.2c-0.4,0.1-0.7,0.2-1.1,0.4
		s-0.6,0.2-0.9,0.3l-0.8,0.2c-0.6,0.2-1.1,0.3-1.7,0.5c-1.2,0.3-2.5,0.7-3.7,1s-2.6,0.6-4,0.9s-2.4,0.5-3.6,0.7l-1.6,0.3
		c-0.6,0.1-1.2,0.2-1.8,0.3l-1.5,0.2c-0.4,0-0.8,0.1-1.1,0.2c-0.6,0.1-1.3,0.2-1.9,0.3l-2.1,0.4c-0.7,0.2-1.4,0.3-2.1,0.5
		s-1.3,0.3-2,0.5l-1.7,0.5l-1.8,0.6c-1.2,0.4-2.4,0.8-3.5,1.2s-2.2,0.7-3.4,1.1s-2.5,0.9-3.7,1.3s-2.2,0.8-3.4,1.2l-4,1.4l-1.6,0.5
		c-0.6,0.2-1.2,0.4-1.8,0.6c-1.2,0.4-2.5,0.8-3.7,1.3s-2.4,0.8-3.6,1.2s-2.4,0.7-3.6,1.1l-3.6,1.2c-0.6,0.2-1.2,0.4-1.8,0.7
		c-0.3,0.1-0.6,0.2-0.9,0.3l-1,0.4c-1.1,0.5-2.1,1-3.2,1.4s-2.2,1-3.3,1.5c-0.6,0.3-1.2,0.6-1.8,0.9s-1.1,0.5-1.7,0.8
		s-1.1,0.5-1.7,0.7l-1.7,0.7l-1.6,0.7l-1.8,0.7l-1.7,0.7l-0.9,0.3l-0.8,0.3l-1.9,0.5L173,105l-1.6,0.6c-0.6,0.2-1.3,0.4-2,0.6
		l-1.9,0.6l-2,0.7c-1.2,0.4-2.4,0.8-3.6,1.2c-1.2,0.4-2.4,0.8-3.5,1.1l-1.6,0.5l-1.8,0.6l-1.7,0.5l-2,0.6c-1.1,0.3-2.3,0.7-3.4,1.1
		c-0.6,0.2-1.2,0.4-1.8,0.6l-1.8,0.5l-3.4,0.9c-1.2,0.3-2.4,0.6-3.6,0.9s-2.4,0.7-3.6,1h0.1c-0.6,0.2-1.3,0.4-2,0.6l-1,0.4
		c-0.3,0.1-0.6,0.2-1,0.4l0,0c-0.4,0.2-0.8,0.3-1.2,0.6s-0.8,0.3-1.1,0.5c-0.1,0.1-0.3,0.1-0.4,0.1h-0.8c-0.1,0-0.2,0-0.2-0.1
		c-0.1-0.1-0.2-0.1-0.3-0.2l-0.1-0.2c-0.1-0.1-0.1-0.2-0.2-0.4c-0.1-0.3-0.2-0.7-0.2-1.1c0-0.4,0-0.8,0.1-1.1c0-0.5,0.1-1,0.1-1.5
		v-2.3l-0.1-0.5c0-0.2,0-0.5-0.1-0.7c0-0.2-0.1-0.5-0.1-0.8s-0.1-0.8-0.1-1.2c0-0.2,0-0.5-0.1-0.7c-0.1-0.2-0.1-0.5-0.1-0.8l-0.2-1
		c0-0.1,0-0.2-0.1-0.3c-0.1-0.2-0.1-0.4-0.2-0.6c-0.2-0.6-0.4-1.2-0.6-1.8s-0.3-1.1-0.4-1.6l0,0c-0.1-0.2-0.1-0.4-0.2-0.6h0
		c-0.2-0.1-0.4-0.2-0.5-0.3s-0.5-0.2-0.7-0.2l-0.7-0.2l-1-0.2l-0.8-0.2l-1.9-0.3c-1.1-0.2-2.2-0.3-3.3-0.5l-2.2-0.4l-0.6-0.1
		l-1.3-0.2l-0.7-0.1c-0.3-0.1-0.5-0.1-0.8-0.2c-0.6-0.1-1.2-0.3-1.7-0.4l-2.2-0.5c-0.6-0.1-1.2-0.3-1.8-0.5l-1.7-0.5l-1.8-0.6
		c-1.1-0.4-2.2-0.7-3.2-1l-1.8-0.5c-0.6-0.2-1.2-0.3-1.8-0.5s-0.9-0.2-1.4-0.3l-1.6-0.3c-0.2,0-0.4-0.1-0.6-0.1l-0.9-0.2
		c-0.5-0.1-1-0.3-1.5-0.4c-0.9-0.3-1.8-0.5-2.8-0.8s-2.2-0.6-3.2-0.9c-2-0.6-4.1-1.1-6.2-1.6l-6-1.5c-0.5-0.1-1-0.2-1.5-0.3
		l-1.8-0.4c-1.1-0.2-2.2-0.5-3.2-0.7s-2.5-0.5-3.8-0.7l-3.3-0.7c-1.1-0.2-2.1-0.4-3.2-0.7l-1.5-0.3c-0.5-0.1-1.1-0.2-1.7-0.3
		c-1.1-0.2-2.2-0.3-3.3-0.5l-3.5-0.5c-0.5-0.1-1-0.1-1.5-0.1h-0.8l-0.6,0.1c-0.2,0-0.4,0-0.6,0l-0.2-0.1c-0.2,0-0.3-0.2-0.4-0.3
		c-0.1-0.2-0.1-0.4,0-0.6l0.3-1.1c0-0.1,0-0.3,0.1-0.4l0.1-0.2c0-0.2,0.1-0.5,0.1-0.7c0-0.2,0.1-0.6,0.1-0.9
		c0.1-0.5,0.1-0.9,0.2-1.4s0.1-1.1,0.1-1.6c0-0.1,0-0.2,0-0.3c0-0.1,0.1-0.3,0.1-0.4l0.2-0.5l0.3-0.8c0.1-0.2,0.2-0.3,0.3-0.3
		c0.1,0,0.2,0,0.3,0h0.7c0.4,0,0.8,0.1,1.2,0.1s0.5,0,0.7,0h2.3c0.5,0,1-0.1,1.6-0.1h0.8l1-0.1l0.9-0.1c0.2,0,0.5,0,0.7-0.1l0.9-0.1
		l0.9-0.1c0.6,0,1.1-0.1,1.6-0.1c0.6,0,1.1,0,1.7-0.1c0.5-0.1,1-0.1,1.6-0.1l1.7-0.1c0.6,0,1.2-0.1,1.8-0.2l0.8-0.1l0.8-0.1
		c0.6-0.1,1.3-0.1,1.9-0.1l0.9-0.1h2.5c1.3,0,2.6,0,3.9-0.1l3.9-0.1l3.7-0.1l3.9-0.1h3.7c1.2,0,2.5,0.2,3.8,0.3s2.3,0.1,3.4,0.2
		c1.3,0,2.6,0.1,3.9,0.2c0.5,0,1,0.1,1.6,0.1l1.1,0.1h5.5l5.5-0.1l5.6-0.1c1.1,0,2.2-0.1,3.3-0.1s2.1,0,3.2,0h1.6l1.6,0.1l1.8,0.1
		l0,0c1.4,0.3,2.8,0.5,4.3,0.4h4.4l2.2,0.2c1,0.1,2,0.2,3.1,0.2h3.3l0.3,0.1l0.3,0.1h0.1c0.1,0.1,0.2,0.1,0.3,0.2
		c0.2,0.2,0.4,0.4,0.5,0.6c0.2,0.2,0.4,0.5,0.5,0.8l1.3,1.8l0.3,0.4c0.1,0.2,0.3,0.3,0.4,0.5s0.4,0.5,0.6,0.7s0.5,0.6,0.7,0.8
		s0.5,0.7,0.8,1s0.5,0.6,0.8,0.9s0.5,0.6,0.8,0.8l0.8,0.9c0.3,0.3,0.6,0.6,0.9,0.9l1.5,1.4c0.5,0.5,1.1,1,1.7,1.4
		c0.6,0.4,1.3,0.9,2,1.3l0,0c0.6,0.3,1.1,0.5,1.7,0.8h0.1c0.2,0.1,0.4,0.2,0.6,0.3c0.8,0.4,1.6,0.7,2.4,1c0.8,0.3,1.7,0.6,2.6,0.7
		c0.4,0.1,0.9,0.2,1.4,0.2l1.3,0.1c0.9,0.1,1.9,0.1,2.8,0c0.7,0,1.3-0.2,2-0.3c0.4-0.1,0.8-0.2,1.1-0.4c0.3-0.1,0.7-0.3,1-0.5
		c0.2-0.1,0.3-0.2,0.5-0.3l0.1-0.1c0.2-0.1,0.5-0.2,0.7-0.3s0.5-0.2,0.8-0.3c0.7-0.3,1.4-0.8,2-1.3c0.6-0.5,1.2-1.1,1.7-1.8
		c0.2-0.2,0.4-0.5,0.6-0.8c0.5-0.6,0.9-1.2,1.3-1.9l0,0c0.4-0.5,0.8-1,1.2-1.5c0.4-0.5,0.8-1.1,1.2-1.7c0.4-0.6,0.8-1.3,1.1-2
		c0.1-0.3,0.1-0.7-0.1-1.1c0.3-0.4,0.6-0.8,0.8-1.3c0.1-0.1,0.1-0.3,0.2-0.4c0.6-0.4,1.1-0.8,1.7-1.2c0.4-0.3,0.8-0.6,1.1-1l1.1-0.8
		c0.5-0.4,0.9-0.8,1.3-1.2c0.1-0.1,0.3-0.2,0.4-0.4c0.1-0.1,0.2-0.2,0.3-0.3c0.4-0.1,0.9-0.1,1.3-0.2c0.2,0,0.4-0.1,0.6-0.1v0.1
		c0.2-0.1,0.4-0.2,0.5-0.2h0.1c0.5-0.1,1-0.1,1.5-0.3c1-0.3,2.1-0.6,3.1-1c0.3-0.1,0.6-0.2,0.9-0.3l1.3-0.5l0.5-0.1l1.5-0.2
		c0.9-0.1,1.9-0.2,2.8-0.3s1.9-0.3,2.8-0.4c2-0.3,4-0.6,6-0.8l2.8-0.3c1-0.1,1.9-0.2,2.9-0.2l6-0.4l5.8-0.4l2.9-0.2
		c1-0.1,2-0.1,2.9-0.2l2.7-0.3c1-0.1,2-0.2,3-0.3c1-0.1,2-0.2,3.1-0.3s1.9-0.2,2.9-0.3s1.9-0.3,2.8-0.4l2.8-0.3
		c1.2-0.2,2.4-0.4,3.5-0.6l0.7-0.2c0.4-0.1,0.8-0.2,1.2-0.4l1.6-0.5c0.1,0,0.2-0.1,0.4-0.1c0.3-0.1,0.6-0.1,0.9-0.2l1.9-0.4
		c0.3-0.1,0.7-0.1,1-0.2l1.8-0.2l2.2-0.3l1.6-0.3l1.4-0.2l1.4-0.2c0.2,0,0.4-0.1,0.6-0.1s0.6-0.1,0.9-0.1l1.3-0.1l1.6-0.2l1.2-0.1
		c0.5-0.1,1.1-0.1,1.6-0.2h1.4c0.2,0,0.3,0,0.5,0.1c0.1,0,0.2,0.1,0.3,0.1c0.1,0.1,0.2,0.2,0.3,0.4c0,0.2,0,0.4-0.1,0.6
		c-0.1,0.1-0.2,0.2-0.3,0.2h-0.1v0.1c0,0,0,0,0,0.1c0.1,0.1,0.1,0.2,0.2,0.4c0.1,0.2,0.1,0.3,0.2,0.5c0,0.1,0.1,0.3,0.1,0.4
		c0.1,0.4,0.2,0.8,0.2,1.3c0,0.2,0,0.4,0.1,0.7c0,0.2,0,0.5,0.1,0.8c0,0.5,0,1,0.1,1.5c0,0.8,0,1.5,0.1,2.3v0.2
		c0,0.1-0.1,0.1-0.1,0.2l-0.1,0.1C287.1,67.3,287,67.4,287,67.4z"/>
	<path class="st2" d="M225.6,66.2"/>
	<path class="st2" d="M225.6,66.2"/>
	<path class="st2" d="M202.8,68.9"/>
	<path class="st3" d="M317.4,61.3c-0.2,0-0.3,0.1-0.5,0.1l-0.3,0.1l-0.7,0.1c-0.5,0.1-0.9,0.1-1.4,0.2c-0.9,0.1-1.8,0.1-2.7,0.2
		c-1.8,0.1-3.7,0.1-5.5,0.3h-1.1l-0.7,0.1l0,0l0.5,0.1c0.6,0.2,1.2,0.4,1.7,0.7c0.3,0.2,0.6,0.4,0.9,0.7c0.2,0.1,0.3,0.3,0.5,0.5
		c0.1,0.1,0.1,0.2,0.2,0.3c0,0.2-0.1,0.4-0.3,0.4h-0.7l-0.8,0.1c-0.4,0-0.9,0.1-1.3,0.1s-0.9,0.1-1.4,0.1c-0.9,0-1.8,0.1-2.7,0.1
		h-0.3c-0.9,0.1-1.7,0.2-2.6,0.3l-2.7,0.3l-1.7,0.2c-0.5,0.1-1.1,0.1-1.7,0.2h-0.2l-1.1,0.1h0.1l-0.7,0.1l-0.6,0.1h-0.3
		c0,0-0.1,0-0.1,0c-0.1,0-0.3,0-0.4-0.1c-0.3-0.2-0.4-0.5-0.3-0.8c0.1-0.1,0.2-0.2,0.3-0.3l0.2-0.1l0,0l0.7-0.1
		c0.4-0.1,0.7-0.1,1.1-0.1l0,0l1.1,0.1h0.2c0.9-0.1,1.8-0.2,2.7-0.3s1.8-0.2,2.7-0.3l1.3-0.2c0.4,0,0.9-0.1,1.3-0.2s1-0.1,1.4-0.1
		l1.4-0.1h2.4c0.4,0,0.8,0,1.2,0.1c-0.2-0.1-0.5-0.2-0.7-0.3c-0.4-0.2-0.8-0.3-1.1-0.4l-0.9-0.2c-0.5-0.1-0.9-0.2-1.3-0.4
		c-0.3-0.1-0.4-0.4-0.4-0.7c0-0.2,0.1-0.4,0.3-0.5c0.3-0.2,0.6-0.3,0.9-0.3l0,0l0.3-0.1h-0.1l0.5-0.1c0.2,0,0.4,0,0.6-0.1l0,0
		l0.7-0.1h2.2l1.4-0.1l3-0.1l1.5-0.1c-0.4-0.1-0.9-0.2-1.3-0.2h0.1l-0.7-0.1l-0.6-0.1h-0.3L310,60h-0.5l-0.9-0.1l0,0l-0.8-0.1h0.1
		c-0.3,0-0.5-0.1-0.8-0.2c-0.2-0.1-0.4-0.3-0.4-0.6c0-0.1,0.1-0.2,0.2-0.3c0.1-0.1,0.2-0.1,0.3-0.1h0.3l1.5-0.1h0.3
		c0.1,0,0.2,0,0.3,0h0.2l0.8-0.1h4.7c-0.5-0.1-0.9-0.2-1.4-0.3l-1.2-0.6l-0.6-0.1l-0.4-0.1l0,0l-0.6-0.1l0,0l-0.6-0.1l0,0
		c-0.4,0-0.7-0.1-1.1-0.2l0,0c0,0-0.1,0-0.1,0l0,0l-0.6-0.1l0,0l-0.5-0.1c-0.1,0-0.3,0-0.4-0.1l0,0c-0.2,0-0.5-0.1-0.7-0.1h-0.2
		c-0.1,0-0.2,0-0.3,0c-0.1-0.1-0.2-0.2-0.2-0.3c0-0.1,0-0.3,0.1-0.4c0.1-0.1,0.2-0.2,0.3-0.2c0.2-0.1,0.4-0.1,0.6-0.2l0.5-0.1l0,0
		c0.8-0.2,1.7-0.3,2.5-0.5l1.5-0.2c0.4-0.1,0.9-0.2,1.3-0.2l0.6-0.1c0.2,0,0.3-0.1,0.5-0.1c0.4-0.1,0.8-0.2,1.2-0.2l1.2-0.2
		c0.4-0.1,0.8-0.1,1.1-0.2H318c-0.7-0.1-1.4-0.1-2.1-0.2h-3l-1.2,0.1h0.1c-0.2,0-0.5,0-0.7,0.1l-0.5,0.1l-1.4,0.2l-2.8,0.4
		c-1.9,0.3-3.8,0.6-5.7,0.9s-3.6,0.7-5.4,1c-0.9,0.2-1.8,0.3-2.8,0.5l-2.6,0.5l-0.7,0.1c-0.2,0.1-0.5,0.1-0.7,0.1
		c0,0-0.1,0.1-0.1,0.1c-0.1,0-0.2,0-0.2-0.1s0.2-0.3,0.4-0.4l0.6-0.3c0.4-0.2,0.9-0.3,1.3-0.5l1.4-0.4l0.5-0.1l0.8-0.2l1.3-0.3
		c0.2,0,0.4-0.1,0.6-0.1l0.8-0.2c0.5-0.1,0.9-0.2,1.4-0.3c0.9-0.2,1.8-0.4,2.7-0.5c1.7-0.3,3.5-0.6,5.2-0.9s3.7-0.6,5.6-0.8
		c0.6-0.1,1.2-0.1,1.8-0.2h1.3c0.5,0,0.9,0,1.4,0.1l0.4,0.1l0.4,0.1c0.1,0,0.2,0.1,0.4,0.1l0.4,0.1c0.4,0.1,0.8,0.3,1.2,0.6
		c0.1,0.1,0.3,0.2,0.4,0.3c0.1,0.1,0.1,0.1,0.1,0.2c0,0.1-0.1,0.1-0.2,0.2c-0.1,0.1-0.2,0.1-0.4,0.2c-0.5,0.2-1.1,0.4-1.6,0.6l0,0
		l-0.5,0.2l0,0c-0.2,0.1-0.4,0.1-0.6,0.2l-0.7,0.2l-0.8,0.2l-0.6,0.1l-0.6,0.1l-0.9,0.1l-1.2,0.2l-0.9,0.1h0.1
		c0.5,0.1,1.1,0.1,1.7,0.2l0.7,0.1l0.6,0.1l0.4,0.1h0l0.8,0.1l0.5,0.1c0.5,0.1,1,0.2,1.6,0.3s0.9,0.2,1.3,0.3l0.3,0.1l0.4,0.1
		c0.2,0.1,0.4,0.2,0.6,0.3c0.1,0.1,0.2,0.2,0.2,0.3c0,0.2-0.1,0.5-0.3,0.6c-0.1,0.1-0.3,0.1-0.4,0.1h-0.9l-1.3,0.1
		c-0.9,0-1.8,0.1-2.7,0.1h-2.6l1.4,0.2h0.7h0.3l0,0l0.3,0.1h0.2l1.1,0.2l0,0l0.9,0.1c0.2,0,0.4,0,0.6,0.1l0,0l0.4,0.1 M316.5,59.9
		c0.2,0,0.3,0.1,0.5,0.1l0.2,0.1c0.2,0,0.3,0.1,0.4,0.2c0.2,0.2,0.1,0.5-0.1,0.7c0,0-0.1,0-0.1,0.1c0,0.2,0,0.2,0,0.2L316.5,59.9z"
		/>
	<path class="st1" d="M34.5,83.8l-1-0.1l-1.3-0.1c-0.4,0-0.8,0-1.3-0.1c-0.4,0-1-0.1-1.4-0.2L27.8,83l-1.9-0.3l0,0l-1-0.2
		c-0.2,0-0.3,0-0.5-0.1l-0.5,0l-1-0.1c-0.4,0-0.7-0.1-1.1-0.1l-1.1-0.1h-1.5c-0.5,0-1,0-1.5,0.1c-0.3,0-0.6,0.1-1,0.1l-2.1,0.1
		c-0.8,0.1-1.5,0.2-2.3,0.2h-1.1c-0.1,0-0.2,0-0.4,0H9.4c-0.3,0-0.6-0.1-0.8-0.1C8.3,82.4,8,82.2,7.8,82c-0.1-0.3-0.1-0.6,0.1-0.8
		c0.2-0.2,0.3-0.4,0.6-0.5l0.6-0.3l0.4-0.2c0.1,0,0.1-0.1,0.2-0.1h0.1c0.2-0.1,0.5-0.2,0.7-0.2c0.8-0.3,1.5-0.5,2.3-0.8H6.5l-1-0.1
		c-0.3,0-0.7,0-1-0.1c-0.6-0.1-1.3-0.2-1.9-0.4c-0.3-0.1-0.6-0.2-0.8-0.4c-0.2-0.2-0.3-0.5-0.2-0.8c0.1-0.3,0.3-0.5,0.5-0.7
		c0.1-0.1,0.3-0.1,0.4-0.2c0.2-0.1,0.3-0.1,0.5-0.2c0.2-0.1,0.4-0.1,0.6-0.2L4.3,76c0.2,0,0.5-0.1,0.7-0.1h0.3c0.1,0,0.2,0,0.3,0
		c0.3,0,0.5-0.1,0.8-0.1l1.4-0.1h0.9L7,75.5c-0.5,0-1-0.1-1.5-0.2L4,75.2c-1-0.1-2-0.4-3-0.7c-0.2-0.1-0.5-0.2-0.7-0.4
		C0.2,73.9,0,73.7,0,73.5c0-0.2,0.1-0.4,0.3-0.5c0.2-0.1,0.4-0.2,0.6-0.2c1.1-0.3,2.2-0.4,3.3-0.3l2.7,0.1c0.5,0,0.9,0,1.4,0.1h0.6
		c0.3,0,0.5,0,0.8,0.1l1.4,0.1c0.2,0,0.4,0.1,0.7,0.1c0.3,0,0.5,0,0.8,0.1h0.3l-0.5-0.1l0,0L11,72.4l-1.3-0.2L8.9,72l-0.6-0.2
		l-0.6-0.2c-0.2-0.1-0.5-0.2-0.8-0.3C6.5,71.2,6,71,5.5,70.8c-0.3-0.2-0.7-0.4-1-0.6c-0.1-0.1-0.2-0.2-0.3-0.3
		c-0.1-0.1-0.1-0.2-0.1-0.2c0-0.1,0.1-0.2,0.2-0.2c0.2,0,0.3,0,0.5,0l0.5,0.1c0.3,0,0.6,0.1,0.9,0.1l0,0l0.7,0.1l0,0
		c0.3,0,0.6,0.1,0.9,0.1l0,0l2.2,0.3c0.4,0,0.8,0.1,1.2,0.1l0.6,0.1c0.2,0,0.4,0,0.5,0.1l0,0l1.1,0.2l0,0c0.4,0.1,0.8,0.2,1.1,0.2
		l1.1,0.2l1.3,0.3c0.3,0.1,0.6,0.2,1,0.2l-0.4-0.2c-0.3-0.2-0.5-0.4-0.8-0.6l0,0c-0.8-0.5-1.5-0.9-2.3-1.3l-1.2-0.7
		c-0.4-0.2-0.8-0.4-1.2-0.7L11.8,68l0,0c-0.2-0.2-0.5-0.3-0.7-0.5c-0.2-0.1-0.4-0.3-0.6-0.5c-0.2-0.2-0.3-0.4-0.4-0.6
		c0-0.1,0-0.2,0-0.2V66l0.1-0.1c0.1-0.1,0.3-0.2,0.4-0.3c0.3-0.1,0.7-0.2,1-0.3c0.5,0,0.9,0,1.4,0.1l0.7,0.1l0.6,0.1
		c0.3,0.1,0.5,0.1,0.8,0.2l0,0c0.9,0.2,1.7,0.5,2.6,0.8s1.8,0.6,2.6,0.9l2.6,0.9c0.9,0.3,1.8,0.6,2.7,0.9l1,0.3
		c0.4,0.1,0.8,0.3,1.2,0.4s0.9,0.3,1.4,0.4l0,0c0.4,0.1,0.8,0.2,1.1,0.3h0.1l0.8,0.3c0.2,0.1,0.4,0.1,0.6,0.2
		c0.5,0.2,1.1,0.4,1.6,0.6c0.2,0,0.3,0.1,0.5,0.1c0.1,0,0.3,0.1,0.4,0.1c0.3,0.1,0.6,0.1,0.9,0.2l0,0c0.7,0.1,1.3,0.2,2,0.3l0.5,0.1
		l0.8,0.2c0.1,0,0.4,0.1,0.3,0.3s-0.1,0.1-0.2,0.1s-0.1-0.1-0.1-0.2h-0.1c-0.1,0-0.3-0.1-0.4-0.1c-0.2,0-0.4,0-0.6,0h-0.7L35.3,73
		c-0.5,0-0.9-0.1-1.4-0.2c-0.2,0-0.5-0.1-0.7-0.2l-0.2-0.1l-0.5-0.1h-0.2c-0.2-0.1-0.4-0.1-0.6-0.2l0,0l-0.5-0.2l0,0l-1.2-0.4
		l-0.6-0.2l-0.5-0.2l-0.8-0.2L27.5,71l0,0l-1.5-0.5l0,0c-0.5-0.1-0.9-0.3-1.4-0.4l-1.3-0.4l-2.6-0.8l0,0L18.1,68
		c-0.8-0.2-1.5-0.5-2.3-0.8l0,0l-1-0.3l-1-0.3c-0.3-0.1-0.8-0.2-1.3-0.2c0,0,0,0,0.1,0c-0.3,0-0.6-0.1-0.9-0.1c-0.3,0-0.6,0-0.9,0
		h-0.2l0.1,0.1l0,0c0.1,0.1,0.2,0.2,0.3,0.3l0,0c0.2,0.2,0.4,0.3,0.6,0.4c0.4,0.2,0.7,0.4,1.1,0.7l1.2,0.7c0.8,0.4,1.6,0.9,2.4,1.4
		c0.8,0.5,1.5,1,2.1,1.6l0.2,0.2c0.1,0.1,0.2,0.2,0.2,0.3c0,0.1,0,0.1,0,0.2c0,0.1-0.1,0.1-0.1,0.2c-0.1,0-0.1,0.1-0.2,0.1
		c-0.1,0-0.3,0-0.4-0.1c-0.5-0.1-1-0.2-1.6-0.3c-1.1-0.2-2.1-0.4-3.2-0.7l0,0c0,0-0.1,0-0.1,0l0,0l-1-0.2h-0.1
		c-0.4-0.1-0.8-0.1-1.1-0.2s-0.8-0.1-1.2-0.1s-0.8-0.1-1.1-0.2l-0.5-0.1c-0.2-0.1-0.4-0.1-0.5-0.2H7.7L7,70.3c0,0,0,0-0.1,0l0,0
		l-0.7-0.1H5.8c0,0,0,0-0.1,0l-0.4-0.1c0.2,0.2,0.5,0.3,0.8,0.4c0.4,0.2,0.8,0.3,1.1,0.5c0.3,0.1,0.5,0.2,0.8,0.3
		c0.3,0.1,0.8,0.2,1.2,0.3l1.4,0.3c0.4,0.1,0.9,0.2,1.3,0.3s0.9,0.2,1.4,0.4l0,0l0.4,0.1l0.3,0.1l0.1,0.1c0.1,0,0.2,0.1,0.2,0.1
		c0.1,0.1,0.1,0.3,0.1,0.4c-0.1,0.1-0.1,0.1-0.2,0.2c-0.1,0-0.2,0-0.3,0c-0.3,0-0.6,0-0.9,0c-0.2,0-0.3,0-0.5,0
		c-0.4,0-0.9-0.1-1.3-0.1L10,73.4c-0.4,0-0.7,0-1.1-0.1c-0.4,0-0.9,0-1.3,0H3.5c-0.1,0-0.3,0-0.4,0l0,0l-0.6,0.1
		c-0.1,0-0.3,0-0.4,0.1c-0.2,0.1-0.5,0.1-0.7,0.2L1,73.8H0.9l0.3,0.1c0.2,0.1,0.4,0.2,0.7,0.2l0,0c0.5,0.2,1.1,0.3,1.6,0.4
		c0.6,0.1,1.2,0.2,1.8,0.2l0.6,0.1c0.2,0,0.4,0,0.6,0l2.9,0.2c1.8,0.1,3.6,0.3,5.4,0.4l0.5,0.1c0.2,0,0.4,0.2,0.4,0.4
		c0,0.2-0.1,0.4-0.3,0.5c-0.2,0.1-0.3,0.1-0.5,0.1h-0.3l-0.6,0c-0.4,0-0.8,0.1-1.2,0.1h-1.2l-1.2,0.1l-1.2,0.1c-0.4,0-0.8,0-1.2,0.1
		l-1.2,0.1l0,0L5.9,77l-0.7,0.1l-0.6,0.1c-0.5,0.1-0.9,0.2-1.3,0.4H3.2c0.3,0.1,0.6,0.1,0.8,0.2H3.9L4.8,78l0.6,0.1l0,0l1.5,0.1h2.9
		c0.9,0,1.8-0.1,2.7-0.1s2,0,2.9,0h0.4c0.2,0,0.3,0,0.5,0.1c0.1,0,0.2,0.1,0.2,0.1c0.1,0,0.2,0.1,0.3,0.2c0.2,0.3,0.1,0.7-0.1,0.9
		c0,0,0,0,0,0l-0.1,0.1c-0.2,0.1-0.4,0.2-0.6,0.2l-0.3,0.1l-0.6,0.2l-0.9,0.3l-2,0.7c-0.3,0.1-0.6,0.2-0.9,0.3l-0.5,0.2l-0.5,0.2
		l-0.3,0.1l0,0c0.4,0,0.8,0,1.2-0.1h1.1c0.9-0.1,1.8-0.2,2.6-0.3s1.9-0.2,2.8-0.3h2.8c0.5,0,1,0,1.5,0.1h0.5l0.6,0.1
		c0.7,0.1,1.3,0.2,2,0.3l0,0l1,0.2l0,0l1,0.2c0.3,0.1,0.6,0.1,0.9,0.2l1.8,0.3c0,0-0.1,0-0.1,0c0.5,0.1,1,0.1,1.4,0.2
		s0.8,0.1,1.3,0.1l1.3,0.1l1,0.1l0,0c0.3,0,0.6,0.3,0.5,0.7l0,0c0,0.2-0.1,0.3-0.2,0.4c0,0-0.1,0.1-0.2,0.1
		C34.8,83.9,34.7,83.8,34.5,83.8z"/>
	<path class="st4" d="M171.2,77.4c-0.2,0.1-0.4,0.2-0.6,0.3s-0.4,0.2-0.7,0.3l0,0c-0.2,0.1-0.4,0.2-0.7,0.3s-0.4,0.1-0.7,0.2
		c-0.2,0-0.4,0.1-0.6,0.1l-0.6,0.1h-0.4c-0.2,0-0.4,0-0.6,0c-0.2,0-0.4,0-0.6-0.1c-0.2,0-0.4-0.1-0.6-0.2c-0.2-0.1-0.4-0.1-0.5-0.3
		l-0.1-0.1c-0.1-0.1-0.2-0.1-0.3-0.2c-0.1-0.1-0.2-0.1-0.3-0.2c-0.2-0.2-0.3-0.4-0.5-0.6c-0.1-0.2-0.3-0.4-0.4-0.5
		c-0.1-0.2-0.2-0.4-0.4-0.6l0,0c-0.2-0.3-0.4-0.5-0.6-0.8s-0.4-0.7-0.6-1l-0.6-0.9c-0.2-0.3-0.4-0.5-0.6-0.7l0,0
		c-0.2-0.2-0.4-0.5-0.6-0.7c-0.2-0.2-0.4-0.4-0.6-0.7l0,0l-0.1-0.1l0,0c-0.2-0.2-0.4-0.3-0.6-0.5c-0.1-0.1-0.3-0.2-0.4-0.3
		c-0.2-0.1-0.4-0.2-0.6-0.3c-0.1-0.1-0.2-0.1-0.3-0.1l-0.3-0.1c-0.1,0-0.2-0.1-0.3-0.1c-0.1,0-0.2-0.1-0.3-0.2
		c-0.1-0.2-0.1-0.4,0-0.6c0.2-0.2,0.4-0.4,0.7-0.3l0,0c0-0.1,0-0.1,0.1-0.1h1.4l0.5,0.1l0.4,0.1c0.2,0,0.3,0,0.5,0.1l0.8,0.3
		c0.3,0.1,0.6,0.1,0.8,0.1l0.8,0.1c0.5,0.1,1.1,0.1,1.6,0.1s1.1,0,1.7,0c0.8,0,1.6-0.1,2.4-0.1h1.3c0.4,0,0.9-0.1,1.3-0.1l0.7-0.1
		c0,0-0.1,0-0.1,0c1.6-0.3,3.3-0.6,4.9-1c0.2,0,0.4-0.1,0.6-0.2l1-0.3l1-0.3l0.5-0.2c0.1,0,0.2-0.1,0.3-0.1c0.3,0,0.5,0.1,0.6,0.4
		c0,0.2,0,0.4-0.1,0.5c-0.1,0.1-0.1,0.1-0.2,0.2c-0.2,0.1-0.3,0.3-0.5,0.4l-0.5,0.4l0,0c-0.1,0.1-0.2,0.2-0.3,0.3l0.1-0.1
		c-0.5,0.4-0.9,0.8-1.4,1.3l-0.6,0.6c-0.2,0.2-0.4,0.4-0.6,0.6c-0.3,0.4-0.6,0.7-0.9,1.1s-0.6,0.8-0.8,1.1s-0.5,0.7-0.7,1.1
		c-0.2,0.4-0.5,0.7-0.8,1.1c-0.3,0.3-0.6,0.6-1,0.9c-0.1,0.1-0.2,0.1-0.3,0.2C171.4,77.3,171.3,77.3,171.2,77.4z"/>
	<path class="st4" d="M203.5,49.2c0,0.5,0.1,1,0.1,1.5s0,1.1,0,1.6s-0.1,1-0.1,1.5s-0.1,1-0.1,1.5s-0.2,1-0.3,1.5s-0.3,1-0.4,1.4
		s-0.3,1-0.5,1.5s-0.4,0.9-0.6,1.4c-0.4,0.9-0.9,1.8-1.4,2.7c-0.2,0.5-0.6,0.9-0.8,1.3c-0.3,0.4-0.5,0.8-0.9,1.2
		c-0.1,0.1-0.2,0.2-0.3,0.3c-0.1,0.1-0.2,0.2-0.3,0.2c-0.2,0.2-0.4,0.3-0.6,0.5c-0.4,0.3-0.8,0.6-1.2,0.8s-0.8,0.6-1.2,0.8
		c-0.4,0.3-0.9,0.5-1.4,0.7c-0.5,0.2-1,0.3-1.5,0.4l-0.8,0.2c-0.3,0.1-0.5,0.1-0.8,0.2l-0.8,0.2c-0.3,0.1-0.5,0.1-0.8,0.2
		c-0.1,0-0.3,0-0.4,0.1c-0.1,0-0.3,0-0.4,0l-0.1,0.1l0,0c-0.2,0.1-0.4,0.2-0.6,0.3c-0.2,0.1-0.4,0.2-0.6,0.2h-0.1l-0.2,0.1
		c-0.1,0-0.3,0.1-0.4,0.1c-0.1,0-0.2,0-0.3-0.1c-0.1-0.1-0.2-0.2-0.3-0.3c0-0.1-0.1-0.3-0.1-0.4c0-0.3,0.1-0.7,0.1-1
		c0.3-1.2,0.8-2.5,1.3-3.6c0.1-0.4,0.2-0.7,0.3-1.1c0.1-0.4,0.2-0.8,0.3-1.2c0.1-0.4,0.2-0.8,0.3-1.2s0.2-0.8,0.3-1.3l0.1-0.4
		c0-0.1,0-0.3,0-0.4v-1.4c0-0.5-0.1-1-0.1-1.4s-0.1-1-0.1-1.5s-0.1-1-0.1-1.5c0-1.1,0.1-2.1,0.1-3.2v-4.8c0-0.6,0-1.1-0.1-1.7
		c-0.1-0.8-0.2-1.6-0.3-2.4c-0.1-0.4-0.1-0.8-0.2-1.2s-0.1-0.8-0.2-1.2s-0.1-0.8-0.2-1.1s-0.1-0.8-0.2-1.2s-0.1-0.8-0.2-1.2
		s-0.1-0.8-0.2-1.2v-0.1h-0.1c-1,0.1-1.9,0.3-2.8,0.5c-0.7,0.2-1.4,0.3-2.1,0.6c-0.9,0.3-1.9,0.6-2.9,0.8c-0.5,0.1-0.9,0.1-1.4,0
		c-0.4,0-0.8-0.2-1.1-0.4c-0.4-0.2-0.7-0.4-0.9-0.7c-0.3-0.3-0.5-0.7-0.6-1.1c-0.1-0.4-0.2-0.8-0.3-1.2c-0.1,0.3-0.2,0.5-0.3,0.8
		c-0.1,0.4-0.4,0.6-0.8,0.6c-0.2,0-0.4-0.1-0.6-0.2c-0.1-0.2-0.2-0.4-0.3-0.6c-0.1-0.5-0.2-0.9-0.3-1.4c-0.1-0.2-0.1-0.5-0.2-0.7
		c-0.1-0.2-0.1-0.4-0.2-0.6l-0.4,0.5c-0.2,0.3-0.4,0.7-0.6,1c-0.1,0.2-0.2,0.4-0.4,0.5c-0.2,0.3-0.4,0.5-0.7,0.7
		c-0.1,0.1-0.3,0.1-0.4,0.2c-0.1,0-0.3,0-0.4,0c-0.2,0-0.5-0.2-0.6-0.4c-0.1-0.2-0.3-0.4-0.4-0.6c-0.1-0.2-0.2-0.4-0.4-0.6l0,0
		c-0.3,0.2-0.6,0.5-1,0.8s-0.5,0.5-0.8,0.7c-0.2,0.2-0.3,0.3-0.6,0.4c-0.2,0.1-0.4,0.1-0.5,0c-0.1,0-0.2-0.1-0.2-0.2
		c-0.1-0.1-0.1-0.2-0.2-0.3c-0.1-0.2-0.1-0.4-0.1-0.5c-0.1-0.4-0.1-0.8-0.1-1.1l-0.1-0.9c-1,1.2-1.8,2.5-2.7,3.8l-0.3,0.4
		c-0.1,0.1-0.1,0.2-0.2,0.3c-0.1,0.1-0.2,0.2-0.3,0.3c-0.2,0.1-0.4,0-0.5-0.1c-0.1-0.1-0.2-0.2-0.2-0.4c0-0.1,0-0.2,0-0.4
		c0-0.2,0-0.4,0.1-0.6l0.1-0.8l0,0c-0.4,0.3-0.8,0.6-1.1,0.9l0,0l-0.9,1c-0.2,0.2-0.3,0.3-0.5,0.5c-0.1,0.1-0.2,0.2-0.4,0.3
		c-0.1,0-0.2,0-0.3,0c-0.2-0.1-0.3-0.2-0.4-0.5c0-0.2,0-0.4,0.1-0.5c0.1-0.2,0.1-0.5,0.2-0.7s0.2-0.7,0.3-1l-0.5,0.3
		c-0.6,0.3-1.2,0.6-1.7,1c-0.2,0.1-0.4,0.3-0.6,0.5c-0.1,0.1-0.1,0.1-0.2,0.2c-0.2,0.1-0.5,0.1-0.6,0c-0.2-0.2-0.3-0.4-0.2-0.7
		c0.1-0.1,0.1-0.3,0.2-0.4s0.1-0.2,0.2-0.4c0.1-0.3,0.3-0.6,0.4-0.9c0.3-0.5,0.6-1,0.9-1.5s0.7-1.1,1-1.6s0.7-1,1-1.5l0,0
		c-0.3,0.2-0.6,0.4-0.9,0.5l-1.4,0.9l-1.1,0.8l-1,0.9c-0.6,0.5-1.2,1.1-1.7,1.7s-1.1,1.2-1.7,1.8l-0.8,0.9c-0.1,0.1-0.2,0.3-0.3,0.4
		l-0.4,0.5l0,0l0,0l-0.1,0.1l0,0c0,0-0.1,0.1-0.1,0.2v0.1l0,0l-0.1,0.1l0,0c-0.2,0.3-0.4,0.7-0.6,1s-0.4,0.7-0.6,1.1l-0.3,0.7
		l-0.3,0.7c-0.2,0.5-0.4,1-0.6,1.4c-0.2,0.5-0.4,1.1-0.5,1.7c-0.1,0.6-0.3,1.2-0.4,1.9l-0.1,0.7l-0.1,0.8c0,0.2-0.1,0.5-0.1,0.8
		c0,0.1,0,0.2,0,0.4v1.4l0.1,1.1c0,0.5,0.1,1,0.2,1.5c0.1,0.5,0.1,1,0.2,1.5c0.2,1,0.3,1.9,0.5,2.8c0,0.3,0.1,0.5,0.2,0.8
		s0.1,0.5,0.2,0.7c0.1,0.5,0.3,1,0.4,1.6s0.3,1.1,0.5,1.6s0.3,1.1,0.5,1.6c0.1,0.2,0.2,0.4,0.3,0.6c0.1,0.2,0.2,0.5,0.3,0.7
		c0.4,0.8,0.8,1.5,1.2,2.3c0.1,0.2,0.1,0.3,0.2,0.5c0.1,0.2,0.1,0.4,0.2,0.7c0.1,0.3,0.1,0.5,0.1,0.8c0,0.3,0,0.6-0.1,0.8
		c-0.1,0.4-0.2,0.7-0.4,1.1c-0.1,0.3-0.4,0.5-0.7,0.6c-0.2,0-0.4,0-0.6,0.1h-0.3c-0.3,0-0.7,0-1,0c-0.4,0-0.8-0.1-1.2-0.1
		c-0.4-0.1-0.9-0.1-1.3-0.1h-0.6c-0.7,0.1-1.4,0.1-2.1,0.1c-0.3-0.1-0.6-0.1-0.8-0.3c-0.2-0.1-0.4-0.2-0.6-0.3s-0.5-0.2-0.7-0.4
		c-0.3-0.2-0.7-0.3-1-0.4l-0.4-0.1l-0.4-0.1h-0.4c-0.2,0-0.5,0.1-0.7,0.1c-0.2,0-0.4,0-0.6,0c-0.4,0-0.9-0.2-1.3-0.4
		c-0.3-0.2-0.6-0.5-0.9-0.8c-0.2-0.2-0.3-0.5-0.5-0.8l-0.1-0.1h-0.4c-0.3,0.1-0.6,0.2-0.9,0.3h-0.7c-0.2,0-0.4-0.1-0.6-0.3
		c-0.2-0.1-0.4-0.3-0.5-0.5c-0.2-0.2-0.3-0.5-0.4-0.8c-0.1-0.3-0.2-0.7-0.4-1l-0.1-0.1l-0.1-0.1H128l-0.2,0.1
		c-0.2,0.1-0.4,0.2-0.6,0.4l-0.4,0.3c-0.1,0.1-0.2,0.2-0.3,0.3s-0.3,0.3-0.4,0.5c-0.2,0.3-0.5,0.5-0.9,0.7c-0.3,0.1-0.7,0.1-1,0
		c-0.1,0-0.2-0.1-0.3-0.2c-0.1-0.1-0.2-0.2-0.3-0.3c-0.1-0.1-0.2-0.3-0.2-0.4c-0.1-0.1-0.1-0.3-0.1-0.4c-0.1-0.5-0.2-1-0.4-1.5
		c0-0.1-0.1-0.2-0.2-0.3c0-0.1-0.1-0.1-0.1-0.1c0,0-0.1-0.1-0.1-0.1l-0.1-0.1l-0.1-0.1c0,0-0.1,0-0.1-0.1H122c-0.1,0-0.1,0-0.2,0
		h-0.4c-0.2,0-0.4,0-0.6,0.1c-0.3,0.1-0.6,0.2-0.9,0.2l-0.5,0.1l-0.3,0.1c-0.2,0.1-0.4,0.1-0.7,0.1H118c-0.2,0-0.3-0.1-0.4-0.2
		c-0.1-0.1-0.2-0.1-0.3-0.2c0,0-0.1-0.1-0.1-0.1c-0.1-0.1-0.1-0.2-0.2-0.3c-0.1-0.1-0.1-0.3-0.2-0.4c-0.1-0.2-0.1-0.5-0.2-0.7
		s-0.1-0.4-0.1-0.6s-0.1-0.2-0.1-0.4c0-0.1,0-0.1-0.1-0.2l-0.1-0.1l-0.1-0.1l-0.1-0.1l0,0l-0.1-0.1h-0.7l-0.4,0.1
		c-0.2,0-0.4,0.1-0.6,0.2l-0.7,0.3c-0.5,0.2-0.9,0.4-1.3,0.6c-0.5,0.2-1.1,0.2-1.6,0c-0.2-0.1-0.4-0.2-0.6-0.4
		c-0.2-0.3-0.4-0.5-0.5-0.9c-0.2-0.5-0.1-1.1,0.1-1.5c0.1-0.3,0.3-0.5,0.5-0.7c0.1-0.1,0.3-0.3,0.4-0.4c0.2-0.1,0.3-0.2,0.5-0.3
		c0.7-0.4,1.5-0.7,2.2-1l0.5-0.3l0.2-0.2l0.1-0.1c0,0,0,0,0.1-0.1c0,0,0-0.1,0-0.1l0,0v-0.1c0,0,0,0,0-0.1v-0.1l0,0v-0.1h-0.1
		l-0.1-0.1l-0.3-0.1c-0.2-0.1-0.3-0.1-0.5-0.1c-0.4-0.1-0.8-0.1-1.1-0.2s-0.9-0.1-1.3-0.2c-0.8-0.1-1.6-0.4-2.3-0.9
		c-0.3-0.2-0.6-0.5-0.9-0.8c-0.1-0.1-0.1-0.2-0.2-0.3c0-0.2,0-0.3,0-0.5c0.1-0.2,0.2-0.5,0.4-0.6c0.2-0.2,0.3-0.4,0.5-0.6
		c0.3-0.2,0.5-0.5,0.8-0.7c0.3-0.2,0.5-0.3,0.8-0.4c0.3-0.1,0.7-0.3,1-0.4s0.7-0.3,1.1-0.5l0.4-0.2l0,0c-0.1-0.1-0.1-0.1-0.2-0.2
		c-0.2-0.1-0.4-0.3-0.6-0.4l-0.4-0.2c-0.1-0.1-0.2-0.1-0.4-0.2c-0.2-0.1-0.3-0.1-0.5-0.2c-0.1-0.1-0.3-0.1-0.4-0.2l-0.4-0.1
		c-0.2-0.1-0.4-0.1-0.6-0.2c-0.1-0.1-0.3-0.2-0.4-0.3c-0.1,0-0.1-0.1-0.2-0.2s-0.1-0.1-0.1-0.1c-0.1-0.1-0.1-0.2-0.1-0.3
		c0-0.1,0-0.2,0-0.2v-1c0-0.1,0-0.3,0.1-0.4c0-0.2,0.1-0.3,0.1-0.5c0.1-0.3,0.3-0.6,0.5-0.8c0.3-0.2,0.6-0.3,1-0.4
		c0.4-0.1,0.8-0.1,1.3-0.1h1.1c0.7,0,1.4-0.1,2-0.1l0,0c0.5-0.1,1.1-0.1,1.6-0.2l1.8-0.2l0.7-0.1h2.1c0.3,0,0.7,0.1,1,0.2
		c0.9,0.2,1.7,0.5,2.6,0.7c0.2,0,0.5,0.1,0.7,0.1h0.9c0-0.1,0-0.1,0-0.2v-0.3c0,0,0-0.1,0-0.1v-0.1l-0.1-0.2c0-0.1-0.1-0.1-0.1-0.2
		l-0.2-0.2l-0.3-0.2c-0.1-0.1-0.1-0.1-0.2-0.1l-0.2-0.1l-0.2-0.1l-0.2-0.1h-0.5l-0.4,0.1l-0.5,0.1c-0.2,0-0.4,0.1-0.7,0.1
		c-0.2,0-0.3,0-0.5-0.1c-0.1-0.1-0.2-0.1-0.2-0.2c-0.1-0.1-0.1-0.1-0.2-0.2c-0.1-0.2-0.1-0.5-0.1-0.8v-0.6h-0.1
		c-0.4,0.2-0.7,0.5-1.1,0.8c-0.2,0.1-0.4,0.2-0.6,0.3c-0.3,0.1-0.5,0.2-0.8,0.2c-0.5,0-1.1,0-1.5-0.2c-0.2-0.1-0.4-0.2-0.6-0.3
		l-0.3-0.2c-0.2-0.1-0.4-0.2-0.6-0.4c-0.4-0.2-0.8-0.5-1.1-0.8l-0.3-0.2l-0.3-0.3c-0.2-0.1-0.4-0.3-0.5-0.5s-0.3-0.3-0.4-0.4
		c-0.2-0.2-0.4-0.5-0.6-0.7c-0.1-0.2-0.3-0.4-0.4-0.6c-0.1-0.2-0.2-0.5-0.3-0.7c-0.1-0.2-0.1-0.4-0.1-0.6c0-0.2,0-0.5,0.1-0.7
		c0.1-0.2,0.2-0.4,0.3-0.6c0.1-0.2,0.3-0.4,0.5-0.5c0.2-0.2,0.5-0.4,0.7-0.5c0.3-0.2,0.6-0.3,0.9-0.5l0,0c0,0,0.1-0.1,0.1-0.1
		c0,0,0-0.1,0.1-0.1s0,0,0,0l0,0v-0.1l0,0v-0.2l-0.1-0.2c0,0-0.1-0.1-0.1-0.2l0,0l-0.2-0.2l-0.4-0.3l-0.4-0.2
		c-0.4-0.2-0.8-0.3-1.2-0.5c-0.4-0.1-0.6-0.2-0.9-0.3l-0.8-0.2l-0.5-0.2l-0.5-1c-0.6-0.3-1.2-0.6-1.6-1.1c-0.4-0.4-0.6-1-0.5-1.6
		c0.2-0.7,0.6-1.3,1.1-1.8c0.3-0.3,0.6-0.5,1-0.8c0.3-0.2,0.6-0.4,0.9-0.7c0.1-0.1,0.2-0.2,0.3-0.3l0.1-0.1l0.1-0.1l0,0
		c0-0.1,0.1-0.1,0.1-0.2s0-0.1,0-0.1c0,0,0-0.1,0-0.1v-0.2c0-0.1,0-0.1,0-0.2l-0.1-0.1l-0.1-0.1c-0.1-0.1-0.2-0.2-0.3-0.3l-0.3-0.2
		c-0.1-0.1-0.2-0.2-0.4-0.3c-0.2-0.2-0.5-0.3-0.8-0.4l-0.7-0.4c-0.2-0.1-0.4-0.2-0.6-0.4c-0.4-0.3-0.7-0.6-1-0.9
		c-0.2-0.2-0.3-0.4-0.4-0.6c-0.1-0.2-0.2-0.5-0.3-0.7c-0.2-0.5-0.2-1.1,0-1.7c0.2-0.6,0.5-1.1,0.9-1.6c0.2-0.2,0.3-0.4,0.4-0.6
		s0.4-0.4,0.5-0.5c0.3-0.3,0.7-0.6,1.1-0.9c0.4-0.3,0.7-0.5,1.1-0.7c0.4-0.2,0.8-0.4,1.2-0.5c0.2,0,0.3-0.1,0.5-0.1
		c0.2,0,0.5,0,0.7-0.1c0.4,0,0.8,0,1.2,0c0.3,0,0.7,0.1,1,0.2c0.3,0.1,0.7,0.2,1,0.3l0.4,0.1h0.4l0.2-0.1c0.1-0.1,0.3-0.2,0.4-0.3
		c0.1-0.1,0.3-0.2,0.4-0.3c0.3-0.2,0.7-0.4,1.1-0.6c0.4-0.2,0.8-0.3,1.2-0.3c0.4,0,0.8,0.1,1.2,0.2c0.8,0.3,1.4,0.7,2,1.3
		c0.3,0.3,0.5,0.6,0.7,1c0.2,0.4,0.4,0.8,0.6,1.2l0.1,0.2v0.1c0.4-0.3,0.8-0.6,1.2-0.8c0.2-0.1,0.4-0.1,0.6-0.1h0.6
		c0.1,0,0.3,0.1,0.4,0.1c0.2,0.1,0.4,0.1,0.6,0.2c0.2,0.1,0.5,0.2,0.7,0.4c0.2,0.1,0.4,0.3,0.6,0.4c0.4,0.3,0.8,0.6,1.1,0.8
		c0.1,0.1,0.2,0.1,0.3,0.2c0.2,0.1,0.4,0.2,0.5,0.2l0.4,0.1c0.1,0,0.2,0,0.4,0h0.2l0.4-0.1l0.3-0.1l0.1-0.1h0.1l0.2-0.2l0.3-0.3
		l0.4-0.4c0.2-0.3,0.4-0.7,0.6-1.1c0.1-0.2,0.2-0.4,0.3-0.6c0.1-0.3,0.3-0.6,0.4-0.8c0.2-0.3,0.5-0.5,0.8-0.8
		c0.4-0.3,0.9-0.6,1.5-0.8l0.4-0.1l0.4-0.1c0.2,0,0.5,0,0.7,0c0.3,0,0.5,0.1,0.8,0.1l0.7,0.2l0.7,0.2l0,0l0.2,0.1
		c0.2,0.1,0.5,0.1,0.7,0.2l0.4,0.1h0.3c0.2,0,0.3,0,0.5-0.1l0.5-0.1c0.2,0,0.4-0.1,0.6-0.2c0.2-0.1,0.4-0.1,0.6-0.2l0,0l0.5-0.2
		c0.1,0,0.2-0.1,0.3-0.1c0.1-0.1,0.2-0.1,0.3-0.2c0.1-0.1,0.1-0.1,0.2-0.2c0.1-0.1,0.2-0.1,0.3-0.2l0.2-0.2l0,0
		c0.1-0.1,0.3-0.3,0.4-0.5c0.6-0.8,1.3-1.6,2-2.3c0.3-0.4,0.7-0.7,1.1-1c0.4-0.3,0.7-0.6,1-1c0.3-0.4,0.7-0.7,1-1
		c0.4-0.4,0.8-0.7,1.2-1c0.9-0.5,1.8-1,2.8-1.4l1.4-0.6c0.5-0.2,1-0.3,1.5-0.5c0.5-0.1,0.9-0.2,1.4-0.3c0.5-0.1,1.1-0.2,1.6-0.3
		c0.5-0.1,0.9-0.1,1.4-0.2c0.6,0,1.1-0.1,1.6-0.1h4.4c0.5,0,1,0.1,1.6,0.2c1,0.1,1.9,0.3,2.9,0.5c1,0.3,2,0.5,3,0.8
		c0.5,0.1,0.9,0.3,1.4,0.5c0.2,0.1,0.4,0.2,0.6,0.3s0.5,0.2,0.7,0.3s0.4,0.3,0.6,0.4s0.4,0.3,0.7,0.5l0.6,0.5
		c0.2,0.2,0.4,0.3,0.6,0.5l0.3,0.2c0.1,0.1,0.3,0.2,0.4,0.2l0.2,0.1l0.3,0.1l0.5,0.1l1.5,0.2c0.5,0.1,1,0.2,1.5,0.4l0.6,0.2
		c0.2,0.1,0.4,0.2,0.7,0.2c0.4,0.2,0.9,0.4,1.3,0.6c0.4,0.3,0.8,0.6,1.2,0.9c0.2,0.2,0.4,0.4,0.5,0.5c0.2,0.2,0.3,0.4,0.5,0.6
		c0.3,0.4,0.6,0.8,0.9,1.3s0.6,0.9,0.8,1.3c0.5,0.8,1,1.7,1.4,2.6l1.4,2.8c0.2,0.5,0.5,1,0.7,1.4s0.4,1,0.6,1.5s0.4,1,0.5,1.4
		s0.3,0.9,0.5,1.4s0.2,0.7,0.3,1s0.2,0.7,0.3,1c0.2,0.7,0.3,1.3,0.5,2c0.3,1.3,0.6,2.6,0.9,4v0.5c0,0.1,0,0.3,0.1,0.4
		c0.1,0.3,0.1,0.5,0.2,0.8c0.1,0.5,0.3,0.9,0.4,1.4c0.3,1,0.6,1.9,0.9,2.9s0.6,2,0.9,3s0.5,1.9,0.6,2.9s0.3,2,0.5,3.1
		c0.1,0.5,0.1,1,0.1,1.5C203.4,48.2,203.4,48.7,203.5,49.2z"/>
	<path class="st1" d="M179.7,53.1c-0.1,0-0.3-0.1-0.4-0.1c-0.1,0-0.2-0.1-0.4-0.2l-0.1-0.1c-0.5-0.1-0.9-0.5-1.1-1
		c-0.1-0.2-0.1-0.5,0-0.7c0-0.1,0.1-0.2,0.1-0.3c0.1-0.2,0.1-0.4,0.2-0.5l0.2-0.3l0.2-0.3c0.1-0.2,0.3-0.3,0.5-0.4
		c0.2-0.1,0.5-0.2,0.7-0.2c0.2,0,0.4,0,0.5,0c0.2,0.1,0.5,0.1,0.7,0.2c0.5,0.3,0.8,0.8,0.9,1.4c0,0.1,0,0.3,0,0.4v0.2
		c0,0.1-0.1,0.2-0.1,0.3c-0.1,0.1-0.1,0.2-0.2,0.3c-0.1,0.1-0.2,0.3-0.3,0.4l-0.2,0.4c-0.1,0.1-0.2,0.2-0.4,0.3
		c-0.1,0.1-0.2,0.1-0.4,0.1l-0.4,0.1C179.8,53,179.7,53.1,179.7,53.1z"/>
	<path class="st1" d="M151.9,52.1c-0.3-0.1-0.6-0.2-0.8-0.4l-0.2-0.1c-0.2-0.1-0.4-0.3-0.5-0.5c-0.1-0.2-0.1-0.5,0-0.7l0.1-0.2
		c0.1-0.3,0.2-0.5,0.3-0.8c0.1-0.3,0.3-0.5,0.6-0.7l0.1-0.1c0.2-0.2,0.5-0.3,0.8-0.4c0.1-0.1,0.3-0.1,0.4-0.1c0.2,0,0.3,0,0.5,0
		c0.1,0,0.3,0.1,0.4,0.1l0.3,0.2l0.2,0.1c0.1,0.1,0.1,0.1,0.1,0.2c0,0.1,0.1,0.1,0.1,0.2c0,0.1,0,0.2,0,0.3c0,0.2,0,0.4-0.1,0.5
		c-0.1,0.3-0.2,0.6-0.4,0.8c-0.2,0.3-0.4,0.5-0.6,0.7l0,0c0,0.2,0,0.3-0.1,0.5c-0.1,0.1-0.2,0.2-0.4,0.2c-0.1,0-0.3,0.1-0.4,0.1
		h-0.1C152.2,52.1,152.1,52.1,151.9,52.1z"/>
	<path class="st1" d="M174.6,46.6L174.6,46.6l0.2-0.3L175,46l0.3-0.3c0.3-0.3,0.6-0.5,1-0.7l0.4-0.2c0.1-0.1,0.2-0.1,0.4-0.1
		c0.5-0.2,1-0.3,1.5-0.5c0.6-0.1,1.3-0.2,1.9-0.2h1.4c0.4,0,0.9,0,1.3,0.1c0.5,0,1,0.1,1.4,0.3c0.4,0.1,0.9,0.3,1.3,0.5
		c0.1,0,0.2,0.1,0.3,0.1c0.1,0,0.2,0.1,0.3,0.1c0.3,0.2,0.3,0.6,0.2,0.8c-0.1,0.2-0.3,0.3-0.5,0.3h-0.2l-0.3-0.1l-0.4-0.2
		c-0.3-0.1-0.6-0.2-0.8-0.3l-0.5-0.1c-0.2,0-0.3-0.1-0.5-0.1c-0.2,0-0.4-0.1-0.7-0.1s-0.4,0-0.7,0h-3c-0.5,0.1-1,0.2-1.5,0.3
		l-1.2,0.3l0,0c-0.2,0-0.4,0.1-0.6,0.2l-0.3,0.1l0,0l-0.4,0.2l-0.1,0.1l0,0v0.1c0,0.1-0.1,0.1-0.1,0.1S174.6,46.7,174.6,46.6z"/>
	<path class="st1" d="M161.5,47c-0.1,0-0.1,0-0.2-0.1c-0.1-0.1-0.1-0.2-0.1-0.3c-0.1-0.2-0.3-0.3-0.4-0.5l0,0
		c-0.1-0.1-0.2-0.2-0.2-0.2l-0.1-0.1l0,0l-0.6-0.4c-0.1-0.1-0.2-0.1-0.3-0.2l-0.4-0.2l-0.4-0.2l-0.2-0.1l-0.2-0.1
		c-0.2,0-0.3-0.1-0.4-0.1c-0.4-0.1-0.9-0.2-1.3-0.3s-0.9-0.2-1.4-0.3l0,0l-1.6-0.2c-0.2,0-0.5-0.1-0.7-0.1c-0.1,0-0.3,0-0.4,0h-1.6
		c-0.1,0-0.3,0.1-0.4,0.1l-0.4,0.1l-0.1,0.1l0,0v0.1c-0.1,0.1-0.2,0.1-0.3,0.1c-0.1,0-0.2-0.1-0.2-0.2l0,0c-0.1-0.2-0.1-0.4,0-0.5
		c0.1-0.3,0.4-0.3,0.7-0.4c0.2-0.1,0.5-0.1,0.7-0.2h1.4l0.7,0.1c0.4,0,0.9,0.1,1.3,0.1c0.4,0.1,1,0.1,1.4,0.2l0.7,0.1
		c0.2,0,0.5,0.1,0.7,0.2l0.6,0.2l0.6,0.2l0.4,0.1l0.3,0.1l0.3,0.1l0.4,0.2l0.1,0.1l0.2,0.1c0.1,0.1,0.2,0.1,0.2,0.2
		c0.2,0.1,0.4,0.3,0.5,0.5c0.1,0.1,0.2,0.3,0.4,0.5c0.1,0.1,0.1,0.2,0.2,0.4c0.1,0.2,0.1,0.4,0.2,0.6c0,0.1,0,0.1,0.1,0.2l0,0
		c0.3,0.1,0.2,0.3,0.1,0.3L161.5,47z"/>
	<path class="st1" d="M169.4,63c-0.1-0.1-0.1-0.1-0.2-0.2c-0.1-0.1-0.2-0.3-0.3-0.4c0,0-0.1-0.1-0.2-0.1c-0.1,0-0.1-0.1-0.2-0.1
		l-0.2-0.1h-0.2c-0.1,0,0,0-0.1,0l-0.3,0c-0.1,0.1-0.3,0.1-0.4,0.2c-0.1,0-0.1,0.1-0.2,0.1l-0.1,0.1c0,0-0.1,0.1-0.2,0.1l-0.1,0.1
		c-0.1,0.1-0.3,0-0.3-0.2s0.6,0,0.6,0s0,0.1,0.1-0.1s0.1,0,0.2-0.1s0.3-0.1,0.4-0.2c0.7-0.1,0.2,0,0.4,0s0.6,0,0.8,0.1
		s0.7-0.2,0.8,0.4l-0.1-0.8v-0.1c0-0.1,0-0.3,0.1-0.4c0-0.4,0.1-0.7,0.1-1.1v-2.2c0-0.4,0-0.7,0-1.1c0-0.3,0-0.8,0-1.1s0-0.9,0-1.3
		v-1.5l0,0l0,0l0,0v-0.4l0,0v-2l0,0v-1.3c0,0,0-0.1,0-0.1l0,0c0,0,0.1,0,0.1,0c0,0,0,0,0,0l0,0l0,0v0.1c0,0.4,0.1,0.7,0.1,1.1
		s0.1,0.7,0.1,1.1c0.1,0.7,0.1,1.5,0.1,2.2s0.1,1.4,0.1,2.2c0,0.4,0,0.7,0,1.1V58v2.1c0,0.4,0,0.7-0.1,1.1c0,0.2,0,0.4,0,0.5
		c0,0.2-0.1,0.4-0.1,0.6c0,0.2-0.1,0.4-0.2,0.5c-0.1,0.1-0.2,0.2-0.3,0.2l0,0C169.6,63.1,169.5,63.1,169.4,63z"/>
</g>
</svg>
