<svg id="Calque_1" data-name="Calque 1" xmlns="http://www.w3.org/2000/svg" viewBox="0 0 496.63 464.78"><defs><style>.cls-1{fill:#000eff;}.cls-2{fill:#f7ff00;}.cls-3{fill:#fff;}</style></defs><g id="Calque_45" data-name="Calque 45"><path class="cls-1" d="M143.88,237.9a28.45,28.45,0,0,1-5.37-.83h.14c-.83-.21-1.66-.27-2.55-.41a11.22,11.22,0,0,1-3.31-1,7.54,7.54,0,0,1-1.44-.82,7.07,7.07,0,0,1-1.52-1.72,5.67,5.67,0,0,1-.62-1.11,4.83,4.83,0,0,1-.21-2,5.77,5.77,0,0,1,.49-1.45,3.74,3.74,0,0,1,.55-.9c-.14-.27-.21-.62-.35-.89v.07a2.72,2.72,0,0,0-.34-.62h0a3.2,3.2,0,0,1-.35-.69,5.71,5.71,0,0,1,.07-2.14,7.13,7.13,0,0,1,.69-2,15.5,15.5,0,0,1,1.17-1.59,8.07,8.07,0,0,1,2.07-1.93,10.84,10.84,0,0,1,3.3-1c1.59-.27,3.1-.69,4.62-1.1a7,7,0,0,1,2.07-.28c.82.07,1.65.28,2.54.42h-.13a8.26,8.26,0,0,0,1.86,0h0c.34,0,.62-.07,1-.07l.9-.21c.82-.27,1.65-.62,2.47-1-.06,0-.13.07-.2.07,1.31-.62,2.68-1.24,4.06-1.8a12.64,12.64,0,0,1,5-.82,14.4,14.4,0,0,1,4.13.89c1.38.49,2.69.9,4.07,1.38s2.54.9,3.92,1.24c1.72.35,3.51.62,5.3,1.1l2.14.42c.34.06.69.06,1,.13a10.41,10.41,0,0,1,1.86.62,11.71,11.71,0,0,1,2.41,1.24,8.06,8.06,0,0,1,2.27,2.55,12.06,12.06,0,0,1,1.24,3.79,14.72,14.72,0,0,1,.21,3v-.34a6,6,0,0,1-.27,2.2,6.86,6.86,0,0,1-.9,1.45,8,8,0,0,1-2.82,1.92,17.67,17.67,0,0,1-7.1,1c-1.17-.07-2.41-.14-3.58-.14l-2.06.21-4.41.82c-1.45.28-2.9.42-4.41.62l-1.31.21c-2.07.34-4.13.76-6.27,1a57.08,57.08,0,0,1-6.06.55h-.69C147.32,238,145.6,238,143.88,237.9Zm7.23-6.34c2.76-.14,5.58-.34,8.34-.76s5.44-.62,8.12-.89c1.52-.28,3-.55,4.55-.69a29.39,29.39,0,0,1,6,.34,14.14,14.14,0,0,0,1.72.07,10.73,10.73,0,0,0,1.38-.13,7.1,7.1,0,0,0,1.17-.28c.28-.07.55-.21.76-.28s.14-.06.2-.13h.07c-.07-.62-.13-1.31-.2-1.93-.07-.28-.14-.62-.21-.9-.14-.48-.34-1-.48-1.44-.07-.21-.21-.35-.28-.55l-.07-.07c-.07-.07-.13-.21-.27-.28s-.14-.07-.21-.14c-.62-.27-1.24-.62-1.86-.82l-1.51-.42a13,13,0,0,1-1.66-.48c-1.1-.27-2.13-.62-3.23-.89a30.12,30.12,0,0,1-3.58-1c-1.18-.48-2.35-1-3.45-1.37h.07c-1.45-.56-2.89-1.11-4.34-1.73-.34-.13-.69-.2-1-.34l-1.1-.21a7.85,7.85,0,0,0-1.31-.07c-.35,0-.69.07-1.1.07a6.45,6.45,0,0,0-1.11.28l-2.48.83c-.89.34-1.79.55-2.75.82a17.07,17.07,0,0,1-4.27.62c-.83-.07-1.65-.07-2.48-.21a9.79,9.79,0,0,1-1.45-.34c-.2-.07-.41-.07-.68-.14h-.21a5.11,5.11,0,0,0-1,.14h-.21c-1,.14-1.93.34-2.89.48l-2.9.42-1,.2h0l-.69.21-.41.21h0c-.07.06-.14.13-.21.13a14.24,14.24,0,0,0-1.38,1.31c-.2.21-.41.48-.62.69a3,3,0,0,0-.34.55,2,2,0,0,0-.28.69,4.49,4.49,0,0,0-.27,1,1.54,1.54,0,0,0-.07.56h0a1.17,1.17,0,0,1-.07.48v.27a10.87,10.87,0,0,0,.55,1.52,10.24,10.24,0,0,1,.76-.9,2.73,2.73,0,0,1,3.37-.55,2.63,2.63,0,0,1,1,3.24c-.21.41-.41.83-.62,1.31.14.07.21.07.34.14a5.38,5.38,0,0,0,1,.13h.14c.55-.07,1.17-.07,1.72-.13a11.86,11.86,0,0,1,2.75.41h-.07a29.29,29.29,0,0,0,3.31.55.83.83,0,0,1-.41-.07A58.29,58.29,0,0,0,151.11,231.56Z" transform="translate(-7.37 -23.54)"/><path class="cls-1" d="M205.18,162.21a45.63,45.63,0,0,1-6.82-1c-1.79-.48-3.65-1-5.44-1.51a14.83,14.83,0,0,0-2.41-.41c-.9-.07-1.79-.14-2.69-.14s-2.07,0-3.17-.07a25.86,25.86,0,0,1-3.1-.48c-1-.21-2.06-.35-3.1-.49a6.47,6.47,0,0,1-1.65-.34l-1.86-.62c-.55-.21-1-.48-1.51-.69-.28-.21-.62-.34-.9-.55h-.27a6.53,6.53,0,0,1-1.93-.76,6,6,0,0,1-1.45-.82,5.22,5.22,0,0,1-1.31-2.41,15.85,15.85,0,0,1-.34-4.41,4.36,4.36,0,0,1,.14-1.66,5,5,0,0,1,1.86-2.75c1.58-1.17,3.65-1.24,5.51-1.17a16.08,16.08,0,0,1,3.92.62c1,.27,2.07.55,3,.89l3,1a5.86,5.86,0,0,1,1,.27c1,.21,2.06.42,3,.69a18.05,18.05,0,0,1,2.75.9h0c.07,0,.21.07.28.07a.24.24,0,0,1-.14-.07c.76.27,1.51.62,2.27,1a25.11,25.11,0,0,0,2.41.76c.9.27,1.72.48,2.62.69s1.79.69,2.69,1,1.58.69,2.41,1a.26.26,0,0,1-.14-.06,2.09,2.09,0,0,1,.62.27c.82.28,1.65.48,2.55.76a11.13,11.13,0,0,1,2.89,1.38,18.37,18.37,0,0,1,2.41,1.65,5.38,5.38,0,0,1,2.07,3,3.71,3.71,0,0,1-1.52,3.79,7.7,7.7,0,0,1-4.41,1.1h-.34C207.17,162.41,206.21,162.28,205.18,162.21Zm-34.51-8.75c-.27-.41-.48-.83-.76-1.24a.26.26,0,0,0,.07.21c.07.13.07.2.14.34v-.07c0,.07.07.14.14.21l-.07-.07c.07.14.14.21.21.34l-.07-.06Zm10.75-1.86v-.07a2,2,0,0,0-.62-.14c-.76-.13-1.45-.27-2.21-.34h.07c.14.07.28.07.41.14A13.78,13.78,0,0,1,181.42,151.6Z" transform="translate(-7.37 -23.54)"/><path class="cls-1" d="M138.92,155.73a4.17,4.17,0,0,1-1.31-.41,4.06,4.06,0,0,1-2.13-2.62,4.51,4.51,0,0,1,.62-3.51,12,12,0,0,1,1.1-1.45c.14-.07.21-.2.34-.27s.07-.14.07-.21c.35-.69,1.1-1,1.72-1.31s1.31-.69,1.93-1a5.52,5.52,0,0,1,1.17-.48l1.17-.21c.83-.14,1.66-.34,2.48-.55a7.91,7.91,0,0,0,1.24-.35,4.28,4.28,0,0,1,1.31-.2,5.18,5.18,0,0,1,1.45.27,9.2,9.2,0,0,1,2.55,1.31,4.06,4.06,0,0,1,1.37,1.86,6.72,6.72,0,0,1-.27,5,6.75,6.75,0,0,1-3.72,3.31,7.42,7.42,0,0,1-3.24.41H144.5c-.9.07-1.86.14-2.75.27a18.07,18.07,0,0,1-1.93.21A3.62,3.62,0,0,1,138.92,155.73Z" transform="translate(-7.37 -23.54)"/><path class="cls-1" d="M146.57,234.25a18.6,18.6,0,0,1-2.76-.35c-.89-.2-1.79-.34-2.68-.62a9.56,9.56,0,0,1-2.35-.89c-.07,0-.13-.07-.2-.07s-.28-.07-.42-.14l-1.37-.21h-.42c-.48.14-1,.35-1.44.49a1.68,1.68,0,0,1-2-.76,1.72,1.72,0,0,1,.48-2.07l.07-.07a5.14,5.14,0,0,1,1.31-.82,5.92,5.92,0,0,1-1-.9c-.27.62-.55,1.24-.82,1.79-.14.28-.28.49-.41.76a3.05,3.05,0,0,1-.56.76,1.23,1.23,0,0,1-.82.34.6.6,0,0,1-.55-.34,2.18,2.18,0,0,1-.14-1c0-.27.07-.55.07-.82.07-.76.2-1.45.27-2.21a25.09,25.09,0,0,1,.55-3c0-.13.07-.27.07-.41a1.28,1.28,0,0,1-.55-1c-.14-.76.55-1.31,1.1-1.79.21-.21.42-.35.62-.56s.07-.27.14-.41a2.76,2.76,0,0,1,1-1.58,1.52,1.52,0,0,1,1.44-.14c.07.07.14.07.28.14a.07.07,0,0,0,.07-.07,22.1,22.1,0,0,1,2.2-1.38l1-.62c.14-.07.28-.21.42-.27a1.58,1.58,0,0,1,.48-.28,1.69,1.69,0,0,1,1.17.07,1.49,1.49,0,0,1,.83,1.17v.07c1.65-.35,3.37-.55,5-.83h.14c.21,0,.41-.07.62-.07s.48-.07.76-.13h.07c1.24-.21,2.41-.42,3.65-.56.69-.06,1.31-.2,2-.2a20.56,20.56,0,0,1,2.07-.14c1.24-.07,2.48-.21,3.72-.34l4.06-.62a1.67,1.67,0,0,1,1.73,1.1,1.78,1.78,0,0,1-.62,2,8.14,8.14,0,0,1-1.8.68c-.13.07-.2.07-.34.14H165c.82,0,1.72-.07,2.61-.07a7.31,7.31,0,0,0,1.24-.07,5.28,5.28,0,0,1,2.07.14,1.88,1.88,0,0,1,.62-.07,1.48,1.48,0,0,1,1.51,1v.07a1.72,1.72,0,0,1,0,1,18.35,18.35,0,0,1,5.51,1.24c.55.21,1.11.48,1.66.69a9.2,9.2,0,0,1,1.37.89,3.93,3.93,0,0,1,.55.48,4.65,4.65,0,0,1,1.31.42c.21.14.42.2.62.34a1.86,1.86,0,0,0,.42.35,1.67,1.67,0,0,1-.49,2.61,2.36,2.36,0,0,1,.69,1,2.07,2.07,0,0,1,.14,1.31,3.25,3.25,0,0,1-1.93,2.2,13.49,13.49,0,0,1-3.23.9c-1.11.2-2.28.34-3.38.48s-2.07.2-3.1.34a106.37,106.37,0,0,1-10.61.9h-2.47c-1,0-2.07-.07-3.1-.07-2,0-4,0-6,.07-.89,0-1.72.07-2.61.07h-1A2.74,2.74,0,0,0,146.57,234.25Zm27.68-5a3.27,3.27,0,0,0-.34.07h.14c.48-.07,1-.07,1.37-.14,0-.07.07-.14.07-.21A7.66,7.66,0,0,1,174.25,229.29Zm-42.42-1.17c.07-.21.14-.42.2-.62a4.77,4.77,0,0,1,.35-.9.43.43,0,0,1,0-.41,7.51,7.51,0,0,0,.14-1.31.26.26,0,0,0-.07-.21.25.25,0,0,0-.07-.2c0-.07-.07-.21-.07-.28v.14h0c-.21,1-.34,1.86-.48,2.82A4.48,4.48,0,0,1,131.83,228.12Z" transform="translate(-7.37 -23.54)"/><path class="cls-2" d="M504,429a5.1,5.1,0,0,1-2.14,4.89c-1.86,1.31-4.27,1.38-6.4,1.58-2.48.21-5,.21-7.51.28s-5.17.07-7.71.14c-1.38,0-2.76.07-4.14.07s-2.82.07-4.27.13c-1.72.07-3.44.21-5.16.35s-3.44.27-5.24.41l-5.16.41c-3,.28-5.92.42-8.82.76-1.58.14-3.1.28-4.68.48-1.86.28-3.72.49-5.58.76-2.41.42-4.82.76-7.23,1.24-3.1.55-6.13,1.17-9.23,1.79s-5.85,1.31-8.82,2c-2.47.62-4.89,1.38-7.36,2-10,3-19.91,6.2-29.9,9-2.54.69-5,1.51-7.57,2.13s-5.17,1.38-7.78,2c-5.38,1.17-10.75,2.41-16.19,3.17-2.69.34-5.3.83-8,1.1s-5.37.62-8,.76-5.23.41-7.85.55-5.3.28-7.92.34c-5.37.21-10.67.28-16.05.76-2.68.21-5.3.42-8,.76s-5.3.62-8,1c-10.67,1.38-21.28,2.76-31.88,4.41-5.44.83-10.89,1.59-16.33,2.34s-10.74,1.31-16.11,2c-4.89.62-9.85,1.38-14.74,2.07q-8.26,1.14-16.53,2.06C173.36,482,163,483,152.63,484.05c-2.76.27-5.58.55-8.41.89L135,486.18c-3,.42-6.07.83-9.16,1.18-3.24.34-6.41.68-9.65.82h-.27a9.12,9.12,0,0,1-1.38.07H114c-1.45.07-2.82.07-4.27.07-3.86,0-7.71-.14-11.57-.48a132.57,132.57,0,0,1-15.5-1.93c-5.23-1-10.4-2.14-15.56-3.38-2.48-.62-4.89-1.24-7.37-1.92s-5-1.31-7.51-2.07c-3.1-.9-6.2-2-9.23-3.1s-6.2-2.41-9.16-3.79a74.55,74.55,0,0,1-8.4-4.41c-2.76-1.72-5.51-3.44-8.33-5-1.66-.83-3.31-1.66-5-2.41a20.08,20.08,0,0,1-2.41-1.24c-.28-.21-.62-.42-.9-.62a4.41,4.41,0,0,1-.76-.83,1.25,1.25,0,0,1-.27-.48l-.21-.42h0a3.9,3.9,0,0,1-.21-1.3,1.85,1.85,0,0,1,.07-.62,3.86,3.86,0,0,1,1.17-2.21,4.16,4.16,0,0,1,3.65-1l.9.21a3.34,3.34,0,0,0,.76-.28,13.31,13.31,0,0,0,1.72-.9A17.69,17.69,0,0,0,18,448.44h.07c1.31-1.1,2.55-2.2,3.72-3.37,2.41-2.62,4.82-5.24,7-8.06,1-1.38,1.85-2.76,2.68-4.2.48-1,1-1.93,1.52-2.89s.89-2,1.31-3c1.79-4.89,3.37-9.78,5-14.67s3.31-9.5,5-14.25c.83-2.41,1.65-4.76,2.48-7.1.41-1.17.83-2.27,1.31-3.44s1.1-2.34,1.65-3.44a55.52,55.52,0,0,1,4-6.48,32.47,32.47,0,0,1,5-5.3l1.86-1.65h0c.68-.76,1.44-1.52,2.27-2.28,1.1-1,2.2-2,3.17-3,.34-.41.69-.82,1-1.24q1.33-2.06,2.48-4.13c.83-1.45,1.65-2.82,2.48-4.27,1.72-3,3.37-6.13,5.16-9.16,1-1.79,2.21-3.51,3.31-5.23s2.34-3.52,3.58-5.17L84,336V336c2.07-2.82,4.27-5.65,6.47-8.4,1.24-1.52,2.48-3,3.79-4.34s2.48-2.55,3.72-3.79c1-.89,1.86-1.86,2.76-2.82v-.07l.13-.14.07-.07a12.05,12.05,0,0,0,.9-1h0l.34-.34a81.89,81.89,0,0,1,7.65-7c2.82-2.27,5.71-4.55,8.74-6.54,1-.62,2-1.31,3-1.86h0c.06-.07.13-.07.2-.14,1.59-1,3.1-1.86,4.69-2.76s2.89-1.65,4.4-2.41,2.9-1.51,4.34-2.2l2.27-1a16.17,16.17,0,0,1,2.35-.9c0-.07.07-.14.13-.2a1,1,0,0,1,1.24-.14l.07.07h2.07a.93.93,0,0,1-.07,1.86h-1a7.33,7.33,0,0,0-1.11.06c-.13,0-.27.07-.41.07s-.21.07-.27.07a.06.06,0,0,1,.06.07,2.59,2.59,0,0,0,.62.28c.83.27,1.73.55,2.62.75,1.72.35,3.38.76,5.1,1.18a8,8,0,0,0,1.31.27c1.65.41,3.37.69,5.09,1s3.31.56,5,.76,3.45.48,5.17.76l2.34.41c.83.07,1.65.21,2.55.28l1.93.21c1.58.13,3.23.13,4.82.27l2.48.21a9.5,9.5,0,0,0,2,.07h.83c.14-.07.21-.07.34-.14a2.65,2.65,0,0,1,2.07.07,3.18,3.18,0,0,1,.83,5,6.92,6.92,0,0,0,.34,1.1h0c.35,1,.69,2.13,1.1,3.1.14.41.35.76.49,1.17,1,2.13,2.13,4.2,3.16,6.33.49,1,1,2.14,1.59,3.17s1.24,2.14,1.86,3.24c1.38,2.27,2.82,4.61,4,7s2.41,4.69,3.65,7,2.48,4.61,3.65,7c1,2.13,2,4.27,3.17,6.33.14.21.21.35.35.55.41.49,1,1,1.44,1.45.28.28.48.55.76.83h0a4.61,4.61,0,0,1,1.79,2.34,5.41,5.41,0,0,1,.21,2.55l1.51.2c.76.07,1.52.07,2.27.07,1-.07,1.86-.14,2.83-.27h.2c.69-.14,1.31-.28,2-.49,1.24-.41,2.41-.82,3.51-1.3.14-.07.21-.07.35-.14.83-.42,1.72-.76,2.55-1.1.48-.21,1-.42,1.51-.69,5.1-2.28,9.85-5.17,14.67-7.92,1.59-1,3.17-1.93,4.69-3s3-2.13,4.4-3.23,3-2.27,4.55-3.38,3.1-2.34,4.61-3.58a2.07,2.07,0,0,0-.41.35c4.48-3.72,8.89-7.58,13.5-11.16,2.2-1.72,4.55-3.38,6.75-5.1s4.54-3.51,6.82-5.3c.07-.07.14-.14.2-.14s.42-.34.62-.48c-.13.07-.2.21-.34.27a5.53,5.53,0,0,1,.69-.55c.2-.13.34-.27.55-.41,3-2.34,5.92-4.68,9-6.89s6-4.2,8.89-6.47c2.34-2,4.61-4.13,6.81-6.27,1.11-1.1,2.28-2.2,3.45-3.24,1-.89,2-1.79,3-2.68l1.86-2.07a10.84,10.84,0,0,1,2.13-2.2,4.53,4.53,0,0,1,4.83-.14,3.72,3.72,0,0,1,1,.83,7.41,7.41,0,0,0,.76-.42,33.76,33.76,0,0,1,8.19-2.75c1.31-.28,2.69-.48,4.07-.69l1.93-.41a22.49,22.49,0,0,1,3-.49,25.64,25.64,0,0,1,3.16-.06c1.45.06,2.9.27,4.34.34s3,.21,4.48.34l2,.21h0c2.34.21,4.68.35,7,.62s4.75.76,7.16,1,5,.55,7.58,1c1.38.2,2.69.41,4,.69s2.61.62,3.85.89c.62.14,1.24.42,1.86.62s1,.35,1.52.55c1.37.55,2.75,1.11,4.13,1.72,2.41,1,4.75,2.07,7.09,3.24s4.76,2.55,7,3.93c1,.62,2,1.31,3,1.93,1.17.75,2.27,1.51,3.37,2.34s2.07,1.65,3,2.55,1.86,1.72,2.76,2.61c1.86,1.86,3.79,3.72,5.65,5.65a66.29,66.29,0,0,1,5.09,5.86c1.59,1.92,3.17,3.92,4.69,5.92,3,4,5.44,8.33,8.4,12.26,1.51,2.06,3.1,4.06,4.61,6.13s3,4.27,4.34,6.47,2.69,4.34,4.07,6.54,2.61,4.07,4,6.07,3,4.27,4.34,6.4c1.52,2.34,2.89,4.68,4.34,7.09,2.62,4.41,5,9,7.51,13.43s4.54,8.89,6.68,13.43c2.27,4.83,4.34,9.78,6.26,14.74.9,2.41,1.79,4.82,2.55,7.23.76,2.21,1.52,4.41,2.21,6.69A12.5,12.5,0,0,1,504,429Z" transform="translate(-7.37 -23.54)"/><path class="cls-1" d="M255.8,196h0C255.87,195.89,255.87,196,255.8,196Zm90.7-51c0,.83-.06,1.65-.06,2.41a28.91,28.91,0,0,1-2.14,8.95c-1,2.83-2.48,5.51-3.72,8.27-.14.34-.27.69-.41,1s-.21.55-.28.9v1.17c0,.41.07.76.07,1.17s.14.48.21.69c.27.75.55,1.51.89,2.27,1.11,2.34,2.28,4.68,3.24,7.09a8.62,8.62,0,0,1,.69,3.24,11.73,11.73,0,0,1-.55,3.44,22.47,22.47,0,0,1-2.14,4.55,48.65,48.65,0,0,1-5.16,7.92,25.45,25.45,0,0,1-5.44,5c-1.11.76-2.28,1.38-3.45,2.06a17.74,17.74,0,0,0-1.79,1.24c-.41.35-.82.76-1.17,1.11A35.88,35.88,0,0,0,322.4,211c-1.59,2.41-3.1,4.89-4.68,7.3-1.11,1.65-2.14,3.3-3.31,4.89a25.14,25.14,0,0,1-3.65,4,8,8,0,0,1-2.21,1.31,8.58,8.58,0,0,1-2.68.41h-.07a8.64,8.64,0,0,1-4.48-1.37,7.46,7.46,0,0,1-3-4.2,10,10,0,0,1-.14-5.31,26.85,26.85,0,0,1,1.73-4,85.66,85.66,0,0,1,4.75-7.58c1-1.38,1.93-2.82,2.89-4.2s1.93-2.62,2.89-3.92a26.92,26.92,0,0,0,1.93-3,31.79,31.79,0,0,0,1.72-3.92l.83-2.69.21-1.44c0-.42.07-.83.07-1.24v-.28c-.07-.41-.21-.83-.28-1.17a10.54,10.54,0,0,0-.48-1.24l-.21-.41a5.15,5.15,0,0,0-.48-.69,7.15,7.15,0,0,1-.62-.69c-.48-.41-1-.83-1.45-1.17a5.84,5.84,0,0,0-1.1-.69c-.34-.14-.62-.28-1-.41a13.39,13.39,0,0,0-1.52-.49c-1.44-.27-2.82-.48-4.27-.62-.48-.06-1-.06-1.51-.13-.76-.07-1.59-.07-2.35-.07a12,12,0,0,0-1.58.14,9.79,9.79,0,0,0-1.45.34,12.12,12.12,0,0,0-1.44.55,13.31,13.31,0,0,0-1.72.9c-1,.62-1.86,1.17-2.76,1.86-.48.41-1,.89-1.44,1.3-1.11,1.18-2.07,2.41-3,3.65-2,2.76-3.92,5.58-6,8.34a35.74,35.74,0,0,1-3.51,3.79c-1.17,1.1-2.41,2.06-3.65,3.1-.83.68-1.65,1.44-2.41,2.2s-1.79,1.79-2.76,2.62a22.43,22.43,0,0,1-4.2,3.16,8.7,8.7,0,0,1-3.92,1.18,5.43,5.43,0,0,1-3.24-.9,15.35,15.35,0,0,1-1.72-1.24,17.63,17.63,0,0,1-3-2.62,12.13,12.13,0,0,1-3.24-8,9.37,9.37,0,0,1,3.72-7.79,8.61,8.61,0,0,1,1.72-1,16.52,16.52,0,0,0-.69-1.65,21.37,21.37,0,0,1-1.17-5.1A22.46,22.46,0,0,1,254.21,172a39.58,39.58,0,0,1,3.1-6.13,51.17,51.17,0,0,1,6.34-7.58,40.74,40.74,0,0,1,3.31-2.89c.62-.48,1.24-.9,1.86-1.38a22.7,22.7,0,0,1,2.47-1.31,11,11,0,0,1,4.89-.76,17.16,17.16,0,0,1,.21-3.71,28.76,28.76,0,0,1,2.21-7.44c.89-2.14,2-4.13,3-6.2.68-1.45,1.37-3,2.2-4.41a57.4,57.4,0,0,1-6.47-4.27,22.25,22.25,0,0,1-7.58-8.81,6.27,6.27,0,0,0-.69.68,25,25,0,0,1-7.51,4.69,27.29,27.29,0,0,1-4.61,1.24,37,37,0,0,1-4.75.34,15.52,15.52,0,0,1-8.82-2.89c-1.31-1-2.62-1.93-3.86-3a29.62,29.62,0,0,1-3.09-2.83c-.56-.55-1.11-1.1-1.59-1.65-.07-.07-.07-.14-.14-.14a6.17,6.17,0,0,1-.62.76,10.8,10.8,0,0,1-3.23,2.62,8.6,8.6,0,0,1-2.35.89l-1.58.42a32.26,32.26,0,0,1-3.51.41,22.14,22.14,0,0,1-6.75-.9,25.81,25.81,0,0,1-7.78-4.27,25.22,25.22,0,0,1-4.14-4.06,18.54,18.54,0,0,1-1.44,2.89,24,24,0,0,1-3.93,4.82,33.86,33.86,0,0,1-5.37,4.07c-1.65,1.1-3.24,2.2-5,3.3a22.23,22.23,0,0,1-5.72,2.62,19.81,19.81,0,0,1-6.68.69,18,18,0,0,1-10.4-4.06c-1-.83-2-1.66-2.89-2.48a22.41,22.41,0,0,1-4.2-5.31,5.74,5.74,0,0,1-.55-1.17,16.17,16.17,0,0,1-7.51,2.07A19.58,19.58,0,0,1,139.82,113a28.71,28.71,0,0,1-7.51-8.06,21.09,21.09,0,0,1-2.14-5.78,26.8,26.8,0,0,1-.62-6.2,38.38,38.38,0,0,1,1.73-10.06,33.07,33.07,0,0,1,2.41-6.13,14.42,14.42,0,0,1,3.16-4.2,9.07,9.07,0,0,1,1.45-1c-.21-.28-.34-.62-.55-.9A21.16,21.16,0,0,1,136,66.61a47.93,47.93,0,0,1-2.14-9.23,26.27,26.27,0,0,1,.83-10.33,36,36,0,0,1,2.13-5.3,31.54,31.54,0,0,1,3.24-5.17,23.6,23.6,0,0,1,8.82-7.64,22.68,22.68,0,0,1,7.71-1.72,40.12,40.12,0,0,1,4.06-.14,28.87,28.87,0,0,1,8.75,1,16.67,16.67,0,0,1,8,5.51,7.46,7.46,0,0,1,1,1.59,10.61,10.61,0,0,1,.55,1.44c.14.35.21.69.35,1,1.1-.9,2.2-1.79,3.37-2.76s2.21-1.79,3.24-2.75a31.44,31.44,0,0,1,3.31-2.76,32,32,0,0,1,7.78-4,21,21,0,0,1,4.68-1.24c1.59-.21,3.17-.42,4.75-.49a33.93,33.93,0,0,1,5.79.07,15.36,15.36,0,0,1,4,.9,16.05,16.05,0,0,1,4.07,2.34,20.43,20.43,0,0,1,3.37,3.58,24.13,24.13,0,0,1,2.21,3.17,33.64,33.64,0,0,1,1.86,3.51A23.42,23.42,0,0,1,229,40.85a26.17,26.17,0,0,1,.82,3.93A13.27,13.27,0,0,1,230,48.5c1.52-.69,3-1.38,4.61-2a36.82,36.82,0,0,1,12.95-2.75,21.2,21.2,0,0,1,7.72,1.72,17,17,0,0,1,4.27,2.2c.75.55,1.44,1.17,2.13,1.79l3.51,3.31A39.05,39.05,0,0,1,268,56a27.11,27.11,0,0,1,2.55,3.65A29.1,29.1,0,0,1,272.05,63a4.29,4.29,0,0,0,.48.9c.07.13.14.2.21.34l.21.21c.07.07.13.07.13.13s.14.07.21.07.14.07.21.14A1.25,1.25,0,0,0,274,65h.07c1.86.41,3.79.62,5.72.89,1,.07,1.85.21,2.82.21h3.86q3.62,0,7.23.21c5.44.34,11,1.24,15.84,3.85a42.37,42.37,0,0,1,5.09,3.52c.76.62,1.59,1.17,2.35,1.79,2.48,1.79,5,3.65,7.43,5.51.9.69,1.73,1.37,2.62,2.06a27.28,27.28,0,0,1,4.2,4.76A37.36,37.36,0,0,1,334,92.3a40.3,40.3,0,0,1,1.86,3.93c.69,1.51,1.31,3,1.86,4.54,1.1,3,2.2,6,3.16,9.09.62,2,1.11,4,1.59,6.06s1.1,4.27,1.45,6.41v.41c.06.28.06.62.13.9s.07.48.14.69v.27c.48,3,.76,6.13,1.24,9.16.21,1.38.41,2.83.62,4.2a33.33,33.33,0,0,1,.41,4.62C346.5,143.27,346.5,144.09,346.5,144.92Z" transform="translate(-7.37 -23.54)"/><path d="M181.48,204a.42.42,0,0,1,.28.07,14.9,14.9,0,0,1-3.51-1,6.27,6.27,0,0,1-2.21-1.59c-.82-.75-1.58-1.51-2.34-2.34s-1.51-1.31-2.2-2.06a15.87,15.87,0,0,1-1.65-2.14,9.68,9.68,0,0,1-.76-1.17,6,6,0,0,1-.48-1,16.07,16.07,0,0,1-.9-2.55c-.14-.62-.34-1.17-.48-1.79a15.77,15.77,0,0,1-.35-1.93c-.2-1-.41-2-.55-3a16.05,16.05,0,0,1,0-3.1v-1.31a3.87,3.87,0,0,1,.21-1c.14-.69.28-1.45.41-2.14.07-.41.14-.89.21-1.31s.21-1,.27-1.44v.2c.14-.89.14-1.79.28-2.68a15.89,15.89,0,0,1,.62-2.62,11.19,11.19,0,0,0,.48-1.45,6.08,6.08,0,0,1,.62-1.51,16.28,16.28,0,0,1,2-2.83,15.37,15.37,0,0,1,1.51-1.51,12.23,12.23,0,0,1,2.28-1.52.07.07,0,0,0-.07.07c.48-.27,1-.48,1.51-.75s1.17-.56,1.79-.83,1.38-.55,2.07-.76a6.13,6.13,0,0,1,1.58-.21c.42,0,.9-.06,1.31-.06h.07c.14,0,.28-.07.42-.07h0a.64.64,0,0,1,.62.07,9.43,9.43,0,0,1,1.3.06c.83.14,1.59.42,2.35.56,1.17.27,2.34.41,3.44.75a23.06,23.06,0,0,1,3,1.17c.41.21.83.49,1.31.76a21.86,21.86,0,0,1,2.62,1.72,15.45,15.45,0,0,1,2.06,2.14,12.64,12.64,0,0,1,2,3,25.71,25.71,0,0,1,1.31,3.1c.27.89.62,1.86.83,2.75s.34,1.59.48,2.41.2,1.66.34,2.48v-.27c0,.2.07.34.07.55h0a30,30,0,0,1,.14,3.58,10.4,10.4,0,0,1-.21,2.13c-.14.83-.34,1.59-.55,2.42-.21.62-.48,1.17-.69,1.72a18.6,18.6,0,0,1-.69,1.93,16.84,16.84,0,0,1-.89,1.92,22.71,22.71,0,0,1-1.31,2.07,29,29,0,0,1-2.48,2.62l.07-.07a30.54,30.54,0,0,1-3.24,2.75c-.62.49-1.24,1-1.86,1.38a18.7,18.7,0,0,1-2,1.17l-2.06,1c-.62.35-1.31.69-1.93,1a12.76,12.76,0,0,1-2.27.55c-.76.14-1.59.14-2.41.21h-.14A5.77,5.77,0,0,0,181.48,204Zm1.73-4.2a8.28,8.28,0,0,0,1.31-.07c.48-.07,1-.14,1.51-.27a4.44,4.44,0,0,0,.9-.28c.82-.34,1.65-.83,2.48-1.24s1.44-.69,2.13-1a6.61,6.61,0,0,0,.83-.55,44.56,44.56,0,0,0,4.34-3.58,13.16,13.16,0,0,0,1.65-1.79,3,3,0,0,0,.48-.76,14.69,14.69,0,0,0,.9-1.72c.13-.35.27-.76.41-1.11a10.57,10.57,0,0,1,.41-1.24,12,12,0,0,1,.55-1.3c-.07.06-.07.13-.13.27a2.49,2.49,0,0,0,.2-.62c.21-.76.42-1.51.55-2.27.07-.55.07-1.1.14-1.65,0-1-.07-2-.14-3a28.06,28.06,0,0,0-.69-4.2c-.27-1-.48-2.06-.82-3a7.92,7.92,0,0,0-.48-1c-.21-.41-.42-.9-.62-1.31a9.92,9.92,0,0,0-.9-1.38,9.74,9.74,0,0,0-1.45-1.58c.07.07.14.14.14.21a13.1,13.1,0,0,0-1-1c-.55-.41-1.1-.76-1.65-1.1.07.07.13.07.2.14s-.13-.07-.2-.14h.07c-.42-.28-.83-.48-1.24-.76h.06l-2.27-1.24h.07c-1-.41-2.07-.76-3.17-1.1l-2.41-.83c-.2-.07-.48-.07-.69-.13h.14a4.77,4.77,0,0,0-1-.07,4.53,4.53,0,0,0-1,.07,5.81,5.81,0,0,0-1.1.07h-.14a.55.55,0,0,0-.27.06c-.07,0-.21.07-.28.07-1.1.48-2.2,1-3.37,1.52a1.27,1.27,0,0,1-1.11-.14c-.41.28-.89.55-1.3.83h0l-.07.07a.07.07,0,0,0,.07-.07l-1,.75h0c-.55.56-1.1,1.18-1.58,1.73h0a9.43,9.43,0,0,0-.76,1.1,7.37,7.37,0,0,0-.55,1c-.07.21-.14.35-.21.55a9.61,9.61,0,0,0-.27,1.38l-.21,1c-.14,1.24-.21,2.48-.28,3.72-.06.9-.2,1.79-.27,2.62-.07,1.1-.28,2.2-.28,3.31a14.24,14.24,0,0,0,.14,1.72,12.59,12.59,0,0,0,.48,2.68h0c.14.62.35,1.31.55,1.93s.42,1.45.69,2.21c.21.55.42,1.17.62,1.72s.28.89.42,1.31v-.07a.21.21,0,0,0,.07.13v0c0,.07.06.14.06.21v-.07c.14.42.28.76.42,1.17a6,6,0,0,0,.48,1c.21.27.34.62.55.89a20.87,20.87,0,0,0,1.65,1.86l-.07-.07.14.14-.07-.07.28.28h0l.14.13.07.07-.07-.07c.2.21.34.42.55.62l-.07-.06c.62.61,1.31,1.23,2,1.79a1.45,1.45,0,0,0,.41.27,4,4,0,0,0,.55.28c.14.07.34.13.48.2a10.86,10.86,0,0,0,2.07.42C182.59,199.81,182.86,199.81,183.21,199.81Z" transform="translate(-7.37 -23.54)"/><path d="M250.43,182.46h-4.27c-.9,0-1.79,0-2.69-.07s-2.07-.07-3.1-.14l-3.51-.21-3.1-.2h-.07c-.89,0-1.79,0-2.69-.07h.07c-2.48-.07-5-.21-7.5-.28h-5.86c-1.58,0-3.1.07-4.68.21h.21c-.9.07-1.8.2-2.69.27a13,13,0,0,1-1.65.07h-3.24c-.21,0-.41.07-.55.07H205c-.07,0-.14,0-.14.07a.54.54,0,0,1-.27.14.42.42,0,0,1-.42-.21.42.42,0,0,1,.07-.48,1.45,1.45,0,0,1,.69-.28l.41-.2h0a10.43,10.43,0,0,1,1.38-.55l.83-.21a3.79,3.79,0,0,0,.82-.28,5.86,5.86,0,0,1,1-.27,20.43,20.43,0,0,1,2.2-.42c.83-.13,1.59-.27,2.41-.34l2.69-.21c1.79-.06,3.58-.13,5.37-.06.62,0,1.24,0,1.86.06h-.21a38.28,38.28,0,0,1,4,.21l4.06.21h2.07c1.93.07,3.86.2,5.71.34s3.65.21,5.45.28h2.75c.69,0,1.31.07,2,.07a3.34,3.34,0,0,1,.82.13,2.31,2.31,0,0,1,1,.35h.07a1.69,1.69,0,0,1,.48.48,1.15,1.15,0,0,1-.28,1.31,1.11,1.11,0,0,1-.68.27h.13c-.07,0-.2.07-.27.07h-.28A.27.27,0,0,0,250.43,182.46Z" transform="translate(-7.37 -23.54)"/><path d="M166.61,175.91c-.14-.07-.28-.27-.21-.41v-.9h0c0-.07-.07-.13-.07-.2v-.07l-.07-.07a11,11,0,0,0-1.17-1.38l.07.07c-.34-.34-.69-.62-1-1l.07.07a6.93,6.93,0,0,1-1-.9c-.27-.34-.62-.62-.89-1a18.23,18.23,0,0,0-2.07-1.93c-.13-.07-.27-.21-.41-.28a.24.24,0,0,1-.14-.07,11.88,11.88,0,0,0-1.38-.48c.07,0,.14,0,.14.07-.55-.14-1.1-.21-1.65-.34h.07a3.06,3.06,0,0,0-.76-.07h-.69l-1.17.2-1.1.21a4.93,4.93,0,0,1-.48.14,2.53,2.53,0,0,0-.62.34h0a1.15,1.15,0,0,0-.48.35c-.14.07-.21.2-.35.34h0l-.27.28c0-.07.06-.07.06-.14l-.13.14a.89.89,0,0,1-1,.41h.07a1,1,0,0,1-.69-.55,1.41,1.41,0,0,1,0-1,4.18,4.18,0,0,1,.9-1,7.35,7.35,0,0,1,1.17-.76,5.2,5.2,0,0,1,1.72-.68,18.3,18.3,0,0,1,2.21-.55,8.68,8.68,0,0,1,1.92-.07,13,13,0,0,1,2.28.41,3.79,3.79,0,0,1,.48.21,2.39,2.39,0,0,1,.76.34,4.79,4.79,0,0,1,1,.69,8.93,8.93,0,0,1,.76.83c.21.27.41.48.62.75a5.91,5.91,0,0,1,.48.83c.21.34.48.69.69,1h0c.27.42.62.76.89,1.17.14.21.35.35.49.55a3.25,3.25,0,0,0,.41.56c.14.2.21.41.34.62a5.78,5.78,0,0,1,.42.68,4,4,0,0,1,.34,1c.07.14.07.27.14.41h0a3.33,3.33,0,0,1,.07.83v.07h0a.61.61,0,0,1-.07.34.38.38,0,0,1-.34.21A.48.48,0,0,0,166.61,175.91Z" transform="translate(-7.37 -23.54)"/><path d="M132.24,190.58a1.66,1.66,0,0,1-1.51-1c0-.07-.07-.07-.07-.14a4.75,4.75,0,0,1-.49-.83,1.86,1.86,0,0,0-.27-.55c-.14-.34-.28-.62-.41-1a5.63,5.63,0,0,1-.28-1c-.14-.55-.28-1-.41-1.59l-.42-1a10.16,10.16,0,0,1-.27-1.31c-.14-1-.21-1.93-.28-3v-2c0-.76.14-1.44.21-2.2h0v-4h0v-.07c0-.89.07-1.79.07-2.68v.14a24.45,24.45,0,0,1,.27-3.86v.07l.42-2.27a5.15,5.15,0,0,1,.34-1.11,6.12,6.12,0,0,0,.28-.69c.13-.27.27-.62.41-.89a9.7,9.7,0,0,1,.76-1,9.11,9.11,0,0,1,.82-.83,11.17,11.17,0,0,1,1.31-1.17l-.07.07a12.31,12.31,0,0,1,2.48-1.31c-.07,0-.07,0-.13.07a.24.24,0,0,0,.13-.07h-.07a.07.07,0,0,0,.07-.07h.07a.07.07,0,0,0,.07-.07c-.07,0-.07,0-.14.07s.14-.07.21-.07-.07,0-.14.07a10.55,10.55,0,0,1,1.59-.48,7.09,7.09,0,0,1,1.72-.07,11.73,11.73,0,0,1,3.44.55,6.91,6.91,0,0,1,1.93.9,4.57,4.57,0,0,1,1,1c.14.21.35.41.49.62l.75,1a9.16,9.16,0,0,1,1,1.45,21.45,21.45,0,0,0,1.44,2.13,1.46,1.46,0,0,0,.28.42c.07.2.21.34.27.55s.35.62.49,1a3.28,3.28,0,0,1,.27.69,3.68,3.68,0,0,1,.35.76,6.22,6.22,0,0,1,.41,1.58c.07,0,.14.07.21.14a.33.33,0,0,1,0,.55.35.35,0,0,1-.55,0h.06c-.06-.07-.2-.07-.27-.14s-.21-.34-.21-.55v-.2h0V167h0c0-.14-.07-.28-.07-.42s-.07-.27-.13-.41l-.42-.83h0v-.06h0a.07.07,0,0,0-.07-.07h0a2.59,2.59,0,0,0-.41-.49,4,4,0,0,1-.48-.68h0V164h0c-.07-.14-.21-.28-.28-.42h0v-.13h0c-.48-.62-1-1.24-1.51-1.86s-.83-1-1.24-1.52l.07.07a.07.07,0,0,0-.07-.07V160h0c-.55-.62-1.1-1.17-1.66-1.79l.07.07c-.13-.14-.34-.34-.48-.48s-.21-.14-.34-.21-.21-.14-.35-.2a8.3,8.3,0,0,0-1-.35,12.51,12.51,0,0,0-1.59-.34,5.76,5.76,0,0,0-1.1-.07h-1.17c-.14,0-.34.07-.48.07h-.07l-1.24.41a5.13,5.13,0,0,0-1.24.62,1.31,1.31,0,0,0-.48.34h0a.07.07,0,0,0-.07.07l.07-.07a2.57,2.57,0,0,0-.48.42l.07-.07-.21.21h0l-.9.89c-.2.28-.41.62-.62.9-.06.13-.13.2-.2.34h0a11.09,11.09,0,0,0-.55,1.52,15,15,0,0,0-.35,1.72v-.14a21.74,21.74,0,0,0-.2,2.27h0v5.31c0,1,.06,1.85.13,2.82,0,.41.07.83.07,1.24a5.81,5.81,0,0,1-.07,1.1h0v.07a23.06,23.06,0,0,0,.21,3.1v-.07a17.05,17.05,0,0,0,.28,1.86,2.5,2.5,0,0,1,.13.55c.14.21.21.48.35.69a5.91,5.91,0,0,1,.34,1c.21.55.35,1,.55,1.59a5.74,5.74,0,0,0,.62,1.24c.14.27.28.48.42.75-.07-.06-.07-.13-.14-.2a1.61,1.61,0,0,0,.27.41,1.78,1.78,0,0,1,.14,1.86,1.93,1.93,0,0,1-.62.69,1.39,1.39,0,0,1-1.17.41Z" transform="translate(-7.37 -23.54)"/><path class="cls-3" d="M142.5,175.64a.37.37,0,0,1-.07-.55c.49-.69.9-1.31,1.38-2s.83-1.1,1.24-1.72a1.23,1.23,0,0,1,.28-.35c.13-.2.34-.41.48-.62s.34-.41.48-.62l.83-1c.07-.14.2-.21.27-.34s.35-.35.49-.56a.37.37,0,0,1,.55,0,.38.38,0,0,1,0,.56c-.28.34-.62.62-.9,1s-.55.69-.89,1.1h0c-.35.41-.62.83-1,1.17s-.62.83-.89,1.17a9.15,9.15,0,0,0-.76,1.11,17.31,17.31,0,0,0-1,1.44c-.07.14-.2.14-.34.14C142.71,175.71,142.57,175.71,142.5,175.64Z" transform="translate(-7.37 -23.54)"/><path class="cls-3" d="M132.72,187.48a2.9,2.9,0,0,1-.2-1c0-.28-.07-.55-.07-.83s-.07-.75-.07-1.17-.07-.62-.14-1v.21c-.21-1.59-.55-3.17-.76-4.76a21.46,21.46,0,0,1-.07-2.89c0-.69.07-1.45.14-2.13.07-1.45.28-2.83.35-4.28a16.24,16.24,0,0,1,1.17-4.68,7.09,7.09,0,0,1,.75-1.44,17.11,17.11,0,0,1,1.38-1.66,5.72,5.72,0,0,1,1.38-1.1,7.3,7.3,0,0,1,1.86-.76,2.76,2.76,0,0,1,1-.07,5,5,0,0,1,1.24.55,4.53,4.53,0,0,1,1.17.83,10.23,10.23,0,0,1,1.24,1.31l.83,1c-.28-.62-.55-1.24-.83-1.79s-.55-.89-.89-1.38-.76-.89-1.1-1.3c0,0,0,.07.06.07l-.27-.28c-.07-.07-.14-.07-.21-.14a2,2,0,0,0-.69-.34h0c-.07,0-.13-.07-.2-.07h-.42c-.82,0-1.65,0-2.41.07a.39.39,0,0,0-.27.07c-.14,0-.21.07-.28.07a7.06,7.06,0,0,0-1.1.55.07.07,0,0,0,.07-.07c-.14.07-.21.14-.35.2a3.8,3.8,0,0,0-.75.69c-.07.07-.07.14-.14.14h0c-.07.07-.14.21-.21.28a3.41,3.41,0,0,0-.27.55c-.07.27-.21.48-.28.75h0v0a6.61,6.61,0,0,0-.27,1.31.72.72,0,0,1-.69.55.69.69,0,0,1-.62-.75,7.6,7.6,0,0,1,1.17-3.65c.2-.28.48-.49.69-.76s.34-.28.48-.41a17.14,17.14,0,0,1,1.51-.9,4.87,4.87,0,0,1,1.66-.41,10,10,0,0,1,1.44-.14h.14c.21,0,.48-.07.69-.07a5.21,5.21,0,0,1,1,.14,5.47,5.47,0,0,1,1.11.55,8.41,8.41,0,0,1,1.44,1.31,11.17,11.17,0,0,1,1.1,1.44c.35.56.55,1.11.83,1.66a26.42,26.42,0,0,1,1,2.55,11.76,11.76,0,0,1,.35,1.51c.07.55.14,1.24-.41,1.58a.83.83,0,0,1-1,0,1.77,1.77,0,0,1-.48-.34,24.59,24.59,0,0,1-3.24-3.37l.07.06-.07-.06h0c-.2-.14-.34-.35-.55-.49h0c-.14-.13-.27-.2-.41-.34l-.42-.21-.41-.2c.07,0,.07.06.14.06-.14-.06-.21-.06-.35-.13-.27.13-.48.2-.75.34-.07.07-.21.14-.28.21a.07.07,0,0,0,.07-.07c-.14.07-.21.14-.34.21s-.14.2-.28.27v-.07a.07.07,0,0,1-.07.07l-.07.07.07-.07a9.69,9.69,0,0,0-1,1.38h0l-.21.41c-.07.21-.14.35-.21.55-.13.48-.27,1-.41,1.45l-.41,2c-.07.62-.07,1.24-.14,1.86l-.21,2.27c-.07.69-.13,1.38-.2,2.06s-.14,1.59-.21,2.42v.06c0,1.45.14,2.83.28,4.27,0,.42.06.83.06,1.24a5,5,0,0,1,.28-.48,13,13,0,0,1,.76-1.24c.34-.55.69-1.1,1-1.58s.76-.9,1.1-1.31c1.72-2.14,3.86-3.93,5.58-6h0c.83-1.1,1.65-2.21,2.55-3.31l1-1.44c.28-.42.62-.76.9-1.11,0-.07.07-.13.2-.2h.07c.28-.14.62.2.55.48a.46.46,0,0,1-.13.27c-.14.14-.28.35-.42.49h0c-.68.82-1.3,1.72-2,2.54a27.3,27.3,0,0,0-2.14,2.83h0c-.21.34-.34.62-.55,1a5.17,5.17,0,0,1-.76,1h0a11.67,11.67,0,0,0-.89,1.17,9.57,9.57,0,0,1-.69,1l-1.45,2.07c0-.07.07-.07.07-.14s-.07.14-.14.21h0c-.27.48-.62,1-.89,1.51-.55,1-1,1.93-1.59,2.9-.27.55-.55,1.1-.89,1.65s-.55.76-.83,1.17-.48.55-.69.83a1.39,1.39,0,0,1-1.1.82h-.2C133.55,188.38,133,188,132.72,187.48Z" transform="translate(-7.37 -23.54)"/><path class="cls-3" d="M136.37,184.66a1.33,1.33,0,0,1-1.17-1,1.43,1.43,0,0,1-.07-.76l.21-.62c0-.14.07-.21.07-.35l-.14.14h0a1.33,1.33,0,0,1-2.2-.34,1.77,1.77,0,0,1-.07-1c-.14-.27-.21-.55-.35-.89s-.13-.76-.2-1.1c-.14-.76-.28-1.45-.42-2.21s-.2-1.58-.27-2.34-.14-1.58-.14-2.41a51,51,0,0,1,.07-6.54,12.69,12.69,0,0,1,1.45-5.24,3.47,3.47,0,0,1,.68-.75,1.39,1.39,0,0,1,.9-.42,1.67,1.67,0,0,1,.83,0,.07.07,0,0,0,.07-.07,4.72,4.72,0,0,1,1.3-.62,5.52,5.52,0,0,1,1.45-.13,3.13,3.13,0,0,1,1.38.34,10.24,10.24,0,0,1,1.24.55,4.32,4.32,0,0,1,.89.69,3.05,3.05,0,0,1,.62,1,3.43,3.43,0,0,1,.14.83,2.42,2.42,0,0,1,.76.21,1.72,1.72,0,0,1,.82,1,1.54,1.54,0,0,1,1.31,1.1,4.29,4.29,0,0,1-.13,2.07,1.12,1.12,0,0,1,.48-.07,1.15,1.15,0,0,1,1,0,1.45,1.45,0,0,1,.9,1.1,1.86,1.86,0,0,1-.35,1.24c-.2.34-.41.69-.69,1.1a14.5,14.5,0,0,1-1.17,1.79c-.48.69-1,1.45-1.44,2.14L142.64,175l.14-.14c-.21.21-.35.48-.55.69l.14-.14c-.07.14-.21.28-.28.41.07-.07.07-.13.14-.13a2.07,2.07,0,0,1-.35.41L142,176c-.14.21-.27.35-.41.55h0a17.44,17.44,0,0,0-1,1.45,11.4,11.4,0,0,1-1.24,1.58c-.07.14-.2.21-.34.35-.14.48-.21.89-.34,1.37a14.12,14.12,0,0,1-1,2.83,1.51,1.51,0,0,1-1.24.76C136.44,184.66,136.37,184.66,136.37,184.66ZM133.82,167c.07-.14.07-.28.14-.41.07-.69.14-1.38.21-2.14,0-.21.07-.48.07-.69a4,4,0,0,0-.14.9A9.22,9.22,0,0,0,133.82,167Z" transform="translate(-7.37 -23.54)"/><path class="cls-3" d="M201.6,177.7a22.76,22.76,0,0,1,.2,3,13.12,13.12,0,0,1-.14,1.66c-.13.76-.34,1.51-.55,2.27l-.2.62c-.14.34-.35.69-.48,1l-.42,1.24c-.14.35-.27.76-.41,1.11-.28.55-.55,1.17-.9,1.72-.13.27-.34.48-.48.75-.55.62-1.1,1.24-1.65,1.8a46.06,46.06,0,0,1-4.34,3.58c-.28.2-.55.34-.83.55-.69.34-1.37.69-2.13,1l-2.48,1.24c-.28.07-.62.21-.9.28a11,11,0,0,1-1.51.27c-.42,0-.9.07-1.31.07s-.62-.07-1-.07c-.68-.07-1.37-.27-2.06-.41a2.83,2.83,0,0,1-.48-.21,2.16,2.16,0,0,1-.55-.27c-.14-.07-.28-.21-.42-.28a23.37,23.37,0,0,1-1.93-1.79c-.13-.21-.34-.34-.48-.55h0l-.07-.07-.27-.28c-.55-.62-1.17-1.24-1.66-1.86-.2-.27-.34-.61-.55-.89a7.92,7.92,0,0,1-.48-1c-.14-.35-.27-.76-.41-1.11,0-.06-.07-.13-.07-.2v-.14c-.14-.41-.28-.9-.41-1.31s-.35-1.17-.62-1.72-.42-1.45-.69-2.2a17.46,17.46,0,0,1-.55-1.93h0c-.21-.9-.35-1.79-.49-2.69a16.59,16.59,0,0,1-.13-1.72c.07-1.1.2-2.2.27-3.31.07-.89.21-1.79.28-2.61a35.79,35.79,0,0,1,.27-3.72l.21-1c.07-.48.21-1,.28-1.37a3.09,3.09,0,0,1,.2-.55,8.71,8.71,0,0,1,.55-1,6.7,6.7,0,0,1,.76-1.1,18.4,18.4,0,0,1,1.58-1.72,5.17,5.17,0,0,1,1-.76h0l1.24-.83a.91.91,0,0,0,1.1.14c1.1-.48,2.2-1,3.38-1.51.06,0,.2-.07.27-.07a.42.42,0,0,0,.28-.07h.13a6.3,6.3,0,0,0,1.11-.07c.34,0,.62-.07,1-.07a3.33,3.33,0,0,1,.83.07c.2.07.48.07.69.14a25.25,25.25,0,0,1,2.41.82,28.33,28.33,0,0,1,3.16,1.11,20.17,20.17,0,0,1,2.21,1.17c.41.2.76.48,1.17.69h0a12.46,12.46,0,0,1,1.65,1.1,13,13,0,0,1,1,1A13.34,13.34,0,0,1,198,167a9.6,9.6,0,0,1,.89,1.38c.21.41.41.89.62,1.3s.34.69.48,1a21.46,21.46,0,0,1,.83,3A17.45,17.45,0,0,1,201.6,177.7Z" transform="translate(-7.37 -23.54)"/></g></svg>