<svg id="Calque_1" data-name="Calque 1" xmlns="http://www.w3.org/2000/svg" viewBox="0 0 318.78 119.16"><defs><style>.cls-1{fill:#66a8d3;}.cls-2{fill:#0016ff;}.cls-3{fill:#ff00b5;}.cls-4{fill:#ff0014;}</style></defs><g id="Calque_vectoriel" data-name="Calque vectoriel"><path class="cls-1" d="M245.66,75.35a3.51,3.51,0,0,1-.89.14l-.73,0-1.3,0c-.4,0-.79,0-1.19,0l-.49,0-.12,0a.18.18,0,0,1-.1,0,.74.74,0,0,1-.21,0,.23.23,0,0,1-.16-.06h.26c1.81-.08,3.6-.34,5.4-.4h.35l0,0a.92.92,0,0,1-.29.16Z" transform="translate(-101.35 -3)"/><path class="cls-1" d="M243.11,57.4l-.1.06Z" transform="translate(-101.35 -3)"/><path class="cls-2" d="M388.22,70a2.63,2.63,0,0,1-.49.07l-.45.06h0c-.52.1-1,.18-1.54.3l-.93.22-.41.11a6.06,6.06,0,0,1-.61.16c-.34.1-.65.2-1,.32l-.79.27c-.25.1-.51.18-.79.3s-.61.26-.92.37l-.89.42-.73.35c-.57.28-1.14.58-1.7.87-.33.18-.69.34-1,.51l-.71.34a7.83,7.83,0,0,1-.73.33l-1.12.48c-.56.23-1.11.43-1.68.65l-.59.22c-.36.11-.73.25-1.09.37s-.61.2-.9.28l-.77.23c-.57.16-1.15.34-1.74.48-1.24.33-2.48.65-3.73,1s-2.64.63-4,.93-2.4.49-3.61.73l-1.65.29c-.6.1-1.21.22-1.8.28l-1.52.2c-.37,0-.75.1-1.12.16-.65.09-1.28.21-1.93.35s-1.4.3-2.09.45-1.42.3-2.11.48-1.34.33-2,.53l-1.72.53-1.81.61c-1.17.42-2.35.81-3.51,1.21s-2.25.73-3.38,1.12-2.5.89-3.74,1.34-2.25.77-3.37,1.18l-4,1.42-1.6.54c-.57.19-1.16.37-1.75.55-1.24.41-2.49.83-3.73,1.26s-2.4.81-3.61,1.2-2.38.69-3.57,1.09-2.38.81-3.56,1.22c-.62.22-1.23.43-1.84.67-.27.12-.57.22-.85.34l-1,.43c-1.07.47-2.11,1-3.16,1.42s-2.21,1-3.29,1.5c-.61.29-1.22.57-1.81.87s-1.11.53-1.66.77-1.12.49-1.68.72l-1.73.71-1.6.66-1.75.71-1.72.67-.93.31-.84.3L276,107l-1.71.59-1.64.55c-.65.2-1.3.42-1.95.61l-1.87.59-2,.65q-1.8.63-3.6,1.23t-3.48,1.08l-1.65.53-1.84.6-1.73.53-2,.59c-1.15.34-2.29.71-3.43,1.06-.61.2-1.23.4-1.84.58l-1.83.53-3.43.91c-1.18.29-2.37.63-3.55.94s-2.39.65-3.57,1l.08,0c-.65.2-1.32.39-2,.61l-1,.36c-.33.11-.65.25-1,.39h0c-.41.18-.82.35-1.24.55s-.75.34-1.12.49a1.66,1.66,0,0,1-.42.12l-.31,0-.28,0h-.21a1,1,0,0,1-.22-.08,1.07,1.07,0,0,1-.34-.25l-.13-.18a3,3,0,0,1-.18-.36,3.37,3.37,0,0,1-.16-1.08,7.26,7.26,0,0,1,.06-1.14c0-.5.08-1,.12-1.46,0-.24,0-.5,0-.73s0-.5,0-.75,0-.4,0-.57,0-.18,0-.26l-.06-.47c0-.22-.06-.46-.1-.67s-.08-.5-.1-.75-.1-.75-.14-1.15c0-.23,0-.47-.08-.71s-.05-.49-.09-.75l-.18-1a1.69,1.69,0,0,0-.08-.34c-.06-.17-.1-.37-.16-.55-.2-.61-.37-1.22-.57-1.85s-.3-1.07-.45-1.6h0c-.06-.2-.12-.39-.16-.59,0,0,0,0-.06,0-.18-.1-.36-.18-.53-.26a7,7,0,0,0-.71-.21l-.65-.18-1-.24-.85-.16-1.95-.31c-1.08-.18-2.19-.32-3.27-.49l-2.23-.38-.57-.12-1.3-.25-.73-.14c-.26-.06-.5-.12-.75-.16-.57-.14-1.15-.26-1.72-.39l-2.13-.54c-.59-.13-1.16-.31-1.75-.47l-1.74-.51-1.79-.57c-1.09-.36-2.15-.71-3.24-1l-1.81-.53c-.59-.18-1.18-.32-1.78-.48-.45-.09-.9-.21-1.36-.31s-1.06-.22-1.59-.34a5.38,5.38,0,0,1-.63-.13l-.91-.22c-.51-.12-1-.26-1.54-.41-.93-.26-1.83-.52-2.76-.75-1.08-.3-2.17-.62-3.25-.91-2.05-.59-4.11-1.11-6.18-1.62l-6-1.54c-.49-.11-1-.25-1.52-.35l-1.75-.4c-1.09-.23-2.15-.47-3.24-.69s-2.44-.47-3.68-.73-2.21-.47-3.32-.71-2.11-.45-3.15-.71l-1.5-.33c-.55-.12-1.12-.2-1.68-.3-1.1-.19-2.23-.35-3.35-.49s-2.37-.31-3.55-.45c-.51-.06-1-.1-1.54-.14-.27,0-.55,0-.82,0l-.62.06a3.19,3.19,0,0,1-.61,0l-.25-.06a.64.64,0,0,1-.42-.34.81.81,0,0,1,0-.61l.3-1.12c0-.14.06-.28.1-.43l.06-.22c0-.26.09-.49.13-.73s.1-.59.14-.89c.08-.47.14-.94.18-1.42s.08-1.08.1-1.63a1.14,1.14,0,0,1,0-.26,1.43,1.43,0,0,1,.12-.43l.17-.52.3-.77a.63.63,0,0,1,.35-.33.88.88,0,0,1,.32,0l.34,0,.35,0c.39,0,.77.08,1.16.1s.46,0,.69,0l.81,0,.73,0c.26,0,.51,0,.77,0,.51,0,1.05-.06,1.56-.08l.77,0,1-.06.91-.08c.24,0,.47,0,.73-.08l.91-.08.88-.06c.56,0,1.09-.06,1.64-.08s1.11,0,1.68-.08,1-.07,1.57-.09l1.68-.06c.59,0,1.16-.1,1.76-.16l.75-.08.82-.1c.63-.06,1.27-.1,1.9-.14l.92-.06h.77c.55,0,1.13,0,1.68,0,1.3,0,2.6,0,3.9-.08l3.93-.12,3.72-.1,3.89-.08c1.22,0,2.44,0,3.67,0s2.52.16,3.78.26,2.29.12,3.45.15c1.32,0,2.63.1,3.95.18.53,0,1,.08,1.57.1l1.09.06,1,0c1.5,0,3,0,4.5,0l5.48-.14,5.62-.1c1.13,0,2.25-.06,3.35-.1s2.11,0,3.16,0l1.56,0,1.56.06,1.83.06h0a17.09,17.09,0,0,0,4.28.42h2.19l2.24,0,2.17.17c1,.08,2,.16,3.08.16.3,0,.57,0,.87,0s.63,0,.94,0,.63,0,1,0l.45,0,.32.06.31.12s.06,0,.08,0a3.05,3.05,0,0,1,.32.22,3.2,3.2,0,0,1,.53.57c.18.25.36.49.53.75l1.31,1.83.29.39c.12.16.26.3.38.46s.41.47.63.71.47.55.69.83.53.69.83,1,.51.61.78.93.5.55.75.83.54.61.81.9.59.61.89.91l1.54,1.42c.55.49,1.14,1,1.71,1.38s1.3.91,2,1.34h0c.57.26,1.12.51,1.71.75l.06,0c.22.12.41.24.63.34a20.92,20.92,0,0,0,2.39,1,16.25,16.25,0,0,0,2.56.73c.45.08.91.16,1.36.2l1.34.1a18.42,18.42,0,0,0,2.78,0,11,11,0,0,0,1.95-.32c.4-.12.77-.24,1.15-.39a6.46,6.46,0,0,0,1-.5c.18-.09.34-.21.52-.31l.13-.06c.24-.08.48-.18.71-.28s.5-.21.75-.33a11.08,11.08,0,0,0,2-1.26,11.79,11.79,0,0,0,1.75-1.78c.18-.25.38-.49.55-.75.46-.61.87-1.24,1.28-1.89a0,0,0,0,1,0,0c.42-.49.83-1,1.23-1.48a16.79,16.79,0,0,0,1.2-1.7,19.3,19.3,0,0,0,1.1-2,1.14,1.14,0,0,0-.09-1.06c.27-.42.55-.85.82-1.3a2.14,2.14,0,0,0,.2-.44c.57-.37,1.12-.77,1.68-1.2.37-.32.75-.63,1.14-1l1.07-.8c.47-.38.9-.77,1.34-1.17.13-.14.29-.25.43-.39s.2-.18.32-.26c.43-.06.88-.14,1.32-.24a6,6,0,0,0,.61-.13.79.79,0,0,0,0,.09c.17-.07.35-.15.53-.21l.1,0a13.13,13.13,0,0,0,1.48-.26,20.46,20.46,0,0,0,3.07-1c.28-.1.58-.18.85-.28l1.34-.47.48-.08,1.47-.22c.93-.14,1.88-.24,2.8-.35s1.88-.26,2.82-.4c2-.27,4-.55,6-.79l2.78-.31c1-.1,1.93-.18,2.9-.24l6-.41,5.8-.44,2.9-.17c1-.06,2-.14,2.94-.22l2.7-.26c1-.1,2-.19,3-.27s2-.18,3.07-.28,1.92-.22,2.86-.33,1.89-.28,2.84-.42L359.1,65c1.18-.2,2.37-.42,3.55-.61l.67-.24c.39-.14.79-.24,1.18-.36l1.56-.47a2.33,2.33,0,0,1,.36-.08c.31-.06.61-.14.92-.19l1.88-.4a9,9,0,0,1,1-.16l1.76-.23,2.17-.3,1.61-.26,1.36-.23,1.4-.24c.22,0,.44-.08.65-.1s.56-.08.85-.1.89-.09,1.32-.13,1.05-.1,1.56-.16l1.24-.14c.54-.06,1.07-.12,1.6-.16.28,0,.55,0,.83,0h.57a2,2,0,0,1,.49.06.7.7,0,0,1,.28.12.65.65,0,0,1,.28.39.74.74,0,0,1-.14.56.69.69,0,0,1-.32.21s-.08,0-.1,0v.08a.07.07,0,0,1,0,.06,1.51,1.51,0,0,1,.18.36,3.71,3.71,0,0,1,.16.47,3.48,3.48,0,0,1,.1.41c.1.42.17.85.25,1.29,0,.21.06.43.1.65s0,.49.06.75c0,.49,0,1,.06,1.45,0,.77,0,1.52.1,2.29,0,.08,0,.16,0,.22a.36.36,0,0,1-.12.18.42.42,0,0,1-.12.08C388.32,69.93,388.26,70,388.22,70Z" transform="translate(-101.35 -3)"/><path class="cls-2" d="M273.85,98.46a.34.34,0,0,1-.11-.39c.11-.2.21-.4.33-.6l.24-.37c.08-.1.14-.22.21-.32s.26-.33.4-.49l.18-.22.35-.39c.16-.16.3-.32.45-.49l-.72.51-.48.33a6.41,6.41,0,0,1-.61.4.62.62,0,0,1-.69-.08.67.67,0,0,1-.2-.34,1.42,1.42,0,0,1-.23.14.62.62,0,0,1-.73-.23.63.63,0,0,1,.1-.83l1-.83c.26-.22.51-.43.77-.63,0,0,0,0-.06,0l.18-.14a9,9,0,0,0,1-.22,11.79,11.79,0,0,0,1.14-.39,7.47,7.47,0,0,0,1-.49c.18-.1.34-.22.52-.32a.37.37,0,0,1,.14,0c.23-.08.47-.18.71-.28a8,8,0,0,0,.74-.33,11.08,11.08,0,0,0,2-1.26,14.4,14.4,0,0,0,1.38-1.32.87.87,0,0,1,0,.1v0a1,1,0,0,1,0,.24.65.65,0,0,1-.08.28,2.8,2.8,0,0,1-.3.49,10,10,0,0,1-.87.85.44.44,0,0,0-.08.1c-.31.31-.61.63-.9.94s-.59.63-.91.95h0l0,0,0,0c-.49.51-1,1-1.5,1.54l0,0,0,0c-.19.21-.41.43-.63.65s-.41.43-.63.65l-.51.53-.53.55c-.24.24-.46.5-.69.73s-.28.28-.42.4l-.53.47-.08.06A.35.35,0,0,1,273.85,98.46Z" transform="translate(-101.35 -3)"/><path class="cls-2" d="M333.43,69.26c-2.15.15-4.28.27-6.43.41-1.78.12-3.55.28-5.33.39-.94.06-1.87.12-2.82.2s-1.77.16-2.66.22c-.45,0-.91.06-1.36.1s-.89.06-1.34.08l-1.34.09c-.45,0-.91.08-1.36.1l-1.38.08c-.46,0-.91,0-1.36.08-.93.08-1.86.16-2.78.28l-1.25.15h0a.07.07,0,0,0-.06,0h0c-.31.06-.63.1-.92.18s-.65.16-1,.24h0c-.39.12-.77.22-1.16.31l-1.26.3-1.26.32c-.44.09-.89.17-1.31.29l-.1,0a.21.21,0,0,1-.11,0l-.34.16a.42.42,0,0,0-.12.08s0,0,0,0,0,0,0,0v0h0v0c.08.06,0,.22-.11.18a.16.16,0,0,1-.08-.08c0-.08,0-.15,0-.23h0a1.33,1.33,0,0,1,.19-.42s0,0,0,0l.42-.08a12.13,12.13,0,0,0,1.3-.29,13.13,13.13,0,0,0,1.48-.26,20.46,20.46,0,0,0,3.07-1c.28-.1.58-.18.85-.28.75-.26,1.52-.53,2.27-.83.85-.06,1.7-.14,2.56-.17s1.82-.06,2.72-.14,1.86-.14,2.77-.22l2.74-.2c.9-.06,1.79-.15,2.7-.23s1.75-.12,2.62-.18l2-.12c.26,0,.51,0,.75,0l.67,0,.34,0h0l.65,0h-.06l.65,0h0c.51,0,1,0,1.58,0h1.26c1,0,2.09,0,3.13.06l.57,0a.2.2,0,0,1,.2.2.22.22,0,0,1-.14.22C333.46,69.24,333.45,69.26,333.43,69.26Z" transform="translate(-101.35 -3)"/><path class="cls-2" d="M326.88,68.76Z" transform="translate(-101.35 -3)"/><path class="cls-2" d="M326.88,68.76Z" transform="translate(-101.35 -3)"/><path class="cls-2" d="M304,71.44Z" transform="translate(-101.35 -3)"/><path d="M418.63,63.85a4.26,4.26,0,0,1-.49.1l-.34.06-.69.1c-.45.06-.92.12-1.38.16-.9.08-1.83.14-2.74.17-1.83.1-3.69.14-5.52.26h0l-.49,0-.58,0h0l-.69.06h0l.53.14a6.44,6.44,0,0,1,1.71.73,5.44,5.44,0,0,1,.89.71,5.21,5.21,0,0,1,.47.47.54.54,0,0,1,.16.33.43.43,0,0,1-.33.4,1.72,1.72,0,0,1-.32,0l-.35,0-.75.06c-.44,0-.89.06-1.34.08s-.89.06-1.35.1c-.9,0-1.79.07-2.7.13l-.31,0c-.87.08-1.74.2-2.61.3l-2.7.31-1.73.2c-.55.08-1.13.14-1.68.18h.08l-.28,0-1.1.12h.08l-.69.06-.57.08-.32.05a.34.34,0,0,1-.14,0,.6.6,0,0,1-.41-.06.64.64,0,0,1-.26-.84.77.77,0,0,1,.32-.3l.2-.06h0l.67-.12a7.58,7.58,0,0,1,1.06-.09h0L393,67.8h-.08l.33,0h-.08c.89-.08,1.78-.22,2.69-.32s1.81-.22,2.72-.31l1.34-.16c.43,0,.87-.12,1.3-.16s.95-.1,1.42-.12l1.42-.06c.41,0,.83,0,1.26,0s.79,0,1.18,0,.79,0,1.19.06a5,5,0,0,0-.69-.35c-.38-.16-.75-.3-1.13-.42l-.92-.25a6.41,6.41,0,0,1-1.33-.42.7.7,0,0,1-.41-.69.87.87,0,0,1,.3-.53,2.23,2.23,0,0,1,.88-.35h0l.26-.06-.08,0,.49-.1a5.7,5.7,0,0,1,.58-.06h0l.67-.06h0a3.31,3.31,0,0,1,.45,0l.51,0,.71,0,.57,0,1.38-.06,3-.1,1.54-.06c-.41-.07-.85-.15-1.26-.25h.06l-.73-.14-.63-.12h0a.07.07,0,0,1,.06,0l-.1,0a.07.07,0,0,1-.06,0l-.2,0h0l-.35-.06h0l-.16,0h0l-.1,0h-.06a.07.07,0,0,1-.06,0,.07.07,0,0,1,.06,0l-.12,0h-.06l-.86-.13h0l-.79-.14h.06a3.39,3.39,0,0,1-.79-.2.5.5,0,0,1-.36-.57.54.54,0,0,1,.2-.3.76.76,0,0,1,.3-.1,1.93,1.93,0,0,1,.33,0h0l1.54-.12h0l.39,0h-.06a1.94,1.94,0,0,1,.34,0h0l.24,0h-.06l.81-.08c.23,0,.47,0,.71,0l1.34,0h2.64c-.46-.12-.91-.22-1.38-.32L414.19,60l-.61-.12-.35-.08h0l-.57-.1h0l-.65-.12h0c-.35,0-.72-.09-1.08-.17h0a.12.12,0,0,1-.08,0h0l-.59-.1h0l-.45-.08a3.1,3.1,0,0,1-.42-.08h0a4.06,4.06,0,0,0-.69-.08h0l-.16,0a.44.44,0,0,1-.31,0,.48.48,0,0,1-.24-.33.45.45,0,0,1,.1-.36.79.79,0,0,1,.28-.21A3.09,3.09,0,0,1,409,58l.53-.12h0c.83-.18,1.66-.34,2.49-.47l1.45-.24c.44-.08.87-.16,1.31-.22l.57-.12a3.85,3.85,0,0,1,.47-.08c.4-.07.79-.15,1.18-.19l1.25-.18c.37-.06.77-.08,1.14-.16l-.1,0c-.69-.1-1.4-.12-2.11-.16H415c-.29,0-.59,0-.88,0h.07l-1.16.1h.08c-.24,0-.45,0-.69.08l-.53.06-1.36.18-2.76.39c-1.9.3-3.79.59-5.68.93s-3.59.67-5.39,1c-.92.15-1.83.31-2.76.49l-2.56.47-.67.12A3.61,3.61,0,0,1,390,60a.09.09,0,0,1-.1.06c-.1,0-.22,0-.22-.14s.24-.32.38-.39.43-.2.65-.3c.43-.18.87-.32,1.3-.47l1.38-.4.53-.12.75-.17,1.26-.26c.22,0,.42-.08.64-.14l.8-.16c.48-.09.93-.19,1.4-.27.91-.2,1.84-.38,2.74-.53,1.74-.34,3.48-.62,5.21-.89s3.71-.57,5.56-.77c.59-.06,1.18-.12,1.76-.16H414l.77,0a5.8,5.8,0,0,1,.59,0,8.17,8.17,0,0,1,1.4.1l.43.06.36.08a2.3,2.3,0,0,1,.35.1l.38.12a4.63,4.63,0,0,1,1.16.57,1.31,1.31,0,0,1,.37.33.19.19,0,0,1,.06.22.37.37,0,0,1-.17.16,1.63,1.63,0,0,1-.38.17c-.51.22-1,.42-1.6.6h0l-.53.17h0l0,0s0,0,0,0c-.2.08-.37.14-.57.2l-.69.2-.81.2-.65.13-.57.12-.87.14-1.2.18-.91.14h-.14l.28,0c.55.06,1.1.14,1.66.22l.73.1.57.08.39.06h-.06l.79.12.55.08c.52.07,1,.17,1.56.27s.89.18,1.34.28l.3.08.37.11a2,2,0,0,1,.63.34.7.7,0,0,1,.22.35.53.53,0,0,1-.32.56,1.18,1.18,0,0,1-.39.1l-.41,0a3.24,3.24,0,0,1-.44,0l-1.28.06c-.89,0-1.77.06-2.68.06s-1.76,0-2.64,0l1.38.22h0a.12.12,0,0,1,.08,0h-.06l.23,0,.26,0h-.06l.22,0h0l.37.06h-.06l.3.06h-.06l.22,0h-.06l.12,0h0l1.06.16h0l.85.12c.2,0,.39.06.59.1h0l.43.08a.06.06,0,0,1-.05,0,4.4,4.4,0,0,1,.47.1l.2.06a.79.79,0,0,1,.43.23.48.48,0,0,1-.2.73C418.67,63.85,418.65,63.85,418.63,63.85Z" transform="translate(-101.35 -3)"/><path d="M135.8,86.39l-1-.06-1.35-.06c-.41,0-.84-.06-1.26-.11s-1-.14-1.44-.22L129,85.62l-1.87-.33a.07.07,0,0,1-.06,0h.08l-1-.18a3.85,3.85,0,0,1-.49-.08l-.54-.08-1-.12c-.36,0-.71-.07-1.09-.09l-1.1-.06c-.28,0-.55,0-.81,0h-.67c-.49,0-1,0-1.5.06-.33,0-.65.06-1,.07l-2.07.22c-.77.08-1.54.18-2.31.24h0a.39.39,0,0,0-.14,0h-.06l-.2,0h0l-.37,0h.08l-.2,0h.08a.25.25,0,0,0-.12,0h0a.5.5,0,0,0-.16,0h0a2.06,2.06,0,0,1-.35,0l-.48,0c-.31,0-.65,0-1,0a4,4,0,0,1-.83-.12,1.18,1.18,0,0,1-.73-.56.81.81,0,0,1,.08-.82,1.92,1.92,0,0,1,.55-.48c.2-.11.42-.23.63-.33l.38-.18a.6.6,0,0,1,.2-.08l.09,0a5.69,5.69,0,0,1,.69-.25c.77-.28,1.54-.54,2.31-.77h-.91c-.47,0-.94,0-1.42,0l-1.32,0c-.41,0-.83,0-1.24,0s-.89,0-1.34,0l-1-.06c-.33,0-.69-.06-1-.1a10.21,10.21,0,0,1-1.89-.38,2.14,2.14,0,0,1-.81-.41.87.87,0,0,1-.24-.81,1.11,1.11,0,0,1,.47-.63,2.49,2.49,0,0,1,.4-.2,3.52,3.52,0,0,1,.51-.19,5.43,5.43,0,0,1,.61-.18l.73-.18c.24,0,.45-.08.69-.14l.32,0a2.09,2.09,0,0,1,.35,0c.26,0,.51-.06.77-.08l1.4-.09c.22,0,.42,0,.63,0h.28l-1.84-.14c-.49,0-1-.1-1.47-.16l-1.44-.18a12,12,0,0,1-3-.73,2.68,2.68,0,0,1-.69-.37.78.78,0,0,1-.32-.57.61.61,0,0,1,.32-.5,2.21,2.21,0,0,1,.55-.23,9.48,9.48,0,0,1,3.35-.34l2.7.06c.46,0,.91,0,1.36.06.2,0,.4,0,.6,0s.53,0,.78.08l1.35.14a6.67,6.67,0,0,0,.67.06c.25,0,.53,0,.78.06h.3l-.47-.14h0l-1.25-.34L111,74.8l-.8-.22-.58-.18-.63-.19c-.25-.1-.51-.18-.79-.28-.47-.16-.94-.36-1.4-.57a6.67,6.67,0,0,1-1-.59,1.14,1.14,0,0,1-.32-.3.27.27,0,0,1-.08-.24c0-.1.08-.15.16-.19a.93.93,0,0,1,.47,0l.48.06c.31,0,.63.07.94.13h0l.71.12h0c.29,0,.57.08.86.14h0l2.19.3c.4,0,.77.07,1.17.13l.65.1a5.24,5.24,0,0,1,.53.08h0l1.12.2h0c.38.06.75.16,1.15.24l1.1.23,1.28.3c.32.08.63.16,1,.23l-.38-.25c-.27-.2-.55-.36-.82-.55,0,0,0,0,0,0-.75-.46-1.52-.91-2.27-1.35l-1.18-.69c-.42-.23-.81-.45-1.21-.69a2.59,2.59,0,0,1-.33-.19h0c-.24-.16-.48-.3-.71-.46a5.41,5.41,0,0,1-.65-.51,1.59,1.59,0,0,1-.42-.61.49.49,0,0,1,0-.24s0-.1,0-.14l.1-.11a2,2,0,0,1,.41-.26,3.63,3.63,0,0,1,1-.26,5.33,5.33,0,0,1,1.38.06l.69.12.63.12c.28.06.53.14.81.22,0,0,0,0,0,0h0c.87.25,1.71.53,2.58.82s1.76.6,2.64.87l2.65.89c.88.32,1.77.63,2.66.93l1,.33c.39.14.8.26,1.2.4s.91.27,1.36.43h0c.37.12.75.24,1.12.33h0a.7.7,0,0,1,.14,0s0,0,0,0l.81.26c.22.06.41.14.63.22.53.18,1.07.37,1.6.57.16,0,.31.1.49.14a3.2,3.2,0,0,0,.42.1c.31.08.61.12.92.17h0c.67.1,1.34.2,2,.32l.52.1.8.16c.12,0,.38.09.34.27s-.12.1-.2.12-.14-.1-.1-.16l-.11,0h0a2.83,2.83,0,0,0-.4-.08c-.22,0-.41-.05-.63-.05l-.73,0-1.4-.08c-.45,0-.91-.1-1.36-.16-.24,0-.45-.1-.69-.16l-.2-.06-.47-.14-.18,0h0s0,0,0,0h0c-.19-.06-.41-.12-.61-.2,0,0,0,0,0,0l-.51-.16s0,0,0,0l-1.17-.34-.65-.17-.57-.16-.77-.22-.65-.19h0l-1.54-.47h0c-.47-.14-.94-.29-1.4-.45l-1.26-.42-2.6-.82h0s0,0,0,0h0s0,0,0,0h0l-2.64-.83c-.77-.24-1.54-.52-2.31-.75h0l-1-.32c-.35-.1-.69-.19-1-.27s-.83-.18-1.26-.24a.07.07,0,0,1,.06,0c-.3,0-.6-.08-.89-.1a4.23,4.23,0,0,0-.87,0l-.16,0s0,0,0,0l.06.08h0l0,0,0,0a2.44,2.44,0,0,0,.3.27h0a4.94,4.94,0,0,0,.57.42c.35.22.73.43,1.1.65l1.21.65c.8.43,1.61.89,2.4,1.36A14.09,14.09,0,0,1,119.71,74l.24.22a.67.67,0,0,1,.21.33.28.28,0,0,1,0,.18.33.33,0,0,1-.13.16.9.9,0,0,1-.22.06,1.4,1.4,0,0,1-.41-.06c-.52-.1-1-.22-1.56-.34-1.07-.24-2.13-.45-3.2-.67h0a.12.12,0,0,1-.08,0h0l-1-.18h0a.07.07,0,0,1-.06,0h0c-.38-.06-.77-.09-1.15-.15s-.76-.1-1.16-.14-.75-.1-1.14-.16l-.51-.08A5.39,5.39,0,0,0,109,73h0l-.1,0h0l-.69-.12a.07.07,0,0,1-.06,0h0l-.73-.11h0a.06.06,0,0,1,0,0h0l-.24,0h0l-.16,0h0a.07.07,0,0,1-.06,0l-.37-.06a5.14,5.14,0,0,0,.77.41,11.31,11.31,0,0,0,1.14.46c.26.1.51.17.79.27s.77.24,1.16.34l1.36.33c.44.1.87.2,1.3.32s.93.22,1.36.37h0a4.28,4.28,0,0,1,.43.14l.26.08.15.06a.75.75,0,0,1,.24.14.27.27,0,0,1,.06.37.51.51,0,0,1-.2.16.85.85,0,0,1-.31,0,6.36,6.36,0,0,1-.87,0,3.93,3.93,0,0,1-.49,0c-.44,0-.85-.06-1.29-.1l-1.22-.12c-.35,0-.71,0-1.06-.08s-.91,0-1.34,0h-1.31c-.92,0-1.87,0-2.8,0a3.32,3.32,0,0,0-.43,0h0l-.59.06a3.39,3.39,0,0,0-.44.08c-.23.06-.47.12-.71.2l-.33.14s0,0,0,0l-.06,0s0,0,0,0,.18.1.26.13a4.12,4.12,0,0,0,.67.24s0,0,0,0a13.18,13.18,0,0,0,1.59.38c.59.09,1.21.15,1.8.21l.61.06a5.85,5.85,0,0,0,.59,0l2.88.16c1.81.1,3.63.26,5.44.45l.53.06a.43.43,0,0,1,.38.38.45.45,0,0,1-.26.47,1.3,1.3,0,0,1-.49.1l-.26,0-.51.06c-.41,0-.81.06-1.22.1h.06l-.57,0-.75,0-1.25.08-1.22.08c-.39,0-.79.06-1.16.1l-1.22.14h0l-.86.12-.71.12-.63.13a13.9,13.9,0,0,0-1.34.4h0l0,0s0,0,0,0l0,0s-.08,0-.1,0a8.45,8.45,0,0,0,.84.19l-.07,0,.86.12.63.06h0l1.46.06h.61c.32,0,.62,0,.93,0s.89,0,1.32,0c.89,0,1.78-.06,2.67-.08s2,0,2.91,0h.36a5.53,5.53,0,0,1,.51.06.74.74,0,0,1,.22.1A1.21,1.21,0,0,1,118,81a.64.64,0,0,1-.24.95,5.61,5.61,0,0,1-.65.23l-.34.1-.59.18-.85.27-2,.67c-.29.12-.61.22-.9.34l-.5.2-.47.21a1.65,1.65,0,0,0-.26.14s0,0,.08,0-.06,0-.08,0c.42,0,.83,0,1.24-.06h0l.22,0h-.08l.26,0h-.08l.43,0h0a.44.44,0,0,0,.16,0h0a.44.44,0,0,0,.16,0h0c.87-.09,1.75-.17,2.62-.27s1.87-.2,2.82-.28h0l.71,0,.55,0,.81,0c.24,0,.49,0,.75,0,.49,0,1,0,1.46.06l.55,0,.65.06c.67.08,1.34.16,2,.26h0l1,.17h0l1,.18c.31.06.61.12.92.16l1.76.32a.12.12,0,0,1-.08,0c.47.07,1,.13,1.42.21s.83.08,1.26.12l1.34.06,1,.06h0a.62.62,0,0,1,.55.69.67.67,0,0,1-.24.43.4.4,0,0,1-.16.08A3.53,3.53,0,0,1,135.8,86.39Z" transform="translate(-101.35 -3)"/><path class="cls-2" d="M287.58,82.43a.39.39,0,0,1-.49-.22,1.2,1.2,0,0,1,0-.75c0-.2.07-.39.13-.59a5.79,5.79,0,0,1,.18-.63,11.21,11.21,0,0,1,.47-1.26c.34-.83.68-1.66,1-2.47l.18-.37a1.36,1.36,0,0,1,.25-.36,1.17,1.17,0,0,1,.42-.27c.14-.06.27-.14.39-.2a0,0,0,0,0,0,0s0,0,.08,0h0c.26-.14.53-.28.79-.39s.59-.22.89-.32a5.36,5.36,0,0,1,.77-.26,2.79,2.79,0,0,1,.45-.08,1.87,1.87,0,0,0,.41-.09l.08,0h0l.08,0s0,0,0,0a6.72,6.72,0,0,1,.87-.18h0c.24,0,.49,0,.75,0s.47,0,.73,0c0,0,.06,0,.08,0a.21.21,0,0,1,.27.1h0a.27.27,0,0,1,.1.18.32.32,0,0,1-.25.35l-.89.12a7.47,7.47,0,0,1-.89.26h0l-.55.11-.06,0h0c-.2,0-.39.1-.59.16l-.26.12h0a0,0,0,0,0,0,0h0c-.23.12-.43.28-.65.41l0,0-.18.12h0c-.23.18-.47.36-.73.54l-.67.45a2.05,2.05,0,0,0-.23.2h0l0,0h0c-.06,0-.12.13-.2.19h0c-.12.16-.24.32-.36.5l-.23.41-.28.53a.07.07,0,0,1,0,0c-.14.32-.29.63-.41,1s-.26.61-.38.91-.27.67-.43,1a5.11,5.11,0,0,1-.22.48,2.34,2.34,0,0,1-.14.27l-.11.2a.44.44,0,0,1-.16.1C287.62,82.41,287.6,82.41,287.58,82.43Zm1.71-5a4.82,4.82,0,0,1,.38-.51,4.29,4.29,0,0,1,.79-.63c.29-.18.59-.36.87-.56h0a.07.07,0,0,0,0,0l0,0-.64.26-.33.14-.38.16s0,0-.05,0h0l0,0,0,0-.08.07s-.06.06-.08.1a3.73,3.73,0,0,0-.2.4A2,2,0,0,0,289.29,77.4Z" transform="translate(-101.35 -3)"/><path class="cls-2" d="M277.29,94.22a.25.25,0,0,1-.12,0,.39.39,0,0,1-.14,0,.25.25,0,0,1-.14-.37,3.83,3.83,0,0,1,.36-.44,1.48,1.48,0,0,1,.25-.25l.42-.44,1-1c.65-.64,1.26-1.29,1.89-1.92l1.4-1.36A16.2,16.2,0,0,0,283.56,87l.41-.49c.18-.22.36-.45.51-.67.3-.39.57-.77.83-1.18l.36-.58.35-.61c.22-.39.43-.79.65-1.16s.42-.75.61-1.12.42-.79.61-1.21l.36-.77.12-.29c.06-.14.1-.26.16-.4s.15-.45.21-.69v0c.06-.19.12-.37.18-.57,0,0,0-.08,0-.12s-.06-.33-.08-.51,0-.12,0-.2,0-.17,0-.23a.54.54,0,0,1,.3-.2l.27-.1.32-.12c.83-.35,1.65-.75,2.46-1.16.38-.2.77-.4,1.17-.59a4.9,4.9,0,0,1,.61-.28,4.71,4.71,0,0,1,.73-.22h0l.08,0-.08,0,1.85-.41h0a.07.07,0,0,0,.06,0h0l1.32-.33c.44-.12.87-.24,1.32-.32s.93-.16,1.4-.22.89-.1,1.34-.12,1,0,1.46,0h.08a.24.24,0,0,1,.26.22.28.28,0,0,1-.18.3c-.93.23-1.85.47-2.8.69-.45.1-.89.21-1.34.33s-.83.22-1.22.34c-.59.16-1.17.31-1.76.43s-1,.22-1.5.32l-.71.21-1.16.5-.69.29c-.22.08-.41.16-.63.26a7.21,7.21,0,0,1-1.36.37l-.59.12-.2,0a.34.34,0,0,0,0,.14c0,.1,0,.18,0,.28s-.2.17-.2,0l-.06-.38h0s0,0,0,.06v0a.6.6,0,0,0-.08.2s0,0,0,.06,0,.13,0,.19l.12.6.12.65a4,4,0,0,1,.08.84,5,5,0,0,1-.1.75c0,.24-.1.48-.14.71a6.85,6.85,0,0,1-.71,1.92c-.1.19-.21.41-.33.59s-.3.49-.46.73-.49.73-.73,1.08a1.53,1.53,0,0,1-.11.16c-.1.14-.2.26-.3.39l-.35.46-.54.65a6.08,6.08,0,0,1-.39.47c-.32.36-.65.71-1,1.09l-.25.25-.65.65-.36.36c-.12.12-.24.21-.37.33-.36.32-.71.63-1.05,1a2.13,2.13,0,0,1-.22.18,5.71,5.71,0,0,1-.47.39c-.2.16-.39.34-.59.49l-.77.62c-.24.17-.47.37-.71.55h0l-.57.41a2.13,2.13,0,0,0-.22.18,4.73,4.73,0,0,1-.39.28,2.8,2.8,0,0,1-.34.21,1.44,1.44,0,0,1-.25.18C277.32,94.2,277.31,94.22,277.29,94.22ZM289,78.66c0,.24-.1.48-.14.71a.58.58,0,0,0,0,.18c0,.16-.1.31-.14.49s-.12.38-.19.57-.14.42-.22.64c-.18.45-.36.9-.53,1.36s-.44,1-.67,1.44c0,0,0,0,0,.07.09-.15.19-.29.29-.45,0,0,0,0,0,0,.16-.28.34-.57.51-.85a3.12,3.12,0,0,0,.2-.35c.1-.2.22-.4.3-.59h0a5.77,5.77,0,0,0,.29-.79,14.19,14.19,0,0,0,.44-1.82c0-.06,0-.12,0-.17v0c0-.25,0-.51,0-.74C289,78.5,289,78.58,289,78.66Z" transform="translate(-101.35 -3)"/><path class="cls-3" d="M272.49,80c-.19.12-.39.24-.59.34s-.45.21-.69.31h0c-.22.1-.45.18-.67.26s-.45.14-.67.2a5.78,5.78,0,0,1-.57.12l-.55.07h-.36a5.06,5.06,0,0,1-.55,0c-.2,0-.39,0-.59-.09a5.69,5.69,0,0,1-.59-.16,1.69,1.69,0,0,1-.54-.26l-.15-.1c-.08-.06-.18-.1-.26-.15a1.51,1.51,0,0,1-.28-.22,4.13,4.13,0,0,1-.47-.55c-.12-.18-.26-.36-.37-.54s-.22-.37-.36-.55h0c-.2-.27-.41-.53-.61-.81s-.41-.65-.63-1l-.67-.83c-.2-.26-.44-.49-.65-.73l0,0a8.67,8.67,0,0,1-.65-.71c-.2-.24-.4-.45-.6-.69l0,0-.07-.08h0l0,0,0,0,0,0a5.17,5.17,0,0,0-.56-.49,3.48,3.48,0,0,0-.39-.28c-.18-.1-.38-.18-.57-.28s-.2-.09-.3-.13l-.29-.12a1.29,1.29,0,0,0-.26-.08.75.75,0,0,1-.3-.18.56.56,0,0,1,0-.63.64.64,0,0,1,.73-.29s0,0,0,0a.15.15,0,0,1,.1-.14s0,0,.08,0,0,0,0,0l.14,0a.9.9,0,0,1,.22,0,3.31,3.31,0,0,1,.45,0h.25a1.38,1.38,0,0,1,.26,0l.47.08.4.06c.16,0,.31.06.47.09l.83.26c.28.06.55.1.83.14l.79.12c.53.06,1.06.1,1.61.12s1.11,0,1.66,0c.81,0,1.64-.06,2.45-.12l.61,0,.65,0c.43,0,.85-.06,1.28-.12l.67-.08a.12.12,0,0,0-.08,0c1.64-.26,3.27-.59,4.89-1a6,6,0,0,0,.61-.15l1-.3,1-.35.46-.18a1.38,1.38,0,0,1,.27-.08.52.52,0,0,1,.57.37.64.64,0,0,1-.13.54,1.75,1.75,0,0,1-.2.19c-.16.14-.32.26-.47.38l-.52.43,0,0a2.5,2.5,0,0,0-.33.32l.06-.06c-.46.41-.91.85-1.36,1.26l-.65.63c-.2.2-.4.42-.58.63-.29.38-.59.73-.88,1.13s-.56.75-.81,1.12-.48.71-.69,1.09a6.91,6.91,0,0,1-.83,1.06,8.54,8.54,0,0,1-1,.87c-.09.08-.19.14-.29.22A.84.84,0,0,0,272.49,80Zm-.13-1.2.33-.26a2.08,2.08,0,0,0,.32-.27l.33-.34a4,4,0,0,0,.47-.63c.24-.35.48-.73.71-1.08s.52-.73.79-1.09.5-.67.77-1,.59-.69.91-1,.75-.73,1.12-1.08l.46-.42-.28.08.08,0c-.81.24-1.64.38-2.46.55s-1.58.32-2.39.46c-.43.08-.89.15-1.32.19s-.83.1-1.24.12l-1.27.06c-.41,0-.82,0-1.24.08-.77,0-1.56.08-2.33.06a17,17,0,0,1-2.26-.12h0c-.56-.06-1.11-.14-1.66-.22a4.34,4.34,0,0,1-.81-.19l-.67-.22-.26-.06a1.4,1.4,0,0,1,.2.16,7.83,7.83,0,0,1,.67.61h0a6.8,6.8,0,0,1,.5.57l.53.59h0L263,75c.2.22.37.46.57.69a7.56,7.56,0,0,1,.55.75c.08.12.14.24.22.38s.18.27.26.41.21.3.33.44a6.13,6.13,0,0,1,.38.51l.15.26c.06.07.1.15.16.23s.24.34.36.49c0,0,0,0,0-.05s.13.19.21.27l.18.18.2.14h0c.14.08.25.16.39.23s.06,0,.08,0a2.83,2.83,0,0,0,.44.14,5.07,5.07,0,0,0,.61.12c.19,0,.41,0,.61,0a1.77,1.77,0,0,0,.33,0,5.15,5.15,0,0,0,.93-.2l.77-.25.16-.06c.29-.14.57-.26.86-.42S272.14,79,272.36,78.82Z" transform="translate(-101.35 -3)"/><path class="cls-3" d="M268.79,80.52a2.25,2.25,0,0,1-.22.11,2.58,2.58,0,0,1-.39.14.75.75,0,0,1-.22,0,1,1,0,0,1-.34,0,1.81,1.81,0,0,1-.92-.39h0s0,0,0,0a0,0,0,0,1,0,0,.35.35,0,0,1-.1-.08l0,0s0,0,0,0a0,0,0,0,1,0,0,5.14,5.14,0,0,1-.71-.69,3.65,3.65,0,0,0-.26-.32l-.29-.33c-.12-.14-.2-.3-.3-.44a3.71,3.71,0,0,1-.28-.41c-.15-.26-.31-.51-.47-.79s-.2-.33-.29-.49-.2-.3-.3-.46a4,4,0,0,1-.28-.37l-.23-.35a6.51,6.51,0,0,0-.46-.58l-.23-.23a3.48,3.48,0,0,1-.26-.3l-.49-.65c-.1-.12-.18-.24-.26-.35s-.14-.24-.22-.34-.13-.2-.19-.3-.06-.07-.08-.11a.1.1,0,0,1-.08,0l-.06-.16a.18.18,0,0,1,0-.1.11.11,0,0,1,.14-.08l.08.06a.86.86,0,0,1,.25.22c.08.1.18.17.26.27h0a0,0,0,0,0,0,0l0,0c.28.26.57.5.83.75s.51.52.79.77c.06.06.12.1.17.16l.2.2c.12.13.24.25.36.39a9.53,9.53,0,0,1,.61.81c.08.1.14.22.21.32s0,0,0,0c.13.17.27.37.39.55a4.26,4.26,0,0,0,.34.49,0,0,0,0,0,0,0l.07.12s0,0,0,0l.3.37c.1.12.18.24.3.36l.17.18.24.23a1.89,1.89,0,0,0,.2.2,2.15,2.15,0,0,1,.23.28s0,0,0-.06a2.5,2.5,0,0,0,.34.31,1.1,1.1,0,0,0,.18.14l0,0s.06.06.1.08l.37.26a.88.88,0,0,0,.2.09l.43.12a1.15,1.15,0,0,1,.28.08.27.27,0,0,1,.16.2c.05.06,0,.16-.08.24Z" transform="translate(-101.35 -3)"/><path class="cls-3" d="M276,75h0a3.27,3.27,0,0,1-.45.1h0a1,1,0,0,1-.24,0,.72.72,0,0,0-.19,0l-.69.14a1.75,1.75,0,0,1-.32,0h.06l-.35.08-.69.1-.46.06-.43,0-.44,0-.23,0h0l-.3,0c-.31,0-.61,0-.92.08l-1,.12-.55.06-.58.06a3.62,3.62,0,0,1-.47,0,5.46,5.46,0,0,1-.57,0c-.37,0-.75,0-1.12,0h-.12l-.65,0-.34,0a2.54,2.54,0,0,1-.39,0h-.22v0c0,.12-.2.12-.2,0h0V76h0a.18.18,0,0,1,0-.1.2.2,0,0,1,.1-.2,1.14,1.14,0,0,1,.36-.15h0a1.66,1.66,0,0,0,.29-.1,1.11,1.11,0,0,1,.34-.06c.22,0,.45,0,.67,0s.43,0,.65,0l.75,0,.71-.06c.22,0,.41,0,.63-.06l.47-.08.46-.06.45-.08a4.93,4.93,0,0,1,.57-.07h0l.28,0h-.06l.37-.06h0l.3-.06s0,0,.08,0a4.59,4.59,0,0,1,.51-.1c.28,0,.53-.08.81-.1h0a5.67,5.67,0,0,0,.57-.1l.28,0,.29-.06a.9.9,0,0,1,.22,0h.16a1.27,1.27,0,0,1,.27,0h0a4.92,4.92,0,0,0,.52,0h0l.33-.11a2.33,2.33,0,0,1,.36-.08,1.62,1.62,0,0,1,.31,0,.55.55,0,0,1,.32.1.3.3,0,0,1,.14.37.66.66,0,0,1-.2.28l0,0A.71.71,0,0,1,276,75Z" transform="translate(-101.35 -3)"/><path class="cls-3" d="M276.26,74h0l0,0v0l0,0,0,0s0,0,0,.06,0,0,0,0l-.1.1s0,0,0,0-.16.17-.23.27a3.84,3.84,0,0,1-.28.3.57.57,0,0,1-.63.08.66.66,0,0,1-.12.17.43.43,0,0,1-.65,0,.15.15,0,0,1,0-.1h0v-.06h0v-.24a1.15,1.15,0,0,1,.06-.37,4.66,4.66,0,0,1,.26-.71c.07-.2.17-.4.25-.6l-.31,0-.34.08-.33.06a4.1,4.1,0,0,0-.48.1l-.49.1c-.38.06-.75.14-1.1.18a6.91,6.91,0,0,1-1.11.08h-.47l.06.82c0,.24,0,.48,0,.71a1.23,1.23,0,0,1,0,.28,1.27,1.27,0,0,1,0,.14.42.42,0,0,1-.26.23.38.38,0,0,1-.33,0h0a.35.35,0,0,1-.14-.17h0l0,0a.47.47,0,0,1-.14.14h0a.35.35,0,0,1-.3,0,.26.26,0,0,1-.19-.25v-.18a2.71,2.71,0,0,1,0-.41c0-.16,0-.34,0-.5a5.66,5.66,0,0,1,.06-.82.15.15,0,0,1,0-.08c0-.1,0-.2,0-.3v0c0-.08,0-.16,0-.24a.29.29,0,0,1,.08-.21.22.22,0,0,1,.26,0l.06-.1a.48.48,0,0,1,.33-.18h.32l.12,0,.33,0h.48l.37,0a2.2,2.2,0,0,0,.36,0l.67-.12.77-.11a4.51,4.51,0,0,1,.53-.1,2.55,2.55,0,0,1,.39,0h.3l.39.06a.44.44,0,0,1,.16,0,4.1,4.1,0,0,0,.49,0,.82.82,0,0,1,.22,0,.29.29,0,0,1,.16.07h0a.4.4,0,0,1,.22.06h0l0,0,.5-.47a1.9,1.9,0,0,1,.43-.33.39.39,0,0,1,.36,0,.25.25,0,0,1,.15.17c.18-.17.38-.33.58-.49a.41.41,0,0,1,.45,0,.33.33,0,0,1,.08.43l0,0a1.34,1.34,0,0,1-.18.28,12.34,12.34,0,0,1-.77,1.12c-.12.18-.24.34-.37.5l-.18.23a1.16,1.16,0,0,1-.2.24h0l0,0A.4.4,0,0,1,276.26,74Z" transform="translate(-101.35 -3)"/><path class="cls-3" d="M276.14,72.79a1.66,1.66,0,0,1-.35.13,3,3,0,0,1-.42.06c-.29,0-.57,0-.87,0s-.55,0-.84-.06-.56,0-.85,0l-.59,0a5.27,5.27,0,0,0-.57,0c-.2,0-.4,0-.58,0s-.39,0-.59,0a1.18,1.18,0,0,1-.27,0,1.31,1.31,0,0,0-.28,0h-.06a.12.12,0,0,1-.08,0,.07.07,0,0,1-.06-.1c0-.09.18-.09.26-.09a1.56,1.56,0,0,1,.31,0h.38a1.75,1.75,0,0,0,.32,0h0l.86-.14h0l.26,0,.28-.06.55-.08a5.09,5.09,0,0,1,.55,0l.61,0a3.89,3.89,0,0,0,.49,0l.58,0a2.53,2.53,0,0,1,.55,0,.83.83,0,0,1,.25.06.78.78,0,0,1,.22.12.15.15,0,0,1,0,.26S276.14,72.77,276.14,72.79Z" transform="translate(-101.35 -3)"/><path class="cls-3" d="M269.48,73.1a0,0,0,0,1,0,0h-.06l-.1,0-.2.06-.43.18a2.25,2.25,0,0,1-.49.1,4.55,4.55,0,0,1-.52,0,3.66,3.66,0,0,0-.65.06,1.3,1.3,0,0,0-.22,0,1.47,1.47,0,0,1-.31,0h-.22c-.33,0-.69,0-1,0h0l-.48,0h-.84a2.55,2.55,0,0,0-.38,0h0a5.24,5.24,0,0,1-.57,0l-.4-.06a1.77,1.77,0,0,1-.33,0h-.38a1.55,1.55,0,0,1-.29,0,1.47,1.47,0,0,1-.28-.08L261,73.3a4,4,0,0,1-.46-.14l-.45-.2c-.16-.08-.36-.15-.41-.33h0a.71.71,0,0,1,0-.2.61.61,0,0,1,.59-.59.88.88,0,0,1,.33.06s.06,0,.1,0l.34.16.39.13a3.85,3.85,0,0,0,.49.08,5.48,5.48,0,0,1,.56.1l.53.1.47.08h0a.18.18,0,0,1,.1,0l.4,0h.47l.22,0a3.8,3.8,0,0,1,.67.14l.06,0,.29,0c.22,0,.45,0,.67,0l.61,0h0a2.68,2.68,0,0,0,.4,0h.75l.31,0h0l.2,0a.55.55,0,0,1,.18,0,1,1,0,0,1,.23,0h.2a.45.45,0,0,1,.28,0h0c.07,0,.05.12,0,.16S269.52,73.12,269.48,73.1Z" transform="translate(-101.35 -3)"/><path class="cls-3" d="M270.23,72.77h0c-.1,0-.2.06-.3.09a2.21,2.21,0,0,1-.37.08c-.24,0-.48.06-.71.08l-.71,0-.4,0-.39.06h0l-.46.06-.43.06c-.24,0-.47,0-.71.08s-.59,0-.89.06l-.45,0-.43.06h0l-1,.13a3,3,0,0,1-.43,0h-.44l-.2,0a.18.18,0,0,1-.11.1c-.08,0-.16,0-.16-.1v0h0a.09.09,0,0,1,.08-.12h.1a1.18,1.18,0,0,1,.27,0h0l.08,0,.12,0,.28,0h0l.24,0,.3-.06.25-.06a.85.85,0,0,1,.22,0l.53-.12a1,1,0,0,1,.24,0l.12,0,.14,0a3.62,3.62,0,0,1,.47,0l.47,0c.28,0,.55,0,.81,0h0l.4,0a3,3,0,0,1,.43,0c.29,0,.57-.07.87-.09l.81,0c.27,0,.55,0,.84-.08h0l.24,0,.2,0h0c.06,0,.1,0,.1.08a.15.15,0,0,1,0,.1C270.27,72.75,270.25,72.77,270.23,72.77Z" transform="translate(-101.35 -3)"/><path class="cls-3" d="M265.32,77.32a4.53,4.53,0,0,1-.4-.26.31.31,0,0,1-.12-.09,1.35,1.35,0,0,0-.19-.16s-.06-.06-.1-.08l-.2-.2-.26-.27a1.34,1.34,0,0,1-.11-.14.61.61,0,0,1-.1-.14l-.24-.34a4,4,0,0,1-.24-.37,2.73,2.73,0,0,0-.21-.3l0,0,0,0h0l-.22-.27-.28-.36a.94.94,0,0,1-.17-.31c-.08-.16-.18-.32-.26-.46l0,0h0a.12.12,0,0,1,0-.14s.08-.08.12-.06,0,0,.06,0a3,3,0,0,1,.27.23l.22.24h0L263,74l.2.18.19.17a1,1,0,0,1,.2.2,1.8,1.8,0,0,1,.18.2l.18.21.29.4c.22.27.44.57.67.85l.36.45a4.12,4.12,0,0,1,.27.45.16.16,0,0,1,0,.16l0,0A.24.24,0,0,1,265.32,77.32Z" transform="translate(-101.35 -3)"/><path class="cls-3" d="M271.05,80.34c-.19.1-.37.22-.57.31l.06,0-.31.16a.71.71,0,0,1-.18.08.56.56,0,0,1-.51-.06.16.16,0,0,1-.08-.08s0,0,0,0a.65.65,0,0,1-.48-.06l-.23.12-.28.12a.72.72,0,0,1-.22,0,.32.32,0,0,1-.29-.24.31.31,0,0,1,0-.19,3.38,3.38,0,0,1-.4.07l-.41.06-.2.06-.1,0h0a.49.49,0,0,1-.37-.14h0a1.11,1.11,0,0,1-.16-.11.51.51,0,0,1,0-.62.7.7,0,0,0,.06-.09.35.35,0,0,1,.06-.28.54.54,0,0,1,.14-.16,1.13,1.13,0,0,1,.26-.16,0,0,0,0,0,0,0s0,0,0,0h0c.08,0,.16-.09.24-.13l-.29.08a1.33,1.33,0,0,1-.28,0,.53.53,0,0,1-.3-.09.71.71,0,0,1-.21-.75h0a1,1,0,0,1-.26-.12h0a.27.27,0,0,1-.16-.06h0l-.06-.06a.34.34,0,0,1-.07-.22.42.42,0,0,1-.24-.21.34.34,0,0,1,0-.28l-.12,0a.87.87,0,0,1-.57-.24.45.45,0,0,1-.12-.21.76.76,0,0,1,0-.3c.06-.25.32-.39.53-.49a1.07,1.07,0,0,1,.42-.1c.1,0,.19,0,.31,0l.22,0H266a.65.65,0,0,1,.19,0l.69-.12a.07.07,0,0,0-.06,0,7.93,7.93,0,0,1,1.19-.08c.37,0,.77,0,1.14-.06s.75-.1,1.13-.15.72-.1,1.1-.14.73-.12,1.1-.2.73-.12,1.09-.18h0l.57-.08.41,0h0a5.71,5.71,0,0,1,.87-.49.27.27,0,0,1,.34.1.31.31,0,0,1,0,.34h0c-.06.07-.12.13-.18.21s0,0,0,.06a.33.33,0,0,1,0,.38,1.44,1.44,0,0,1-.18.25.28.28,0,0,0-.06.08c-.37.57-.75,1.14-1.14,1.72a10.58,10.58,0,0,1-2.11,2.17l-.26.17A2.49,2.49,0,0,0,271.05,80.34Z" transform="translate(-101.35 -3)"/><path class="cls-4" d="M304.71,51.8c0,.5.08,1,.1,1.46s0,1.07,0,1.6-.06,1-.1,1.52-.09,1-.15,1.46a13.93,13.93,0,0,1-.28,1.52c-.12.49-.26,1-.41,1.44s-.32,1-.5,1.5a14.51,14.51,0,0,1-.57,1.36c-.41.9-.87,1.79-1.36,2.66-.25.45-.55.9-.83,1.34s-.55.79-.86,1.16a3.32,3.32,0,0,1-.26.28,2,2,0,0,1-.26.25,5.51,5.51,0,0,1-.57.5c-.37.29-.77.57-1.16.85s-.83.57-1.24.82a7.71,7.71,0,0,1-1.35.67,9.11,9.11,0,0,1-1.49.42l-.81.18a6.73,6.73,0,0,0-.77.21l-.75.2c-.26.06-.53.14-.79.18a3.71,3.71,0,0,1-.45.06,1.62,1.62,0,0,1-.44,0l-.12.06h0a3.39,3.39,0,0,1-.57.29,5.25,5.25,0,0,1-.55.22l-.08,0-.16.06a1.27,1.27,0,0,1-.39.06.6.6,0,0,1-.32-.1.58.58,0,0,1-.29-.34,1,1,0,0,1-.06-.41,5.19,5.19,0,0,1,.14-1,26.63,26.63,0,0,1,1.3-3.63,9.05,9.05,0,0,0,.31-1.1c.1-.41.2-.83.32-1.24s.22-.77.32-1.15.19-.84.29-1.26l.06-.37a3,3,0,0,0,0-.42c0-.12,0-.21,0-.33v-.34c0-.25,0-.49,0-.75,0-.47-.06-1-.1-1.44s-.06-1-.1-1.53-.06-1-.06-1.52c0-1.07.06-2.11.06-3.18,0-.53,0-1.06,0-1.58s0-1,0-1.45,0-1.21,0-1.8,0-1.12-.06-1.69c-.08-.79-.18-1.58-.29-2.37-.06-.4-.14-.77-.2-1.16s-.12-.81-.18-1.21-.14-.75-.2-1.12-.13-.81-.19-1.2-.12-.79-.16-1.17-.1-.81-.18-1.2c0,0,0-.1,0-.14h-.1a25.86,25.86,0,0,0-2.84.47c-.72.16-1.43.34-2.14.56a22.41,22.41,0,0,1-2.88.81,4.8,4.8,0,0,1-1.42,0,3.35,3.35,0,0,1-1.15-.36,2.85,2.85,0,0,1-.92-.71,3.64,3.64,0,0,1-.63-1.12,7.53,7.53,0,0,1-.32-1.15c-.08.26-.16.52-.26.77a.87.87,0,0,1-.79.63.9.9,0,0,1-.59-.25,1.22,1.22,0,0,1-.27-.56c-.12-.45-.18-.9-.28-1.36-.06-.23-.12-.49-.18-.73s-.12-.41-.19-.61l-.38.54c-.22.33-.41.65-.63,1a5.85,5.85,0,0,1-.37.55,1.85,1.85,0,0,1-.69.67,2.38,2.38,0,0,1-.4.16,1.15,1.15,0,0,1-.45,0,1,1,0,0,1-.61-.39,3.88,3.88,0,0,1-.36-.57c-.12-.22-.24-.42-.37-.62l0,0c-.32.24-.63.5-1,.75s-.53.46-.81.67a1.62,1.62,0,0,1-.55.42.62.62,0,0,1-.53,0,.84.84,0,0,1-.24-.16.71.71,0,0,1-.16-.26,2.1,2.1,0,0,1-.13-.55,11,11,0,0,1-.12-1.14l-.06-.91c-1,1.2-1.82,2.53-2.68,3.79l-.32.43a1.61,1.61,0,0,1-.24.28.79.79,0,0,1-.33.27.52.52,0,0,1-.51-.06.51.51,0,0,1-.22-.39,1.14,1.14,0,0,1,0-.37c0-.2.06-.4.1-.62l.12-.75s0,0,0,0c-.38.3-.75.62-1.11.93h0l0,0L259,39c-.16.15-.32.31-.46.47a1.27,1.27,0,0,1-.35.3.64.64,0,0,1-.34,0,.52.52,0,0,1-.35-.46,2.43,2.43,0,0,1,.08-.53c.06-.22.11-.45.17-.67s.22-.67.32-1l-.51.3a18.9,18.9,0,0,0-1.74,1,5.08,5.08,0,0,0-.57.47.78.78,0,0,1-.2.16.59.59,0,0,1-.65,0,.62.62,0,0,1-.2-.69c.06-.14.12-.28.18-.4s.12-.23.18-.37c.14-.3.3-.57.43-.87.26-.49.58-1,.87-1.46s.67-1.06,1-1.6.69-1,1-1.53a0,0,0,0,1,0,0c-.31.17-.61.35-.9.53l-1.42.94-1.07.79c-.33.28-.67.58-1,.87-.57.53-1.16,1.09-1.69,1.66s-1.13,1.22-1.66,1.83l-.75.89c-.12.14-.23.29-.33.43s-.26.36-.4.54c0,0,0,0,0,.05s0,0,0,0h0l-.07.12a.07.07,0,0,1,0,0,.7.7,0,0,0-.1.16s0,0,0,.06a0,0,0,0,1,0,0l-.06.1s0,0,0,0c-.2.33-.4.65-.57,1s-.38.71-.55,1.07l-.3.65-.3.71c-.19.47-.37,1-.55,1.44s-.35,1.1-.49,1.67-.3,1.23-.44,1.86l-.11.65-.12.75c0,.25-.06.51-.08.77a2.23,2.23,0,0,0,0,.37c0,.1,0,.2,0,.32,0,.35,0,.73,0,1.08l.06,1.06c0,.5.1,1,.16,1.5s.13,1,.23,1.5c.16,1,.34,1.9.52,2.84.05.26.11.53.17.79s.12.47.2.73c.14.53.3,1.05.45,1.56s.32,1.06.5,1.58.33,1.08.51,1.63a5.18,5.18,0,0,0,.26.63c.09.24.21.48.31.69.4.77.83,1.52,1.2,2.31.08.16.14.34.22.51a4.6,4.6,0,0,1,.2.67,3.69,3.69,0,0,1,.12.81,3.92,3.92,0,0,1-.1.83,4.35,4.35,0,0,1-.38,1.08,1.07,1.07,0,0,1-.73.56,5.61,5.61,0,0,1-.59.06h-.27a8.19,8.19,0,0,1-1,0c-.39,0-.81-.06-1.2-.12s-.87-.1-1.32-.14h-.63a7.39,7.39,0,0,1-2.1.06,3.57,3.57,0,0,1-.82-.26c-.22-.08-.42-.19-.63-.29s-.48-.24-.69-.36a9.08,9.08,0,0,0-1-.41l-.4-.12-.37-.06h-.45c-.24,0-.48.06-.71.06a3.51,3.51,0,0,1-.65,0,3.44,3.44,0,0,1-1.27-.41,3,3,0,0,1-.86-.85c-.18-.24-.34-.49-.52-.75a.94.94,0,0,1-.09-.12L233,71l-.06,0-.06,0,0,0c-.3.08-.57.2-.89.26l-.33,0a2.2,2.2,0,0,1-.36,0,1.75,1.75,0,0,1-.63-.26,1.62,1.62,0,0,1-.47-.47,4.46,4.46,0,0,1-.4-.75c-.14-.33-.25-.67-.41-1l-.06-.07-.06-.08,0,0h0l-.08,0-.2.08a6,6,0,0,0-.63.39l-.39.32a3.07,3.07,0,0,0-.32.31c-.15.16-.29.32-.45.47a2.32,2.32,0,0,1-.87.69,1.23,1.23,0,0,1-1,0,1,1,0,0,1-.32-.17,2,2,0,0,1-.33-.32,3.14,3.14,0,0,1-.24-.39,2.83,2.83,0,0,1-.14-.44c-.14-.49-.24-1-.39-1.5a3.52,3.52,0,0,0-.16-.35.36.36,0,0,0-.1-.14s-.06-.06-.08-.1l-.1-.1-.1-.07s-.06,0-.07-.06l-.1,0a.47.47,0,0,0-.16,0l-.16,0h-.29c-.18,0-.36.06-.56.1s-.63.15-.92.25l-.48.14-.33.08a2.61,2.61,0,0,1-.67.08,3.57,3.57,0,0,1-.46,0,2.22,2.22,0,0,1-.45-.16,1.73,1.73,0,0,1-.32-.2.53.53,0,0,1-.13-.13,1.42,1.42,0,0,1-.2-.28,1.92,1.92,0,0,1-.16-.41c-.08-.22-.1-.46-.16-.67s-.05-.4-.09-.58-.08-.25-.12-.39-.06-.12-.08-.18l-.06-.08-.06-.06-.06-.06s0,0,0,0l-.1-.06a.28.28,0,0,0-.12,0,.47.47,0,0,0-.17,0l-.14,0h-.22l-.41.06a5.19,5.19,0,0,0-.63.19l-.73.3c-.46.2-.89.43-1.34.59a2.32,2.32,0,0,1-1.64,0,1.57,1.57,0,0,1-.61-.43,2.55,2.55,0,0,1-.53-.87,1.85,1.85,0,0,1,.13-1.54,3.6,3.6,0,0,1,.52-.71,2.8,2.8,0,0,1,.45-.39,5.65,5.65,0,0,1,.51-.34c.71-.41,1.5-.67,2.23-1l.51-.3a2.13,2.13,0,0,0,.22-.18l.12-.12a.14.14,0,0,0,.06-.07.15.15,0,0,0,0-.08h0s0-.06,0-.08a.07.07,0,0,1,0-.06v-.14h0s0,0,0,0,0,0,0-.06l0,0s0,0-.06,0a.5.5,0,0,0-.14-.08l-.33-.13a5,5,0,0,0-.52-.14c-.37-.06-.77-.12-1.14-.16s-.87-.12-1.28-.2a6,6,0,0,1-2.33-.9,5.15,5.15,0,0,1-.87-.75.6.6,0,0,1-.15-.32.93.93,0,0,1,0-.47,1.62,1.62,0,0,1,.37-.63,6.94,6.94,0,0,1,.49-.57,5.88,5.88,0,0,1,.85-.66,6.35,6.35,0,0,1,.83-.39c.33-.14.67-.28,1-.39s.71-.3,1.06-.46l.39-.23h0a1.06,1.06,0,0,0-.21-.16c-.2-.14-.42-.26-.61-.38l-.4-.21c-.12-.06-.25-.14-.39-.2a4.58,4.58,0,0,1-.46-.2c-.13-.06-.29-.1-.43-.16l-.37-.11a2.89,2.89,0,0,1-.58-.22,1.89,1.89,0,0,1-.39-.26c-.06,0-.1-.1-.16-.15s-.06-.1-.1-.14a1,1,0,0,1-.12-.32,1.18,1.18,0,0,1,0-.25,1.34,1.34,0,0,0,0-.2v-.28c0-.18,0-.37,0-.55a2.62,2.62,0,0,1,.06-.43,1.57,1.57,0,0,1,.14-.5,2,2,0,0,1,.53-.77,2.3,2.3,0,0,1,1-.37,7.12,7.12,0,0,1,1.3-.1c.38,0,.75,0,1.13,0,.69,0,1.36-.06,2-.12h0c.53-.06,1.08-.1,1.61-.15l1.8-.18.65-.06.26,0,.51,0c.21,0,.41,0,.63,0s.43,0,.65,0a8.68,8.68,0,0,1,1,.16c.87.17,1.68.51,2.55.69a5.74,5.74,0,0,0,.71.09h.31a1.49,1.49,0,0,0,.36,0l.14,0,.1,0s0,0,0,0h0a.71.71,0,0,0,0-.2c0-.06,0-.12,0-.18v-.1a.15.15,0,0,0,0-.08.41.41,0,0,1,0-.09l-.07-.18c0-.06-.06-.12-.1-.18l-.18-.24-.26-.23a1.15,1.15,0,0,0-.19-.14l-.24-.14-.24-.1-.21-.06h0a.55.55,0,0,0-.18,0h-.32l-.39.06-.53.12a3.94,3.94,0,0,1-.67.08,1.31,1.31,0,0,1-.48-.12c-.08-.06-.17-.1-.25-.17a.89.89,0,0,1-.16-.22,1.45,1.45,0,0,1-.1-.77v-.57l-.06,0c-.37.25-.73.53-1.1.79a5.15,5.15,0,0,1-.61.33,2.91,2.91,0,0,1-.83.22,3.35,3.35,0,0,1-1.54-.24,5.34,5.34,0,0,1-.59-.28l-.34-.17c-.19-.12-.41-.24-.61-.38-.39-.23-.77-.49-1.14-.75l-.3-.21-.31-.26c-.18-.14-.36-.32-.52-.47s-.27-.3-.41-.44a7.86,7.86,0,0,1-.59-.73,5.35,5.35,0,0,1-.4-.61,6.22,6.22,0,0,1-.29-.71,2.13,2.13,0,0,1-.12-.61,2.84,2.84,0,0,1,.06-.71,2.32,2.32,0,0,1,.29-.59,2.62,2.62,0,0,1,.46-.53,4.19,4.19,0,0,1,.71-.52c.29-.17.61-.33.9-.51h0s.1-.06.14-.1,0-.06.08-.08,0,0,0-.05,0,0,0,0v-.06h0v0s0,0,0-.06,0-.06,0-.1l-.12-.2a1.53,1.53,0,0,1-.11-.16h0l-.2-.17a4.06,4.06,0,0,0-.36-.26l-.37-.22c-.4-.17-.81-.33-1.22-.47s-.6-.18-.91-.26l-.83-.21-.47-.16L210,33a5.09,5.09,0,0,1-1.65-1,1.63,1.63,0,0,1-.46-1.58A4.18,4.18,0,0,1,209,28.61a7.65,7.65,0,0,1,1-.78c.3-.22.6-.44.87-.67a1.73,1.73,0,0,0,.26-.28l.06-.08.06-.1h0c0-.06.06-.12.08-.18s0-.07,0-.11a.25.25,0,0,1,0-.12v-.1s0-.08,0-.12a1.46,1.46,0,0,0-.05-.2.81.81,0,0,1-.06-.13l-.08-.14c-.1-.12-.18-.24-.28-.34l-.27-.25c-.12-.1-.24-.18-.38-.28s-.51-.3-.77-.43l-.71-.42a5.72,5.72,0,0,1-.57-.39,6.92,6.92,0,0,1-1.05-.91,5.16,5.16,0,0,1-.43-.61,7.06,7.06,0,0,1-.29-.71,2.49,2.49,0,0,1,0-1.66,5.42,5.42,0,0,1,1-1.65c.16-.18.3-.38.45-.56s.36-.35.54-.53c.35-.31.73-.61,1.1-.88a7,7,0,0,1,1.14-.71,4.44,4.44,0,0,1,1.21-.46,4.17,4.17,0,0,1,.49-.08c.22,0,.43,0,.67-.06a7.47,7.47,0,0,1,1.16,0,4.31,4.31,0,0,1,1,.2c.34.1.67.22,1,.34a4.2,4.2,0,0,0,.45.11l.12,0h.1l.07,0,.1,0,.16-.09a3.26,3.26,0,0,0,.4-.34,2.48,2.48,0,0,1,.45-.33,6.79,6.79,0,0,1,1.06-.58,3.54,3.54,0,0,1,1.25-.27,4,4,0,0,1,1.18.18,4.91,4.91,0,0,1,2,1.28,6.11,6.11,0,0,1,.73,1,12.32,12.32,0,0,1,.55,1.17l.12.21s0,0,0,.06a4.42,4.42,0,0,1,1.22-.77,3.06,3.06,0,0,1,.57-.12,5.61,5.61,0,0,1,.58,0,3.77,3.77,0,0,1,.43.1,5.14,5.14,0,0,1,.55.2,4.38,4.38,0,0,1,.71.38c.22.13.44.27.63.41.4.26.75.57,1.15.83.1.06.21.14.31.19s.36.16.54.22l.35.1a2.2,2.2,0,0,0,.36,0h.17l.42-.06.29-.08.12-.06a0,0,0,0,0,0,0l.06,0,0,0,.22-.17.27-.28.36-.45a10.92,10.92,0,0,0,.59-1.07c.1-.2.18-.39.27-.59a6.59,6.59,0,0,1,.44-.83,4.1,4.1,0,0,1,.75-.75,4.81,4.81,0,0,1,1.46-.79l.41-.09.42-.06a3.07,3.07,0,0,1,.74,0c.26,0,.5.09.75.13l.69.2.66.24,0,0h0l.18.06c.24.08.48.13.71.19l.42.06h.27a4.84,4.84,0,0,0,.5-.06l.53-.08a4.24,4.24,0,0,0,.61-.17,4.77,4.77,0,0,0,.57-.2h0l.51-.24a1.58,1.58,0,0,1,.26-.13c.1-.06.2-.14.32-.2a1.19,1.19,0,0,1,.23-.16,1.38,1.38,0,0,0,.26-.22l.2-.17,0,0h0c.14-.14.28-.3.42-.46.65-.79,1.3-1.57,2-2.32.34-.36.71-.69,1.07-1s.67-.63,1-1,.67-.65,1-1a12.53,12.53,0,0,1,1.2-1A17.58,17.58,0,0,1,256.44,5l1.42-.61a13,13,0,0,1,1.46-.47c.47-.14.95-.24,1.44-.34s1.09-.19,1.64-.27a11.22,11.22,0,0,1,1.42-.16c.55,0,1.08-.06,1.63-.06,1,0,2,0,3,0,.47,0,1,0,1.44,0s1.05.08,1.56.16a20.5,20.5,0,0,1,2.92.51c1,.28,2,.53,3,.83a11.21,11.21,0,0,1,1.4.53c.22.1.44.2.65.32s.46.23.69.35a6.89,6.89,0,0,1,.64.4c.23.15.45.31.69.49l.59.47c.19.16.41.32.63.47l.33.22a2.56,2.56,0,0,0,.4.22l.23.12.26.1.53.13,1.52.22a12.6,12.6,0,0,1,1.5.36l.61.17a5.84,5.84,0,0,1,.67.24A8.63,8.63,0,0,1,290,10a7.78,7.78,0,0,1,1.21.93c.17.16.35.35.51.53a5.27,5.27,0,0,1,.49.57c.34.4.61.83.91,1.26s.57.87.83,1.31c.51.84,1,1.71,1.4,2.6l1.34,2.78c.24.47.47.95.69,1.42s.45,1,.65,1.5.36,1,.53,1.44.32.92.46,1.38.21.69.31,1,.2.69.28,1.05c.18.67.31,1.32.49,2,.32,1.32.65,2.64.93,4,0,.06,0,.12,0,.18a1.27,1.27,0,0,1,0,.14s0,.1,0,.14,0,0,0,.07.05.26.07.38c.06.28.14.53.2.81.12.47.26.94.4,1.42.29,1,.55,1.93.86,2.88s.6,2,.85,3,.48,1.92.65,2.88.34,2,.46,3.08c.06.51.09,1,.15,1.54A5.36,5.36,0,0,0,304.71,51.8Z" transform="translate(-101.35 -3)"/><path class="cls-2" d="M280.91,55.67a1.49,1.49,0,0,1-.39-.1c-.12,0-.24-.14-.38-.2l-.13-.08a1.66,1.66,0,0,1-1.09-1,1.17,1.17,0,0,1,0-.69,2.19,2.19,0,0,1,.1-.34,2.7,2.7,0,0,1,.22-.53,3.88,3.88,0,0,1,.23-.33l.24-.3a1.72,1.72,0,0,1,.47-.39,2.5,2.5,0,0,1,.73-.24,1.24,1.24,0,0,1,.54,0,3.4,3.4,0,0,1,.67.25,1.9,1.9,0,0,1,.86,1.39,1.27,1.27,0,0,1,0,.39,1.38,1.38,0,0,0,0,.2,1.86,1.86,0,0,1-.1.31,1.65,1.65,0,0,1-.18.32c-.08.14-.18.27-.28.41a3.9,3.9,0,0,1-.25.36,1.17,1.17,0,0,1-.38.31,1.15,1.15,0,0,1-.37.12,2.25,2.25,0,0,1-.36.06S281,55.67,280.91,55.67Z" transform="translate(-101.35 -3)"/><path class="cls-2" d="M253.19,54.72a1.91,1.91,0,0,1-.81-.39,1.49,1.49,0,0,1-.24-.14,1.44,1.44,0,0,1-.51-.53.79.79,0,0,1,0-.73l.12-.24a3.94,3.94,0,0,1,.29-.77,2.11,2.11,0,0,1,.58-.65l.13-.12a3.36,3.36,0,0,1,.77-.41,1.57,1.57,0,0,1,.44-.1,2.2,2.2,0,0,1,.51,0,1.53,1.53,0,0,1,.41.14,3.26,3.26,0,0,1,.34.22l.16.13a1.1,1.1,0,0,1,.14.18,1.59,1.59,0,0,1,.07.2.75.75,0,0,1,0,.29,1.71,1.71,0,0,1-.1.54,2.49,2.49,0,0,1-.35.81,3.74,3.74,0,0,1-.63.69s0,0,0,0a.8.8,0,0,1-.1.48.66.66,0,0,1-.39.25,1.39,1.39,0,0,1-.4.06h-.06A.88.88,0,0,1,253.19,54.72Z" transform="translate(-101.35 -3)"/><path class="cls-2" d="M275.87,49.18s0-.06,0-.1l.17-.25.2-.24.26-.26a3.84,3.84,0,0,1,1-.67c.12-.06.24-.09.36-.15a2,2,0,0,1,.37-.14,10.49,10.49,0,0,1,1.48-.46,9.27,9.27,0,0,1,1.89-.15c.48,0,.95,0,1.42,0a9.65,9.65,0,0,1,1.32.08,7.73,7.73,0,0,1,1.42.27,11.36,11.36,0,0,1,1.31.46c.11,0,.21.09.33.13a1.22,1.22,0,0,1,.28.14.62.62,0,0,1,.16.85.68.68,0,0,1-.48.26.82.82,0,0,1-.22,0,1.81,1.81,0,0,1-.27-.1l-.4-.18c-.27-.12-.57-.2-.84-.3l-.5-.13a4.18,4.18,0,0,0-.51-.1c-.24,0-.45-.06-.69-.08s-.45,0-.69,0c-.45,0-.91,0-1.36,0s-1.08,0-1.64,0a15.27,15.27,0,0,0-1.5.29l-1.18.28h0a2.7,2.7,0,0,0-.57.18l-.28.1h0l-.39.17-.1.06,0,0s0,0,0,0v0s0,0,0,.06-.06.08-.1.08S275.85,49.26,275.87,49.18Z" transform="translate(-101.35 -3)"/><path class="cls-2" d="M262.75,49.58a.23.23,0,0,1-.16-.06,1.84,1.84,0,0,1-.15-.28,5.37,5.37,0,0,0-.44-.51h0l0,0h0a1.31,1.31,0,0,0-.25-.22l-.12-.1h0L261,48c-.12-.06-.22-.14-.34-.2l-.35-.18-.42-.17a1.27,1.27,0,0,0-.23-.08l-.22-.08a3.36,3.36,0,0,1-.45-.14c-.44-.12-.87-.24-1.31-.33s-.9-.2-1.36-.28h0l-1.63-.24c-.24,0-.5-.06-.73-.08s-.26,0-.4,0l-.41,0h-.44l-.35,0-.39,0a3.48,3.48,0,0,0-.44.1l-.39.1-.06.06a0,0,0,0,0,0,0s0,0,0,.06a.31.31,0,0,1-.34.1.34.34,0,0,1-.25-.24h0s0,0,0,0a.59.59,0,0,1,0-.55c.14-.26.45-.33.71-.41s.47-.12.69-.16a2.09,2.09,0,0,1,.35,0,2.82,2.82,0,0,1,.4,0h.63l.73.06c.43,0,.86.08,1.3.14s.95.11,1.42.19l.73.14c.23,0,.45.1.69.16s.39.1.59.16l.65.19a3.71,3.71,0,0,1,.39.14l.32.14.26.12.35.18.14.08a1.16,1.16,0,0,1,.22.13,1.22,1.22,0,0,1,.25.2,4.78,4.78,0,0,1,.54.47,3.1,3.1,0,0,1,.35.46,2.36,2.36,0,0,1,.16.37,3.73,3.73,0,0,1,.2.59,1.34,1.34,0,0,0,.07.18h0c.26.12.24.32.1.32Z" transform="translate(-101.35 -3)"/><path class="cls-2" d="M269.87,67.28a1.47,1.47,0,0,1-.31-.23,7.11,7.11,0,0,0-.62-.46,1.28,1.28,0,0,0-.31-.15,2.67,2.67,0,0,0-.36-.14l-.39-.1-.36,0a2.48,2.48,0,0,0-.39,0l-.35.06a5.53,5.53,0,0,0-.79.24c-.12,0-.26.09-.38.15s-.1.06-.16.08a1.64,1.64,0,0,1-.29.16l-.28.12a.43.43,0,0,1-.55-.59,2.9,2.9,0,0,1,.34-.52,1.24,1.24,0,0,1,.39-.35,2.53,2.53,0,0,1,.51-.28A4.83,4.83,0,0,1,268,64.9a4.08,4.08,0,0,1,1.14.35,5.44,5.44,0,0,1,.73.44l.36.27.05-.15a3.69,3.69,0,0,0,.1-.5c.06-.47.12-.92.14-1.4V62.57c0-.43,0-.87,0-1.3s0-.89-.06-1.32,0-1,0-1.42-.06-1.13-.06-1.68,0-1.16,0-1.75V55h0v-.06h0v-.49h0c0-.44,0-.89,0-1.32s0-.81,0-1.23v0h0c0-.27,0-.53,0-.8s0-.5,0-.75a.19.19,0,0,1,0-.18,0,0,0,0,1,0,0,.14.14,0,0,1,.24,0s0,0,0,0,0,.06,0,.1c.06.45.16.88.23,1.32s.16.9.26,1.36a20.53,20.53,0,0,1,.26,2.72c0,.91.1,1.79.15,2.7,0,.43,0,.89.06,1.34l.06,1.36c0,.46,0,.91,0,1.36v1.3a10.52,10.52,0,0,1-.1,1.37c0,.21-.05.45-.09.67a4.83,4.83,0,0,1-.2.69,1.58,1.58,0,0,1-.42.65,1.15,1.15,0,0,1-.61.25h-.06A.6.6,0,0,1,269.87,67.28Z" transform="translate(-101.35 -3)"/></g></svg>