<?xml version="1.0" encoding="utf-8"?>
<!-- Generator: Adobe Illustrator 24.3.0, SVG Export Plug-In . SVG Version: 6.00 Build 0)  -->
<svg version="1.1" id="Calque_1" xmlns="http://www.w3.org/2000/svg" xmlns:xlink="http://www.w3.org/1999/xlink" x="0px" y="0px"
	 viewBox="0 0 1200 100" style="enable-background:new 0 0 1200 100;" xml:space="preserve">
<style type="text/css">
	.st0{fill:none;stroke:#000000;stroke-width:2.5;stroke-linecap:round;stroke-linejoin:round;stroke-miterlimit:10;}
</style>
<g>
	<g>
		<g>
			<g>
				<g>
					<g>
						<g>
							<g>
								<path class="st0" d="M711.6,50.5c-0.2,0.6-0.4,1.1-0.7,1.7c-1,2.2-2.5,4.1-4.5,5.4c0,0,0,0,0,0c0,0,0,0,0,0
									c-2.6,1.8-4.9,2.5-6.6,2.2c-2.4-0.3-4-1.9-4.2-2.1c0,0,0,0,0,0c-1.3-1.7-1.6-4.2-0.3-6.2c2.4-3.8,7.3-7.6,17.5-7.3
									C712.7,46.1,712.4,48.3,711.6,50.5z"/>
								<path class="st0" d="M613.5,19.6c-1.1-4.4-7.5-3.1-8.1,0.9c-1.3,8.6,11.3,12.3,17.6,13.6c2.1,0.4,4.2,0.7,6.4,0.7
									c37.5,0.8,50.7-24,76.7-19.2c15.9,2.9,24.4,16.2,22.8,31.4c-0.2,2-0.6,4.1-1.2,6.2c-4,14.8-19.3,23.5-34.1,19.5
									c-12.3-3.4-19.6-16.1-16.2-28.4c2.8-10.3,13.4-16.4,23.7-13.6c6.6,1.8,11.3,6.9,11.5,13.4c3.4,0.1,7.3,0.7,12,1.8
									c1.4,0.4,2.9,0.7,4.3,1c32.7,7.4,62.3,5.8,61.4-13.4c-0.1-0.8-0.3-1.6-0.5-2.4c-1.1-2.9-3.4-5.3-6.2-6.6
									c-3.1-1.4-7.8-1.9-11.9,2.8c-5.7,6.6,2,16.1,9.4,12.3"/>
							</g>
						</g>
					</g>
				</g>
			</g>
		</g>
		<path class="st0" d="M788.8,29.3C864.1,15.4,902.3,87.4,1011,85c6.2-0.1,12.4-0.8,18.5-2.1c18.4-3.8,54.8-14.5,51.1-39.4
			c-1.8-11.6-20.3-15.3-23.6-2.6c-0.6,2.4-0.2,5.1,1.4,6.9c2.5,2.9,7.5,3.9,10.4,1.2c1.4-1.3,2.1-3.1,2.2-4.9"/>
	</g>
	<g>
		<g>
			<g>
				<g>
					<g>
						<g>
							<g>
								<path class="st0" d="M488.4,50.5c0.2,0.6,0.4,1.1,0.7,1.7c1,2.2,2.5,4.1,4.5,5.4c0,0,0,0,0,0c0,0,0,0,0,0
									c2.6,1.8,4.9,2.5,6.6,2.2c2.4-0.3,4-1.9,4.2-2.1c0,0,0,0,0,0c1.3-1.7,1.6-4.2,0.3-6.2c-2.4-3.8-7.3-7.6-17.5-7.3
									C487.3,46.1,487.6,48.3,488.4,50.5z"/>
								<path class="st0" d="M418.9,39.8c7.3,3.7,15.1-5.7,9.4-12.3c-4.1-4.7-8.8-4.2-11.9-2.8c-2.8,1.3-5.1,3.6-6.2,6.6
									c-0.3,0.8-0.5,1.6-0.5,2.4c-0.9,19.1,28.7,20.7,61.4,13.4c1.4-0.3,2.9-0.7,4.3-1c4.6-1.2,8.6-1.7,12-1.8
									c0.2-6.6,4.9-11.6,11.5-13.4c10.3-2.8,20.9,3.3,23.7,13.6c3.4,12.3-3.9,25.1-16.2,28.4c-14.8,4-30-4.7-34.1-19.5
									c-0.6-2.1-1-4.2-1.2-6.2c-1.5-15.2,6.9-28.5,22.8-31.4c26-4.8,39.2,20.1,76.7,19.2c2.1,0,4.3-0.3,6.4-0.7
									c6.3-1.3,18.9-5,17.6-13.6c-0.6-4-7-5.3-8.1-0.9"/>
							</g>
						</g>
					</g>
				</g>
			</g>
		</g>
		<path class="st0" d="M129.1,44.2c0.1,1.9,0.9,3.7,2.2,4.9c2.9,2.7,7.9,1.8,10.4-1.2c1.6-1.9,2-4.6,1.4-6.9
			c-3.3-12.7-21.8-9.1-23.6,2.6c-3.8,24.9,32.7,35.6,51.1,39.4c6.1,1.2,12.3,1.9,18.5,2.1c108.6,2.3,146.8-69.6,222.2-55.7"/>
	</g>
</g>
</svg>
